G75*
%MOIN*%
%OFA0B0*%
%FSLAX25Y25*%
%IPPOS*%
%LPD*%
%AMOC8*
5,1,8,0,0,1.08239X$1,22.5*
%
%ADD10C,0.00000*%
%ADD11R,0.05600X0.05600*%
%ADD12C,0.05600*%
%ADD13C,0.01600*%
%ADD14R,0.01600X0.03200*%
%ADD15R,0.07500X0.07500*%
%ADD16R,0.03200X0.01600*%
%ADD17C,0.01000*%
%ADD18C,0.03562*%
D10*
X0037824Y0050942D02*
X0077824Y0050942D01*
X0089824Y0038942D01*
X0089824Y0003942D01*
X0211824Y0003942D01*
X0211839Y0005150D01*
X0211882Y0006358D01*
X0211955Y0007564D01*
X0212057Y0008768D01*
X0212189Y0009969D01*
X0212349Y0011166D01*
X0212538Y0012360D01*
X0212755Y0013548D01*
X0213002Y0014731D01*
X0213277Y0015908D01*
X0213580Y0017077D01*
X0213912Y0018239D01*
X0214271Y0019393D01*
X0214658Y0020537D01*
X0215073Y0021672D01*
X0215515Y0022797D01*
X0215984Y0023910D01*
X0216480Y0025012D01*
X0217003Y0026102D01*
X0217551Y0027178D01*
X0218126Y0028241D01*
X0218726Y0029290D01*
X0219351Y0030324D01*
X0220000Y0031343D01*
X0220675Y0032345D01*
X0221373Y0033331D01*
X0222095Y0034300D01*
X0222840Y0035251D01*
X0223608Y0036184D01*
X0224398Y0037098D01*
X0225211Y0037993D01*
X0226044Y0038868D01*
X0226898Y0039722D01*
X0227773Y0040555D01*
X0228668Y0041368D01*
X0229582Y0042158D01*
X0230515Y0042926D01*
X0231466Y0043671D01*
X0232435Y0044393D01*
X0233421Y0045091D01*
X0234423Y0045766D01*
X0235442Y0046415D01*
X0236476Y0047040D01*
X0237525Y0047640D01*
X0238588Y0048215D01*
X0239664Y0048763D01*
X0240754Y0049286D01*
X0241856Y0049782D01*
X0242969Y0050251D01*
X0244094Y0050693D01*
X0245229Y0051108D01*
X0246373Y0051495D01*
X0247527Y0051854D01*
X0248689Y0052186D01*
X0249858Y0052489D01*
X0251035Y0052764D01*
X0252218Y0053011D01*
X0253406Y0053228D01*
X0254600Y0053417D01*
X0255797Y0053577D01*
X0256998Y0053709D01*
X0258202Y0053811D01*
X0259408Y0053884D01*
X0260616Y0053927D01*
X0261824Y0053942D01*
X0324824Y0053942D01*
X0324824Y0209690D01*
X0241044Y0209690D01*
X0229233Y0200793D01*
X0154430Y0200793D01*
X0146556Y0192919D01*
X0004824Y0192919D01*
X0004824Y0083942D01*
X0037824Y0050942D01*
X0098824Y0069942D02*
X0098826Y0070083D01*
X0098832Y0070224D01*
X0098842Y0070364D01*
X0098856Y0070504D01*
X0098874Y0070644D01*
X0098895Y0070783D01*
X0098921Y0070922D01*
X0098950Y0071060D01*
X0098984Y0071196D01*
X0099021Y0071332D01*
X0099062Y0071467D01*
X0099107Y0071601D01*
X0099156Y0071733D01*
X0099208Y0071864D01*
X0099264Y0071993D01*
X0099324Y0072120D01*
X0099387Y0072246D01*
X0099453Y0072370D01*
X0099524Y0072493D01*
X0099597Y0072613D01*
X0099674Y0072731D01*
X0099754Y0072847D01*
X0099838Y0072960D01*
X0099924Y0073071D01*
X0100014Y0073180D01*
X0100107Y0073286D01*
X0100202Y0073389D01*
X0100301Y0073490D01*
X0100402Y0073588D01*
X0100506Y0073683D01*
X0100613Y0073775D01*
X0100722Y0073864D01*
X0100834Y0073949D01*
X0100948Y0074032D01*
X0101064Y0074112D01*
X0101183Y0074188D01*
X0101304Y0074260D01*
X0101426Y0074330D01*
X0101551Y0074395D01*
X0101677Y0074458D01*
X0101805Y0074516D01*
X0101935Y0074571D01*
X0102066Y0074623D01*
X0102199Y0074670D01*
X0102333Y0074714D01*
X0102468Y0074755D01*
X0102604Y0074791D01*
X0102741Y0074823D01*
X0102879Y0074852D01*
X0103017Y0074877D01*
X0103157Y0074897D01*
X0103297Y0074914D01*
X0103437Y0074927D01*
X0103578Y0074936D01*
X0103718Y0074941D01*
X0103859Y0074942D01*
X0104000Y0074939D01*
X0104141Y0074932D01*
X0104281Y0074921D01*
X0104421Y0074906D01*
X0104561Y0074887D01*
X0104700Y0074865D01*
X0104838Y0074838D01*
X0104976Y0074808D01*
X0105112Y0074773D01*
X0105248Y0074735D01*
X0105382Y0074693D01*
X0105516Y0074647D01*
X0105648Y0074598D01*
X0105778Y0074544D01*
X0105907Y0074487D01*
X0106034Y0074427D01*
X0106160Y0074363D01*
X0106283Y0074295D01*
X0106405Y0074224D01*
X0106525Y0074150D01*
X0106642Y0074072D01*
X0106757Y0073991D01*
X0106870Y0073907D01*
X0106981Y0073820D01*
X0107089Y0073729D01*
X0107194Y0073636D01*
X0107297Y0073539D01*
X0107397Y0073440D01*
X0107494Y0073338D01*
X0107588Y0073233D01*
X0107679Y0073126D01*
X0107767Y0073016D01*
X0107852Y0072904D01*
X0107934Y0072789D01*
X0108013Y0072672D01*
X0108088Y0072553D01*
X0108160Y0072432D01*
X0108228Y0072309D01*
X0108293Y0072184D01*
X0108355Y0072057D01*
X0108412Y0071928D01*
X0108467Y0071798D01*
X0108517Y0071667D01*
X0108564Y0071534D01*
X0108607Y0071400D01*
X0108646Y0071264D01*
X0108681Y0071128D01*
X0108713Y0070991D01*
X0108740Y0070853D01*
X0108764Y0070714D01*
X0108784Y0070574D01*
X0108800Y0070434D01*
X0108812Y0070294D01*
X0108820Y0070153D01*
X0108824Y0070012D01*
X0108824Y0069872D01*
X0108820Y0069731D01*
X0108812Y0069590D01*
X0108800Y0069450D01*
X0108784Y0069310D01*
X0108764Y0069170D01*
X0108740Y0069031D01*
X0108713Y0068893D01*
X0108681Y0068756D01*
X0108646Y0068620D01*
X0108607Y0068484D01*
X0108564Y0068350D01*
X0108517Y0068217D01*
X0108467Y0068086D01*
X0108412Y0067956D01*
X0108355Y0067827D01*
X0108293Y0067700D01*
X0108228Y0067575D01*
X0108160Y0067452D01*
X0108088Y0067331D01*
X0108013Y0067212D01*
X0107934Y0067095D01*
X0107852Y0066980D01*
X0107767Y0066868D01*
X0107679Y0066758D01*
X0107588Y0066651D01*
X0107494Y0066546D01*
X0107397Y0066444D01*
X0107297Y0066345D01*
X0107194Y0066248D01*
X0107089Y0066155D01*
X0106981Y0066064D01*
X0106870Y0065977D01*
X0106757Y0065893D01*
X0106642Y0065812D01*
X0106525Y0065734D01*
X0106405Y0065660D01*
X0106283Y0065589D01*
X0106160Y0065521D01*
X0106034Y0065457D01*
X0105907Y0065397D01*
X0105778Y0065340D01*
X0105648Y0065286D01*
X0105516Y0065237D01*
X0105382Y0065191D01*
X0105248Y0065149D01*
X0105112Y0065111D01*
X0104976Y0065076D01*
X0104838Y0065046D01*
X0104700Y0065019D01*
X0104561Y0064997D01*
X0104421Y0064978D01*
X0104281Y0064963D01*
X0104141Y0064952D01*
X0104000Y0064945D01*
X0103859Y0064942D01*
X0103718Y0064943D01*
X0103578Y0064948D01*
X0103437Y0064957D01*
X0103297Y0064970D01*
X0103157Y0064987D01*
X0103017Y0065007D01*
X0102879Y0065032D01*
X0102741Y0065061D01*
X0102604Y0065093D01*
X0102468Y0065129D01*
X0102333Y0065170D01*
X0102199Y0065214D01*
X0102066Y0065261D01*
X0101935Y0065313D01*
X0101805Y0065368D01*
X0101677Y0065426D01*
X0101551Y0065489D01*
X0101426Y0065554D01*
X0101304Y0065624D01*
X0101183Y0065696D01*
X0101064Y0065772D01*
X0100948Y0065852D01*
X0100834Y0065935D01*
X0100722Y0066020D01*
X0100613Y0066109D01*
X0100506Y0066201D01*
X0100402Y0066296D01*
X0100301Y0066394D01*
X0100202Y0066495D01*
X0100107Y0066598D01*
X0100014Y0066704D01*
X0099924Y0066813D01*
X0099838Y0066924D01*
X0099754Y0067037D01*
X0099674Y0067153D01*
X0099597Y0067271D01*
X0099524Y0067391D01*
X0099453Y0067514D01*
X0099387Y0067638D01*
X0099324Y0067764D01*
X0099264Y0067891D01*
X0099208Y0068020D01*
X0099156Y0068151D01*
X0099107Y0068283D01*
X0099062Y0068417D01*
X0099021Y0068552D01*
X0098984Y0068688D01*
X0098950Y0068824D01*
X0098921Y0068962D01*
X0098895Y0069101D01*
X0098874Y0069240D01*
X0098856Y0069380D01*
X0098842Y0069520D01*
X0098832Y0069660D01*
X0098826Y0069801D01*
X0098824Y0069942D01*
X0117824Y0059942D02*
X0117826Y0060083D01*
X0117832Y0060224D01*
X0117842Y0060364D01*
X0117856Y0060504D01*
X0117874Y0060644D01*
X0117895Y0060783D01*
X0117921Y0060922D01*
X0117950Y0061060D01*
X0117984Y0061196D01*
X0118021Y0061332D01*
X0118062Y0061467D01*
X0118107Y0061601D01*
X0118156Y0061733D01*
X0118208Y0061864D01*
X0118264Y0061993D01*
X0118324Y0062120D01*
X0118387Y0062246D01*
X0118453Y0062370D01*
X0118524Y0062493D01*
X0118597Y0062613D01*
X0118674Y0062731D01*
X0118754Y0062847D01*
X0118838Y0062960D01*
X0118924Y0063071D01*
X0119014Y0063180D01*
X0119107Y0063286D01*
X0119202Y0063389D01*
X0119301Y0063490D01*
X0119402Y0063588D01*
X0119506Y0063683D01*
X0119613Y0063775D01*
X0119722Y0063864D01*
X0119834Y0063949D01*
X0119948Y0064032D01*
X0120064Y0064112D01*
X0120183Y0064188D01*
X0120304Y0064260D01*
X0120426Y0064330D01*
X0120551Y0064395D01*
X0120677Y0064458D01*
X0120805Y0064516D01*
X0120935Y0064571D01*
X0121066Y0064623D01*
X0121199Y0064670D01*
X0121333Y0064714D01*
X0121468Y0064755D01*
X0121604Y0064791D01*
X0121741Y0064823D01*
X0121879Y0064852D01*
X0122017Y0064877D01*
X0122157Y0064897D01*
X0122297Y0064914D01*
X0122437Y0064927D01*
X0122578Y0064936D01*
X0122718Y0064941D01*
X0122859Y0064942D01*
X0123000Y0064939D01*
X0123141Y0064932D01*
X0123281Y0064921D01*
X0123421Y0064906D01*
X0123561Y0064887D01*
X0123700Y0064865D01*
X0123838Y0064838D01*
X0123976Y0064808D01*
X0124112Y0064773D01*
X0124248Y0064735D01*
X0124382Y0064693D01*
X0124516Y0064647D01*
X0124648Y0064598D01*
X0124778Y0064544D01*
X0124907Y0064487D01*
X0125034Y0064427D01*
X0125160Y0064363D01*
X0125283Y0064295D01*
X0125405Y0064224D01*
X0125525Y0064150D01*
X0125642Y0064072D01*
X0125757Y0063991D01*
X0125870Y0063907D01*
X0125981Y0063820D01*
X0126089Y0063729D01*
X0126194Y0063636D01*
X0126297Y0063539D01*
X0126397Y0063440D01*
X0126494Y0063338D01*
X0126588Y0063233D01*
X0126679Y0063126D01*
X0126767Y0063016D01*
X0126852Y0062904D01*
X0126934Y0062789D01*
X0127013Y0062672D01*
X0127088Y0062553D01*
X0127160Y0062432D01*
X0127228Y0062309D01*
X0127293Y0062184D01*
X0127355Y0062057D01*
X0127412Y0061928D01*
X0127467Y0061798D01*
X0127517Y0061667D01*
X0127564Y0061534D01*
X0127607Y0061400D01*
X0127646Y0061264D01*
X0127681Y0061128D01*
X0127713Y0060991D01*
X0127740Y0060853D01*
X0127764Y0060714D01*
X0127784Y0060574D01*
X0127800Y0060434D01*
X0127812Y0060294D01*
X0127820Y0060153D01*
X0127824Y0060012D01*
X0127824Y0059872D01*
X0127820Y0059731D01*
X0127812Y0059590D01*
X0127800Y0059450D01*
X0127784Y0059310D01*
X0127764Y0059170D01*
X0127740Y0059031D01*
X0127713Y0058893D01*
X0127681Y0058756D01*
X0127646Y0058620D01*
X0127607Y0058484D01*
X0127564Y0058350D01*
X0127517Y0058217D01*
X0127467Y0058086D01*
X0127412Y0057956D01*
X0127355Y0057827D01*
X0127293Y0057700D01*
X0127228Y0057575D01*
X0127160Y0057452D01*
X0127088Y0057331D01*
X0127013Y0057212D01*
X0126934Y0057095D01*
X0126852Y0056980D01*
X0126767Y0056868D01*
X0126679Y0056758D01*
X0126588Y0056651D01*
X0126494Y0056546D01*
X0126397Y0056444D01*
X0126297Y0056345D01*
X0126194Y0056248D01*
X0126089Y0056155D01*
X0125981Y0056064D01*
X0125870Y0055977D01*
X0125757Y0055893D01*
X0125642Y0055812D01*
X0125525Y0055734D01*
X0125405Y0055660D01*
X0125283Y0055589D01*
X0125160Y0055521D01*
X0125034Y0055457D01*
X0124907Y0055397D01*
X0124778Y0055340D01*
X0124648Y0055286D01*
X0124516Y0055237D01*
X0124382Y0055191D01*
X0124248Y0055149D01*
X0124112Y0055111D01*
X0123976Y0055076D01*
X0123838Y0055046D01*
X0123700Y0055019D01*
X0123561Y0054997D01*
X0123421Y0054978D01*
X0123281Y0054963D01*
X0123141Y0054952D01*
X0123000Y0054945D01*
X0122859Y0054942D01*
X0122718Y0054943D01*
X0122578Y0054948D01*
X0122437Y0054957D01*
X0122297Y0054970D01*
X0122157Y0054987D01*
X0122017Y0055007D01*
X0121879Y0055032D01*
X0121741Y0055061D01*
X0121604Y0055093D01*
X0121468Y0055129D01*
X0121333Y0055170D01*
X0121199Y0055214D01*
X0121066Y0055261D01*
X0120935Y0055313D01*
X0120805Y0055368D01*
X0120677Y0055426D01*
X0120551Y0055489D01*
X0120426Y0055554D01*
X0120304Y0055624D01*
X0120183Y0055696D01*
X0120064Y0055772D01*
X0119948Y0055852D01*
X0119834Y0055935D01*
X0119722Y0056020D01*
X0119613Y0056109D01*
X0119506Y0056201D01*
X0119402Y0056296D01*
X0119301Y0056394D01*
X0119202Y0056495D01*
X0119107Y0056598D01*
X0119014Y0056704D01*
X0118924Y0056813D01*
X0118838Y0056924D01*
X0118754Y0057037D01*
X0118674Y0057153D01*
X0118597Y0057271D01*
X0118524Y0057391D01*
X0118453Y0057514D01*
X0118387Y0057638D01*
X0118324Y0057764D01*
X0118264Y0057891D01*
X0118208Y0058020D01*
X0118156Y0058151D01*
X0118107Y0058283D01*
X0118062Y0058417D01*
X0118021Y0058552D01*
X0117984Y0058688D01*
X0117950Y0058824D01*
X0117921Y0058962D01*
X0117895Y0059101D01*
X0117874Y0059240D01*
X0117856Y0059380D01*
X0117842Y0059520D01*
X0117832Y0059660D01*
X0117826Y0059801D01*
X0117824Y0059942D01*
X0149824Y0040942D02*
X0149826Y0041083D01*
X0149832Y0041224D01*
X0149842Y0041364D01*
X0149856Y0041504D01*
X0149874Y0041644D01*
X0149895Y0041783D01*
X0149921Y0041922D01*
X0149950Y0042060D01*
X0149984Y0042196D01*
X0150021Y0042332D01*
X0150062Y0042467D01*
X0150107Y0042601D01*
X0150156Y0042733D01*
X0150208Y0042864D01*
X0150264Y0042993D01*
X0150324Y0043120D01*
X0150387Y0043246D01*
X0150453Y0043370D01*
X0150524Y0043493D01*
X0150597Y0043613D01*
X0150674Y0043731D01*
X0150754Y0043847D01*
X0150838Y0043960D01*
X0150924Y0044071D01*
X0151014Y0044180D01*
X0151107Y0044286D01*
X0151202Y0044389D01*
X0151301Y0044490D01*
X0151402Y0044588D01*
X0151506Y0044683D01*
X0151613Y0044775D01*
X0151722Y0044864D01*
X0151834Y0044949D01*
X0151948Y0045032D01*
X0152064Y0045112D01*
X0152183Y0045188D01*
X0152304Y0045260D01*
X0152426Y0045330D01*
X0152551Y0045395D01*
X0152677Y0045458D01*
X0152805Y0045516D01*
X0152935Y0045571D01*
X0153066Y0045623D01*
X0153199Y0045670D01*
X0153333Y0045714D01*
X0153468Y0045755D01*
X0153604Y0045791D01*
X0153741Y0045823D01*
X0153879Y0045852D01*
X0154017Y0045877D01*
X0154157Y0045897D01*
X0154297Y0045914D01*
X0154437Y0045927D01*
X0154578Y0045936D01*
X0154718Y0045941D01*
X0154859Y0045942D01*
X0155000Y0045939D01*
X0155141Y0045932D01*
X0155281Y0045921D01*
X0155421Y0045906D01*
X0155561Y0045887D01*
X0155700Y0045865D01*
X0155838Y0045838D01*
X0155976Y0045808D01*
X0156112Y0045773D01*
X0156248Y0045735D01*
X0156382Y0045693D01*
X0156516Y0045647D01*
X0156648Y0045598D01*
X0156778Y0045544D01*
X0156907Y0045487D01*
X0157034Y0045427D01*
X0157160Y0045363D01*
X0157283Y0045295D01*
X0157405Y0045224D01*
X0157525Y0045150D01*
X0157642Y0045072D01*
X0157757Y0044991D01*
X0157870Y0044907D01*
X0157981Y0044820D01*
X0158089Y0044729D01*
X0158194Y0044636D01*
X0158297Y0044539D01*
X0158397Y0044440D01*
X0158494Y0044338D01*
X0158588Y0044233D01*
X0158679Y0044126D01*
X0158767Y0044016D01*
X0158852Y0043904D01*
X0158934Y0043789D01*
X0159013Y0043672D01*
X0159088Y0043553D01*
X0159160Y0043432D01*
X0159228Y0043309D01*
X0159293Y0043184D01*
X0159355Y0043057D01*
X0159412Y0042928D01*
X0159467Y0042798D01*
X0159517Y0042667D01*
X0159564Y0042534D01*
X0159607Y0042400D01*
X0159646Y0042264D01*
X0159681Y0042128D01*
X0159713Y0041991D01*
X0159740Y0041853D01*
X0159764Y0041714D01*
X0159784Y0041574D01*
X0159800Y0041434D01*
X0159812Y0041294D01*
X0159820Y0041153D01*
X0159824Y0041012D01*
X0159824Y0040872D01*
X0159820Y0040731D01*
X0159812Y0040590D01*
X0159800Y0040450D01*
X0159784Y0040310D01*
X0159764Y0040170D01*
X0159740Y0040031D01*
X0159713Y0039893D01*
X0159681Y0039756D01*
X0159646Y0039620D01*
X0159607Y0039484D01*
X0159564Y0039350D01*
X0159517Y0039217D01*
X0159467Y0039086D01*
X0159412Y0038956D01*
X0159355Y0038827D01*
X0159293Y0038700D01*
X0159228Y0038575D01*
X0159160Y0038452D01*
X0159088Y0038331D01*
X0159013Y0038212D01*
X0158934Y0038095D01*
X0158852Y0037980D01*
X0158767Y0037868D01*
X0158679Y0037758D01*
X0158588Y0037651D01*
X0158494Y0037546D01*
X0158397Y0037444D01*
X0158297Y0037345D01*
X0158194Y0037248D01*
X0158089Y0037155D01*
X0157981Y0037064D01*
X0157870Y0036977D01*
X0157757Y0036893D01*
X0157642Y0036812D01*
X0157525Y0036734D01*
X0157405Y0036660D01*
X0157283Y0036589D01*
X0157160Y0036521D01*
X0157034Y0036457D01*
X0156907Y0036397D01*
X0156778Y0036340D01*
X0156648Y0036286D01*
X0156516Y0036237D01*
X0156382Y0036191D01*
X0156248Y0036149D01*
X0156112Y0036111D01*
X0155976Y0036076D01*
X0155838Y0036046D01*
X0155700Y0036019D01*
X0155561Y0035997D01*
X0155421Y0035978D01*
X0155281Y0035963D01*
X0155141Y0035952D01*
X0155000Y0035945D01*
X0154859Y0035942D01*
X0154718Y0035943D01*
X0154578Y0035948D01*
X0154437Y0035957D01*
X0154297Y0035970D01*
X0154157Y0035987D01*
X0154017Y0036007D01*
X0153879Y0036032D01*
X0153741Y0036061D01*
X0153604Y0036093D01*
X0153468Y0036129D01*
X0153333Y0036170D01*
X0153199Y0036214D01*
X0153066Y0036261D01*
X0152935Y0036313D01*
X0152805Y0036368D01*
X0152677Y0036426D01*
X0152551Y0036489D01*
X0152426Y0036554D01*
X0152304Y0036624D01*
X0152183Y0036696D01*
X0152064Y0036772D01*
X0151948Y0036852D01*
X0151834Y0036935D01*
X0151722Y0037020D01*
X0151613Y0037109D01*
X0151506Y0037201D01*
X0151402Y0037296D01*
X0151301Y0037394D01*
X0151202Y0037495D01*
X0151107Y0037598D01*
X0151014Y0037704D01*
X0150924Y0037813D01*
X0150838Y0037924D01*
X0150754Y0038037D01*
X0150674Y0038153D01*
X0150597Y0038271D01*
X0150524Y0038391D01*
X0150453Y0038514D01*
X0150387Y0038638D01*
X0150324Y0038764D01*
X0150264Y0038891D01*
X0150208Y0039020D01*
X0150156Y0039151D01*
X0150107Y0039283D01*
X0150062Y0039417D01*
X0150021Y0039552D01*
X0149984Y0039688D01*
X0149950Y0039824D01*
X0149921Y0039962D01*
X0149895Y0040101D01*
X0149874Y0040240D01*
X0149856Y0040380D01*
X0149842Y0040520D01*
X0149832Y0040660D01*
X0149826Y0040801D01*
X0149824Y0040942D01*
X0202824Y0115942D02*
X0202826Y0116083D01*
X0202832Y0116224D01*
X0202842Y0116364D01*
X0202856Y0116504D01*
X0202874Y0116644D01*
X0202895Y0116783D01*
X0202921Y0116922D01*
X0202950Y0117060D01*
X0202984Y0117196D01*
X0203021Y0117332D01*
X0203062Y0117467D01*
X0203107Y0117601D01*
X0203156Y0117733D01*
X0203208Y0117864D01*
X0203264Y0117993D01*
X0203324Y0118120D01*
X0203387Y0118246D01*
X0203453Y0118370D01*
X0203524Y0118493D01*
X0203597Y0118613D01*
X0203674Y0118731D01*
X0203754Y0118847D01*
X0203838Y0118960D01*
X0203924Y0119071D01*
X0204014Y0119180D01*
X0204107Y0119286D01*
X0204202Y0119389D01*
X0204301Y0119490D01*
X0204402Y0119588D01*
X0204506Y0119683D01*
X0204613Y0119775D01*
X0204722Y0119864D01*
X0204834Y0119949D01*
X0204948Y0120032D01*
X0205064Y0120112D01*
X0205183Y0120188D01*
X0205304Y0120260D01*
X0205426Y0120330D01*
X0205551Y0120395D01*
X0205677Y0120458D01*
X0205805Y0120516D01*
X0205935Y0120571D01*
X0206066Y0120623D01*
X0206199Y0120670D01*
X0206333Y0120714D01*
X0206468Y0120755D01*
X0206604Y0120791D01*
X0206741Y0120823D01*
X0206879Y0120852D01*
X0207017Y0120877D01*
X0207157Y0120897D01*
X0207297Y0120914D01*
X0207437Y0120927D01*
X0207578Y0120936D01*
X0207718Y0120941D01*
X0207859Y0120942D01*
X0208000Y0120939D01*
X0208141Y0120932D01*
X0208281Y0120921D01*
X0208421Y0120906D01*
X0208561Y0120887D01*
X0208700Y0120865D01*
X0208838Y0120838D01*
X0208976Y0120808D01*
X0209112Y0120773D01*
X0209248Y0120735D01*
X0209382Y0120693D01*
X0209516Y0120647D01*
X0209648Y0120598D01*
X0209778Y0120544D01*
X0209907Y0120487D01*
X0210034Y0120427D01*
X0210160Y0120363D01*
X0210283Y0120295D01*
X0210405Y0120224D01*
X0210525Y0120150D01*
X0210642Y0120072D01*
X0210757Y0119991D01*
X0210870Y0119907D01*
X0210981Y0119820D01*
X0211089Y0119729D01*
X0211194Y0119636D01*
X0211297Y0119539D01*
X0211397Y0119440D01*
X0211494Y0119338D01*
X0211588Y0119233D01*
X0211679Y0119126D01*
X0211767Y0119016D01*
X0211852Y0118904D01*
X0211934Y0118789D01*
X0212013Y0118672D01*
X0212088Y0118553D01*
X0212160Y0118432D01*
X0212228Y0118309D01*
X0212293Y0118184D01*
X0212355Y0118057D01*
X0212412Y0117928D01*
X0212467Y0117798D01*
X0212517Y0117667D01*
X0212564Y0117534D01*
X0212607Y0117400D01*
X0212646Y0117264D01*
X0212681Y0117128D01*
X0212713Y0116991D01*
X0212740Y0116853D01*
X0212764Y0116714D01*
X0212784Y0116574D01*
X0212800Y0116434D01*
X0212812Y0116294D01*
X0212820Y0116153D01*
X0212824Y0116012D01*
X0212824Y0115872D01*
X0212820Y0115731D01*
X0212812Y0115590D01*
X0212800Y0115450D01*
X0212784Y0115310D01*
X0212764Y0115170D01*
X0212740Y0115031D01*
X0212713Y0114893D01*
X0212681Y0114756D01*
X0212646Y0114620D01*
X0212607Y0114484D01*
X0212564Y0114350D01*
X0212517Y0114217D01*
X0212467Y0114086D01*
X0212412Y0113956D01*
X0212355Y0113827D01*
X0212293Y0113700D01*
X0212228Y0113575D01*
X0212160Y0113452D01*
X0212088Y0113331D01*
X0212013Y0113212D01*
X0211934Y0113095D01*
X0211852Y0112980D01*
X0211767Y0112868D01*
X0211679Y0112758D01*
X0211588Y0112651D01*
X0211494Y0112546D01*
X0211397Y0112444D01*
X0211297Y0112345D01*
X0211194Y0112248D01*
X0211089Y0112155D01*
X0210981Y0112064D01*
X0210870Y0111977D01*
X0210757Y0111893D01*
X0210642Y0111812D01*
X0210525Y0111734D01*
X0210405Y0111660D01*
X0210283Y0111589D01*
X0210160Y0111521D01*
X0210034Y0111457D01*
X0209907Y0111397D01*
X0209778Y0111340D01*
X0209648Y0111286D01*
X0209516Y0111237D01*
X0209382Y0111191D01*
X0209248Y0111149D01*
X0209112Y0111111D01*
X0208976Y0111076D01*
X0208838Y0111046D01*
X0208700Y0111019D01*
X0208561Y0110997D01*
X0208421Y0110978D01*
X0208281Y0110963D01*
X0208141Y0110952D01*
X0208000Y0110945D01*
X0207859Y0110942D01*
X0207718Y0110943D01*
X0207578Y0110948D01*
X0207437Y0110957D01*
X0207297Y0110970D01*
X0207157Y0110987D01*
X0207017Y0111007D01*
X0206879Y0111032D01*
X0206741Y0111061D01*
X0206604Y0111093D01*
X0206468Y0111129D01*
X0206333Y0111170D01*
X0206199Y0111214D01*
X0206066Y0111261D01*
X0205935Y0111313D01*
X0205805Y0111368D01*
X0205677Y0111426D01*
X0205551Y0111489D01*
X0205426Y0111554D01*
X0205304Y0111624D01*
X0205183Y0111696D01*
X0205064Y0111772D01*
X0204948Y0111852D01*
X0204834Y0111935D01*
X0204722Y0112020D01*
X0204613Y0112109D01*
X0204506Y0112201D01*
X0204402Y0112296D01*
X0204301Y0112394D01*
X0204202Y0112495D01*
X0204107Y0112598D01*
X0204014Y0112704D01*
X0203924Y0112813D01*
X0203838Y0112924D01*
X0203754Y0113037D01*
X0203674Y0113153D01*
X0203597Y0113271D01*
X0203524Y0113391D01*
X0203453Y0113514D01*
X0203387Y0113638D01*
X0203324Y0113764D01*
X0203264Y0113891D01*
X0203208Y0114020D01*
X0203156Y0114151D01*
X0203107Y0114283D01*
X0203062Y0114417D01*
X0203021Y0114552D01*
X0202984Y0114688D01*
X0202950Y0114824D01*
X0202921Y0114962D01*
X0202895Y0115101D01*
X0202874Y0115240D01*
X0202856Y0115380D01*
X0202842Y0115520D01*
X0202832Y0115660D01*
X0202826Y0115801D01*
X0202824Y0115942D01*
X0260824Y0068942D02*
X0260827Y0069163D01*
X0260835Y0069384D01*
X0260848Y0069604D01*
X0260867Y0069824D01*
X0260892Y0070044D01*
X0260921Y0070263D01*
X0260957Y0070481D01*
X0260997Y0070698D01*
X0261043Y0070914D01*
X0261094Y0071129D01*
X0261150Y0071342D01*
X0261212Y0071555D01*
X0261278Y0071765D01*
X0261350Y0071974D01*
X0261427Y0072181D01*
X0261509Y0072386D01*
X0261596Y0072589D01*
X0261688Y0072790D01*
X0261785Y0072989D01*
X0261887Y0073185D01*
X0261993Y0073378D01*
X0262104Y0073569D01*
X0262220Y0073757D01*
X0262341Y0073942D01*
X0262466Y0074124D01*
X0262595Y0074303D01*
X0262729Y0074479D01*
X0262867Y0074652D01*
X0263009Y0074821D01*
X0263155Y0074986D01*
X0263306Y0075148D01*
X0263460Y0075306D01*
X0263618Y0075460D01*
X0263780Y0075611D01*
X0263945Y0075757D01*
X0264114Y0075899D01*
X0264287Y0076037D01*
X0264463Y0076171D01*
X0264642Y0076300D01*
X0264824Y0076425D01*
X0265009Y0076546D01*
X0265197Y0076662D01*
X0265388Y0076773D01*
X0265581Y0076879D01*
X0265777Y0076981D01*
X0265976Y0077078D01*
X0266177Y0077170D01*
X0266380Y0077257D01*
X0266585Y0077339D01*
X0266792Y0077416D01*
X0267001Y0077488D01*
X0267211Y0077554D01*
X0267424Y0077616D01*
X0267637Y0077672D01*
X0267852Y0077723D01*
X0268068Y0077769D01*
X0268285Y0077809D01*
X0268503Y0077845D01*
X0268722Y0077874D01*
X0268942Y0077899D01*
X0269162Y0077918D01*
X0269382Y0077931D01*
X0269603Y0077939D01*
X0269824Y0077942D01*
X0270045Y0077939D01*
X0270266Y0077931D01*
X0270486Y0077918D01*
X0270706Y0077899D01*
X0270926Y0077874D01*
X0271145Y0077845D01*
X0271363Y0077809D01*
X0271580Y0077769D01*
X0271796Y0077723D01*
X0272011Y0077672D01*
X0272224Y0077616D01*
X0272437Y0077554D01*
X0272647Y0077488D01*
X0272856Y0077416D01*
X0273063Y0077339D01*
X0273268Y0077257D01*
X0273471Y0077170D01*
X0273672Y0077078D01*
X0273871Y0076981D01*
X0274067Y0076879D01*
X0274260Y0076773D01*
X0274451Y0076662D01*
X0274639Y0076546D01*
X0274824Y0076425D01*
X0275006Y0076300D01*
X0275185Y0076171D01*
X0275361Y0076037D01*
X0275534Y0075899D01*
X0275703Y0075757D01*
X0275868Y0075611D01*
X0276030Y0075460D01*
X0276188Y0075306D01*
X0276342Y0075148D01*
X0276493Y0074986D01*
X0276639Y0074821D01*
X0276781Y0074652D01*
X0276919Y0074479D01*
X0277053Y0074303D01*
X0277182Y0074124D01*
X0277307Y0073942D01*
X0277428Y0073757D01*
X0277544Y0073569D01*
X0277655Y0073378D01*
X0277761Y0073185D01*
X0277863Y0072989D01*
X0277960Y0072790D01*
X0278052Y0072589D01*
X0278139Y0072386D01*
X0278221Y0072181D01*
X0278298Y0071974D01*
X0278370Y0071765D01*
X0278436Y0071555D01*
X0278498Y0071342D01*
X0278554Y0071129D01*
X0278605Y0070914D01*
X0278651Y0070698D01*
X0278691Y0070481D01*
X0278727Y0070263D01*
X0278756Y0070044D01*
X0278781Y0069824D01*
X0278800Y0069604D01*
X0278813Y0069384D01*
X0278821Y0069163D01*
X0278824Y0068942D01*
X0278821Y0068721D01*
X0278813Y0068500D01*
X0278800Y0068280D01*
X0278781Y0068060D01*
X0278756Y0067840D01*
X0278727Y0067621D01*
X0278691Y0067403D01*
X0278651Y0067186D01*
X0278605Y0066970D01*
X0278554Y0066755D01*
X0278498Y0066542D01*
X0278436Y0066329D01*
X0278370Y0066119D01*
X0278298Y0065910D01*
X0278221Y0065703D01*
X0278139Y0065498D01*
X0278052Y0065295D01*
X0277960Y0065094D01*
X0277863Y0064895D01*
X0277761Y0064699D01*
X0277655Y0064506D01*
X0277544Y0064315D01*
X0277428Y0064127D01*
X0277307Y0063942D01*
X0277182Y0063760D01*
X0277053Y0063581D01*
X0276919Y0063405D01*
X0276781Y0063232D01*
X0276639Y0063063D01*
X0276493Y0062898D01*
X0276342Y0062736D01*
X0276188Y0062578D01*
X0276030Y0062424D01*
X0275868Y0062273D01*
X0275703Y0062127D01*
X0275534Y0061985D01*
X0275361Y0061847D01*
X0275185Y0061713D01*
X0275006Y0061584D01*
X0274824Y0061459D01*
X0274639Y0061338D01*
X0274451Y0061222D01*
X0274260Y0061111D01*
X0274067Y0061005D01*
X0273871Y0060903D01*
X0273672Y0060806D01*
X0273471Y0060714D01*
X0273268Y0060627D01*
X0273063Y0060545D01*
X0272856Y0060468D01*
X0272647Y0060396D01*
X0272437Y0060330D01*
X0272224Y0060268D01*
X0272011Y0060212D01*
X0271796Y0060161D01*
X0271580Y0060115D01*
X0271363Y0060075D01*
X0271145Y0060039D01*
X0270926Y0060010D01*
X0270706Y0059985D01*
X0270486Y0059966D01*
X0270266Y0059953D01*
X0270045Y0059945D01*
X0269824Y0059942D01*
X0269603Y0059945D01*
X0269382Y0059953D01*
X0269162Y0059966D01*
X0268942Y0059985D01*
X0268722Y0060010D01*
X0268503Y0060039D01*
X0268285Y0060075D01*
X0268068Y0060115D01*
X0267852Y0060161D01*
X0267637Y0060212D01*
X0267424Y0060268D01*
X0267211Y0060330D01*
X0267001Y0060396D01*
X0266792Y0060468D01*
X0266585Y0060545D01*
X0266380Y0060627D01*
X0266177Y0060714D01*
X0265976Y0060806D01*
X0265777Y0060903D01*
X0265581Y0061005D01*
X0265388Y0061111D01*
X0265197Y0061222D01*
X0265009Y0061338D01*
X0264824Y0061459D01*
X0264642Y0061584D01*
X0264463Y0061713D01*
X0264287Y0061847D01*
X0264114Y0061985D01*
X0263945Y0062127D01*
X0263780Y0062273D01*
X0263618Y0062424D01*
X0263460Y0062578D01*
X0263306Y0062736D01*
X0263155Y0062898D01*
X0263009Y0063063D01*
X0262867Y0063232D01*
X0262729Y0063405D01*
X0262595Y0063581D01*
X0262466Y0063760D01*
X0262341Y0063942D01*
X0262220Y0064127D01*
X0262104Y0064315D01*
X0261993Y0064506D01*
X0261887Y0064699D01*
X0261785Y0064895D01*
X0261688Y0065094D01*
X0261596Y0065295D01*
X0261509Y0065498D01*
X0261427Y0065703D01*
X0261350Y0065910D01*
X0261278Y0066119D01*
X0261212Y0066329D01*
X0261150Y0066542D01*
X0261094Y0066755D01*
X0261043Y0066970D01*
X0260997Y0067186D01*
X0260957Y0067403D01*
X0260921Y0067621D01*
X0260892Y0067840D01*
X0260867Y0068060D01*
X0260848Y0068280D01*
X0260835Y0068500D01*
X0260827Y0068721D01*
X0260824Y0068942D01*
X0308824Y0080942D02*
X0308826Y0081083D01*
X0308832Y0081224D01*
X0308842Y0081364D01*
X0308856Y0081504D01*
X0308874Y0081644D01*
X0308895Y0081783D01*
X0308921Y0081922D01*
X0308950Y0082060D01*
X0308984Y0082196D01*
X0309021Y0082332D01*
X0309062Y0082467D01*
X0309107Y0082601D01*
X0309156Y0082733D01*
X0309208Y0082864D01*
X0309264Y0082993D01*
X0309324Y0083120D01*
X0309387Y0083246D01*
X0309453Y0083370D01*
X0309524Y0083493D01*
X0309597Y0083613D01*
X0309674Y0083731D01*
X0309754Y0083847D01*
X0309838Y0083960D01*
X0309924Y0084071D01*
X0310014Y0084180D01*
X0310107Y0084286D01*
X0310202Y0084389D01*
X0310301Y0084490D01*
X0310402Y0084588D01*
X0310506Y0084683D01*
X0310613Y0084775D01*
X0310722Y0084864D01*
X0310834Y0084949D01*
X0310948Y0085032D01*
X0311064Y0085112D01*
X0311183Y0085188D01*
X0311304Y0085260D01*
X0311426Y0085330D01*
X0311551Y0085395D01*
X0311677Y0085458D01*
X0311805Y0085516D01*
X0311935Y0085571D01*
X0312066Y0085623D01*
X0312199Y0085670D01*
X0312333Y0085714D01*
X0312468Y0085755D01*
X0312604Y0085791D01*
X0312741Y0085823D01*
X0312879Y0085852D01*
X0313017Y0085877D01*
X0313157Y0085897D01*
X0313297Y0085914D01*
X0313437Y0085927D01*
X0313578Y0085936D01*
X0313718Y0085941D01*
X0313859Y0085942D01*
X0314000Y0085939D01*
X0314141Y0085932D01*
X0314281Y0085921D01*
X0314421Y0085906D01*
X0314561Y0085887D01*
X0314700Y0085865D01*
X0314838Y0085838D01*
X0314976Y0085808D01*
X0315112Y0085773D01*
X0315248Y0085735D01*
X0315382Y0085693D01*
X0315516Y0085647D01*
X0315648Y0085598D01*
X0315778Y0085544D01*
X0315907Y0085487D01*
X0316034Y0085427D01*
X0316160Y0085363D01*
X0316283Y0085295D01*
X0316405Y0085224D01*
X0316525Y0085150D01*
X0316642Y0085072D01*
X0316757Y0084991D01*
X0316870Y0084907D01*
X0316981Y0084820D01*
X0317089Y0084729D01*
X0317194Y0084636D01*
X0317297Y0084539D01*
X0317397Y0084440D01*
X0317494Y0084338D01*
X0317588Y0084233D01*
X0317679Y0084126D01*
X0317767Y0084016D01*
X0317852Y0083904D01*
X0317934Y0083789D01*
X0318013Y0083672D01*
X0318088Y0083553D01*
X0318160Y0083432D01*
X0318228Y0083309D01*
X0318293Y0083184D01*
X0318355Y0083057D01*
X0318412Y0082928D01*
X0318467Y0082798D01*
X0318517Y0082667D01*
X0318564Y0082534D01*
X0318607Y0082400D01*
X0318646Y0082264D01*
X0318681Y0082128D01*
X0318713Y0081991D01*
X0318740Y0081853D01*
X0318764Y0081714D01*
X0318784Y0081574D01*
X0318800Y0081434D01*
X0318812Y0081294D01*
X0318820Y0081153D01*
X0318824Y0081012D01*
X0318824Y0080872D01*
X0318820Y0080731D01*
X0318812Y0080590D01*
X0318800Y0080450D01*
X0318784Y0080310D01*
X0318764Y0080170D01*
X0318740Y0080031D01*
X0318713Y0079893D01*
X0318681Y0079756D01*
X0318646Y0079620D01*
X0318607Y0079484D01*
X0318564Y0079350D01*
X0318517Y0079217D01*
X0318467Y0079086D01*
X0318412Y0078956D01*
X0318355Y0078827D01*
X0318293Y0078700D01*
X0318228Y0078575D01*
X0318160Y0078452D01*
X0318088Y0078331D01*
X0318013Y0078212D01*
X0317934Y0078095D01*
X0317852Y0077980D01*
X0317767Y0077868D01*
X0317679Y0077758D01*
X0317588Y0077651D01*
X0317494Y0077546D01*
X0317397Y0077444D01*
X0317297Y0077345D01*
X0317194Y0077248D01*
X0317089Y0077155D01*
X0316981Y0077064D01*
X0316870Y0076977D01*
X0316757Y0076893D01*
X0316642Y0076812D01*
X0316525Y0076734D01*
X0316405Y0076660D01*
X0316283Y0076589D01*
X0316160Y0076521D01*
X0316034Y0076457D01*
X0315907Y0076397D01*
X0315778Y0076340D01*
X0315648Y0076286D01*
X0315516Y0076237D01*
X0315382Y0076191D01*
X0315248Y0076149D01*
X0315112Y0076111D01*
X0314976Y0076076D01*
X0314838Y0076046D01*
X0314700Y0076019D01*
X0314561Y0075997D01*
X0314421Y0075978D01*
X0314281Y0075963D01*
X0314141Y0075952D01*
X0314000Y0075945D01*
X0313859Y0075942D01*
X0313718Y0075943D01*
X0313578Y0075948D01*
X0313437Y0075957D01*
X0313297Y0075970D01*
X0313157Y0075987D01*
X0313017Y0076007D01*
X0312879Y0076032D01*
X0312741Y0076061D01*
X0312604Y0076093D01*
X0312468Y0076129D01*
X0312333Y0076170D01*
X0312199Y0076214D01*
X0312066Y0076261D01*
X0311935Y0076313D01*
X0311805Y0076368D01*
X0311677Y0076426D01*
X0311551Y0076489D01*
X0311426Y0076554D01*
X0311304Y0076624D01*
X0311183Y0076696D01*
X0311064Y0076772D01*
X0310948Y0076852D01*
X0310834Y0076935D01*
X0310722Y0077020D01*
X0310613Y0077109D01*
X0310506Y0077201D01*
X0310402Y0077296D01*
X0310301Y0077394D01*
X0310202Y0077495D01*
X0310107Y0077598D01*
X0310014Y0077704D01*
X0309924Y0077813D01*
X0309838Y0077924D01*
X0309754Y0078037D01*
X0309674Y0078153D01*
X0309597Y0078271D01*
X0309524Y0078391D01*
X0309453Y0078514D01*
X0309387Y0078638D01*
X0309324Y0078764D01*
X0309264Y0078891D01*
X0309208Y0079020D01*
X0309156Y0079151D01*
X0309107Y0079283D01*
X0309062Y0079417D01*
X0309021Y0079552D01*
X0308984Y0079688D01*
X0308950Y0079824D01*
X0308921Y0079962D01*
X0308895Y0080101D01*
X0308874Y0080240D01*
X0308856Y0080380D01*
X0308842Y0080520D01*
X0308832Y0080660D01*
X0308826Y0080801D01*
X0308824Y0080942D01*
X0313824Y0115942D02*
X0313826Y0116083D01*
X0313832Y0116224D01*
X0313842Y0116364D01*
X0313856Y0116504D01*
X0313874Y0116644D01*
X0313895Y0116783D01*
X0313921Y0116922D01*
X0313950Y0117060D01*
X0313984Y0117196D01*
X0314021Y0117332D01*
X0314062Y0117467D01*
X0314107Y0117601D01*
X0314156Y0117733D01*
X0314208Y0117864D01*
X0314264Y0117993D01*
X0314324Y0118120D01*
X0314387Y0118246D01*
X0314453Y0118370D01*
X0314524Y0118493D01*
X0314597Y0118613D01*
X0314674Y0118731D01*
X0314754Y0118847D01*
X0314838Y0118960D01*
X0314924Y0119071D01*
X0315014Y0119180D01*
X0315107Y0119286D01*
X0315202Y0119389D01*
X0315301Y0119490D01*
X0315402Y0119588D01*
X0315506Y0119683D01*
X0315613Y0119775D01*
X0315722Y0119864D01*
X0315834Y0119949D01*
X0315948Y0120032D01*
X0316064Y0120112D01*
X0316183Y0120188D01*
X0316304Y0120260D01*
X0316426Y0120330D01*
X0316551Y0120395D01*
X0316677Y0120458D01*
X0316805Y0120516D01*
X0316935Y0120571D01*
X0317066Y0120623D01*
X0317199Y0120670D01*
X0317333Y0120714D01*
X0317468Y0120755D01*
X0317604Y0120791D01*
X0317741Y0120823D01*
X0317879Y0120852D01*
X0318017Y0120877D01*
X0318157Y0120897D01*
X0318297Y0120914D01*
X0318437Y0120927D01*
X0318578Y0120936D01*
X0318718Y0120941D01*
X0318859Y0120942D01*
X0319000Y0120939D01*
X0319141Y0120932D01*
X0319281Y0120921D01*
X0319421Y0120906D01*
X0319561Y0120887D01*
X0319700Y0120865D01*
X0319838Y0120838D01*
X0319976Y0120808D01*
X0320112Y0120773D01*
X0320248Y0120735D01*
X0320382Y0120693D01*
X0320516Y0120647D01*
X0320648Y0120598D01*
X0320778Y0120544D01*
X0320907Y0120487D01*
X0321034Y0120427D01*
X0321160Y0120363D01*
X0321283Y0120295D01*
X0321405Y0120224D01*
X0321525Y0120150D01*
X0321642Y0120072D01*
X0321757Y0119991D01*
X0321870Y0119907D01*
X0321981Y0119820D01*
X0322089Y0119729D01*
X0322194Y0119636D01*
X0322297Y0119539D01*
X0322397Y0119440D01*
X0322494Y0119338D01*
X0322588Y0119233D01*
X0322679Y0119126D01*
X0322767Y0119016D01*
X0322852Y0118904D01*
X0322934Y0118789D01*
X0323013Y0118672D01*
X0323088Y0118553D01*
X0323160Y0118432D01*
X0323228Y0118309D01*
X0323293Y0118184D01*
X0323355Y0118057D01*
X0323412Y0117928D01*
X0323467Y0117798D01*
X0323517Y0117667D01*
X0323564Y0117534D01*
X0323607Y0117400D01*
X0323646Y0117264D01*
X0323681Y0117128D01*
X0323713Y0116991D01*
X0323740Y0116853D01*
X0323764Y0116714D01*
X0323784Y0116574D01*
X0323800Y0116434D01*
X0323812Y0116294D01*
X0323820Y0116153D01*
X0323824Y0116012D01*
X0323824Y0115872D01*
X0323820Y0115731D01*
X0323812Y0115590D01*
X0323800Y0115450D01*
X0323784Y0115310D01*
X0323764Y0115170D01*
X0323740Y0115031D01*
X0323713Y0114893D01*
X0323681Y0114756D01*
X0323646Y0114620D01*
X0323607Y0114484D01*
X0323564Y0114350D01*
X0323517Y0114217D01*
X0323467Y0114086D01*
X0323412Y0113956D01*
X0323355Y0113827D01*
X0323293Y0113700D01*
X0323228Y0113575D01*
X0323160Y0113452D01*
X0323088Y0113331D01*
X0323013Y0113212D01*
X0322934Y0113095D01*
X0322852Y0112980D01*
X0322767Y0112868D01*
X0322679Y0112758D01*
X0322588Y0112651D01*
X0322494Y0112546D01*
X0322397Y0112444D01*
X0322297Y0112345D01*
X0322194Y0112248D01*
X0322089Y0112155D01*
X0321981Y0112064D01*
X0321870Y0111977D01*
X0321757Y0111893D01*
X0321642Y0111812D01*
X0321525Y0111734D01*
X0321405Y0111660D01*
X0321283Y0111589D01*
X0321160Y0111521D01*
X0321034Y0111457D01*
X0320907Y0111397D01*
X0320778Y0111340D01*
X0320648Y0111286D01*
X0320516Y0111237D01*
X0320382Y0111191D01*
X0320248Y0111149D01*
X0320112Y0111111D01*
X0319976Y0111076D01*
X0319838Y0111046D01*
X0319700Y0111019D01*
X0319561Y0110997D01*
X0319421Y0110978D01*
X0319281Y0110963D01*
X0319141Y0110952D01*
X0319000Y0110945D01*
X0318859Y0110942D01*
X0318718Y0110943D01*
X0318578Y0110948D01*
X0318437Y0110957D01*
X0318297Y0110970D01*
X0318157Y0110987D01*
X0318017Y0111007D01*
X0317879Y0111032D01*
X0317741Y0111061D01*
X0317604Y0111093D01*
X0317468Y0111129D01*
X0317333Y0111170D01*
X0317199Y0111214D01*
X0317066Y0111261D01*
X0316935Y0111313D01*
X0316805Y0111368D01*
X0316677Y0111426D01*
X0316551Y0111489D01*
X0316426Y0111554D01*
X0316304Y0111624D01*
X0316183Y0111696D01*
X0316064Y0111772D01*
X0315948Y0111852D01*
X0315834Y0111935D01*
X0315722Y0112020D01*
X0315613Y0112109D01*
X0315506Y0112201D01*
X0315402Y0112296D01*
X0315301Y0112394D01*
X0315202Y0112495D01*
X0315107Y0112598D01*
X0315014Y0112704D01*
X0314924Y0112813D01*
X0314838Y0112924D01*
X0314754Y0113037D01*
X0314674Y0113153D01*
X0314597Y0113271D01*
X0314524Y0113391D01*
X0314453Y0113514D01*
X0314387Y0113638D01*
X0314324Y0113764D01*
X0314264Y0113891D01*
X0314208Y0114020D01*
X0314156Y0114151D01*
X0314107Y0114283D01*
X0314062Y0114417D01*
X0314021Y0114552D01*
X0313984Y0114688D01*
X0313950Y0114824D01*
X0313921Y0114962D01*
X0313895Y0115101D01*
X0313874Y0115240D01*
X0313856Y0115380D01*
X0313842Y0115520D01*
X0313832Y0115660D01*
X0313826Y0115801D01*
X0313824Y0115942D01*
X0308824Y0170942D02*
X0308826Y0171083D01*
X0308832Y0171224D01*
X0308842Y0171364D01*
X0308856Y0171504D01*
X0308874Y0171644D01*
X0308895Y0171783D01*
X0308921Y0171922D01*
X0308950Y0172060D01*
X0308984Y0172196D01*
X0309021Y0172332D01*
X0309062Y0172467D01*
X0309107Y0172601D01*
X0309156Y0172733D01*
X0309208Y0172864D01*
X0309264Y0172993D01*
X0309324Y0173120D01*
X0309387Y0173246D01*
X0309453Y0173370D01*
X0309524Y0173493D01*
X0309597Y0173613D01*
X0309674Y0173731D01*
X0309754Y0173847D01*
X0309838Y0173960D01*
X0309924Y0174071D01*
X0310014Y0174180D01*
X0310107Y0174286D01*
X0310202Y0174389D01*
X0310301Y0174490D01*
X0310402Y0174588D01*
X0310506Y0174683D01*
X0310613Y0174775D01*
X0310722Y0174864D01*
X0310834Y0174949D01*
X0310948Y0175032D01*
X0311064Y0175112D01*
X0311183Y0175188D01*
X0311304Y0175260D01*
X0311426Y0175330D01*
X0311551Y0175395D01*
X0311677Y0175458D01*
X0311805Y0175516D01*
X0311935Y0175571D01*
X0312066Y0175623D01*
X0312199Y0175670D01*
X0312333Y0175714D01*
X0312468Y0175755D01*
X0312604Y0175791D01*
X0312741Y0175823D01*
X0312879Y0175852D01*
X0313017Y0175877D01*
X0313157Y0175897D01*
X0313297Y0175914D01*
X0313437Y0175927D01*
X0313578Y0175936D01*
X0313718Y0175941D01*
X0313859Y0175942D01*
X0314000Y0175939D01*
X0314141Y0175932D01*
X0314281Y0175921D01*
X0314421Y0175906D01*
X0314561Y0175887D01*
X0314700Y0175865D01*
X0314838Y0175838D01*
X0314976Y0175808D01*
X0315112Y0175773D01*
X0315248Y0175735D01*
X0315382Y0175693D01*
X0315516Y0175647D01*
X0315648Y0175598D01*
X0315778Y0175544D01*
X0315907Y0175487D01*
X0316034Y0175427D01*
X0316160Y0175363D01*
X0316283Y0175295D01*
X0316405Y0175224D01*
X0316525Y0175150D01*
X0316642Y0175072D01*
X0316757Y0174991D01*
X0316870Y0174907D01*
X0316981Y0174820D01*
X0317089Y0174729D01*
X0317194Y0174636D01*
X0317297Y0174539D01*
X0317397Y0174440D01*
X0317494Y0174338D01*
X0317588Y0174233D01*
X0317679Y0174126D01*
X0317767Y0174016D01*
X0317852Y0173904D01*
X0317934Y0173789D01*
X0318013Y0173672D01*
X0318088Y0173553D01*
X0318160Y0173432D01*
X0318228Y0173309D01*
X0318293Y0173184D01*
X0318355Y0173057D01*
X0318412Y0172928D01*
X0318467Y0172798D01*
X0318517Y0172667D01*
X0318564Y0172534D01*
X0318607Y0172400D01*
X0318646Y0172264D01*
X0318681Y0172128D01*
X0318713Y0171991D01*
X0318740Y0171853D01*
X0318764Y0171714D01*
X0318784Y0171574D01*
X0318800Y0171434D01*
X0318812Y0171294D01*
X0318820Y0171153D01*
X0318824Y0171012D01*
X0318824Y0170872D01*
X0318820Y0170731D01*
X0318812Y0170590D01*
X0318800Y0170450D01*
X0318784Y0170310D01*
X0318764Y0170170D01*
X0318740Y0170031D01*
X0318713Y0169893D01*
X0318681Y0169756D01*
X0318646Y0169620D01*
X0318607Y0169484D01*
X0318564Y0169350D01*
X0318517Y0169217D01*
X0318467Y0169086D01*
X0318412Y0168956D01*
X0318355Y0168827D01*
X0318293Y0168700D01*
X0318228Y0168575D01*
X0318160Y0168452D01*
X0318088Y0168331D01*
X0318013Y0168212D01*
X0317934Y0168095D01*
X0317852Y0167980D01*
X0317767Y0167868D01*
X0317679Y0167758D01*
X0317588Y0167651D01*
X0317494Y0167546D01*
X0317397Y0167444D01*
X0317297Y0167345D01*
X0317194Y0167248D01*
X0317089Y0167155D01*
X0316981Y0167064D01*
X0316870Y0166977D01*
X0316757Y0166893D01*
X0316642Y0166812D01*
X0316525Y0166734D01*
X0316405Y0166660D01*
X0316283Y0166589D01*
X0316160Y0166521D01*
X0316034Y0166457D01*
X0315907Y0166397D01*
X0315778Y0166340D01*
X0315648Y0166286D01*
X0315516Y0166237D01*
X0315382Y0166191D01*
X0315248Y0166149D01*
X0315112Y0166111D01*
X0314976Y0166076D01*
X0314838Y0166046D01*
X0314700Y0166019D01*
X0314561Y0165997D01*
X0314421Y0165978D01*
X0314281Y0165963D01*
X0314141Y0165952D01*
X0314000Y0165945D01*
X0313859Y0165942D01*
X0313718Y0165943D01*
X0313578Y0165948D01*
X0313437Y0165957D01*
X0313297Y0165970D01*
X0313157Y0165987D01*
X0313017Y0166007D01*
X0312879Y0166032D01*
X0312741Y0166061D01*
X0312604Y0166093D01*
X0312468Y0166129D01*
X0312333Y0166170D01*
X0312199Y0166214D01*
X0312066Y0166261D01*
X0311935Y0166313D01*
X0311805Y0166368D01*
X0311677Y0166426D01*
X0311551Y0166489D01*
X0311426Y0166554D01*
X0311304Y0166624D01*
X0311183Y0166696D01*
X0311064Y0166772D01*
X0310948Y0166852D01*
X0310834Y0166935D01*
X0310722Y0167020D01*
X0310613Y0167109D01*
X0310506Y0167201D01*
X0310402Y0167296D01*
X0310301Y0167394D01*
X0310202Y0167495D01*
X0310107Y0167598D01*
X0310014Y0167704D01*
X0309924Y0167813D01*
X0309838Y0167924D01*
X0309754Y0168037D01*
X0309674Y0168153D01*
X0309597Y0168271D01*
X0309524Y0168391D01*
X0309453Y0168514D01*
X0309387Y0168638D01*
X0309324Y0168764D01*
X0309264Y0168891D01*
X0309208Y0169020D01*
X0309156Y0169151D01*
X0309107Y0169283D01*
X0309062Y0169417D01*
X0309021Y0169552D01*
X0308984Y0169688D01*
X0308950Y0169824D01*
X0308921Y0169962D01*
X0308895Y0170101D01*
X0308874Y0170240D01*
X0308856Y0170380D01*
X0308842Y0170520D01*
X0308832Y0170660D01*
X0308826Y0170801D01*
X0308824Y0170942D01*
X0119824Y0147942D02*
X0119826Y0148083D01*
X0119832Y0148224D01*
X0119842Y0148364D01*
X0119856Y0148504D01*
X0119874Y0148644D01*
X0119895Y0148783D01*
X0119921Y0148922D01*
X0119950Y0149060D01*
X0119984Y0149196D01*
X0120021Y0149332D01*
X0120062Y0149467D01*
X0120107Y0149601D01*
X0120156Y0149733D01*
X0120208Y0149864D01*
X0120264Y0149993D01*
X0120324Y0150120D01*
X0120387Y0150246D01*
X0120453Y0150370D01*
X0120524Y0150493D01*
X0120597Y0150613D01*
X0120674Y0150731D01*
X0120754Y0150847D01*
X0120838Y0150960D01*
X0120924Y0151071D01*
X0121014Y0151180D01*
X0121107Y0151286D01*
X0121202Y0151389D01*
X0121301Y0151490D01*
X0121402Y0151588D01*
X0121506Y0151683D01*
X0121613Y0151775D01*
X0121722Y0151864D01*
X0121834Y0151949D01*
X0121948Y0152032D01*
X0122064Y0152112D01*
X0122183Y0152188D01*
X0122304Y0152260D01*
X0122426Y0152330D01*
X0122551Y0152395D01*
X0122677Y0152458D01*
X0122805Y0152516D01*
X0122935Y0152571D01*
X0123066Y0152623D01*
X0123199Y0152670D01*
X0123333Y0152714D01*
X0123468Y0152755D01*
X0123604Y0152791D01*
X0123741Y0152823D01*
X0123879Y0152852D01*
X0124017Y0152877D01*
X0124157Y0152897D01*
X0124297Y0152914D01*
X0124437Y0152927D01*
X0124578Y0152936D01*
X0124718Y0152941D01*
X0124859Y0152942D01*
X0125000Y0152939D01*
X0125141Y0152932D01*
X0125281Y0152921D01*
X0125421Y0152906D01*
X0125561Y0152887D01*
X0125700Y0152865D01*
X0125838Y0152838D01*
X0125976Y0152808D01*
X0126112Y0152773D01*
X0126248Y0152735D01*
X0126382Y0152693D01*
X0126516Y0152647D01*
X0126648Y0152598D01*
X0126778Y0152544D01*
X0126907Y0152487D01*
X0127034Y0152427D01*
X0127160Y0152363D01*
X0127283Y0152295D01*
X0127405Y0152224D01*
X0127525Y0152150D01*
X0127642Y0152072D01*
X0127757Y0151991D01*
X0127870Y0151907D01*
X0127981Y0151820D01*
X0128089Y0151729D01*
X0128194Y0151636D01*
X0128297Y0151539D01*
X0128397Y0151440D01*
X0128494Y0151338D01*
X0128588Y0151233D01*
X0128679Y0151126D01*
X0128767Y0151016D01*
X0128852Y0150904D01*
X0128934Y0150789D01*
X0129013Y0150672D01*
X0129088Y0150553D01*
X0129160Y0150432D01*
X0129228Y0150309D01*
X0129293Y0150184D01*
X0129355Y0150057D01*
X0129412Y0149928D01*
X0129467Y0149798D01*
X0129517Y0149667D01*
X0129564Y0149534D01*
X0129607Y0149400D01*
X0129646Y0149264D01*
X0129681Y0149128D01*
X0129713Y0148991D01*
X0129740Y0148853D01*
X0129764Y0148714D01*
X0129784Y0148574D01*
X0129800Y0148434D01*
X0129812Y0148294D01*
X0129820Y0148153D01*
X0129824Y0148012D01*
X0129824Y0147872D01*
X0129820Y0147731D01*
X0129812Y0147590D01*
X0129800Y0147450D01*
X0129784Y0147310D01*
X0129764Y0147170D01*
X0129740Y0147031D01*
X0129713Y0146893D01*
X0129681Y0146756D01*
X0129646Y0146620D01*
X0129607Y0146484D01*
X0129564Y0146350D01*
X0129517Y0146217D01*
X0129467Y0146086D01*
X0129412Y0145956D01*
X0129355Y0145827D01*
X0129293Y0145700D01*
X0129228Y0145575D01*
X0129160Y0145452D01*
X0129088Y0145331D01*
X0129013Y0145212D01*
X0128934Y0145095D01*
X0128852Y0144980D01*
X0128767Y0144868D01*
X0128679Y0144758D01*
X0128588Y0144651D01*
X0128494Y0144546D01*
X0128397Y0144444D01*
X0128297Y0144345D01*
X0128194Y0144248D01*
X0128089Y0144155D01*
X0127981Y0144064D01*
X0127870Y0143977D01*
X0127757Y0143893D01*
X0127642Y0143812D01*
X0127525Y0143734D01*
X0127405Y0143660D01*
X0127283Y0143589D01*
X0127160Y0143521D01*
X0127034Y0143457D01*
X0126907Y0143397D01*
X0126778Y0143340D01*
X0126648Y0143286D01*
X0126516Y0143237D01*
X0126382Y0143191D01*
X0126248Y0143149D01*
X0126112Y0143111D01*
X0125976Y0143076D01*
X0125838Y0143046D01*
X0125700Y0143019D01*
X0125561Y0142997D01*
X0125421Y0142978D01*
X0125281Y0142963D01*
X0125141Y0142952D01*
X0125000Y0142945D01*
X0124859Y0142942D01*
X0124718Y0142943D01*
X0124578Y0142948D01*
X0124437Y0142957D01*
X0124297Y0142970D01*
X0124157Y0142987D01*
X0124017Y0143007D01*
X0123879Y0143032D01*
X0123741Y0143061D01*
X0123604Y0143093D01*
X0123468Y0143129D01*
X0123333Y0143170D01*
X0123199Y0143214D01*
X0123066Y0143261D01*
X0122935Y0143313D01*
X0122805Y0143368D01*
X0122677Y0143426D01*
X0122551Y0143489D01*
X0122426Y0143554D01*
X0122304Y0143624D01*
X0122183Y0143696D01*
X0122064Y0143772D01*
X0121948Y0143852D01*
X0121834Y0143935D01*
X0121722Y0144020D01*
X0121613Y0144109D01*
X0121506Y0144201D01*
X0121402Y0144296D01*
X0121301Y0144394D01*
X0121202Y0144495D01*
X0121107Y0144598D01*
X0121014Y0144704D01*
X0120924Y0144813D01*
X0120838Y0144924D01*
X0120754Y0145037D01*
X0120674Y0145153D01*
X0120597Y0145271D01*
X0120524Y0145391D01*
X0120453Y0145514D01*
X0120387Y0145638D01*
X0120324Y0145764D01*
X0120264Y0145891D01*
X0120208Y0146020D01*
X0120156Y0146151D01*
X0120107Y0146283D01*
X0120062Y0146417D01*
X0120021Y0146552D01*
X0119984Y0146688D01*
X0119950Y0146824D01*
X0119921Y0146962D01*
X0119895Y0147101D01*
X0119874Y0147240D01*
X0119856Y0147380D01*
X0119842Y0147520D01*
X0119832Y0147660D01*
X0119826Y0147801D01*
X0119824Y0147942D01*
X0015824Y0151942D02*
X0015826Y0152083D01*
X0015832Y0152224D01*
X0015842Y0152364D01*
X0015856Y0152504D01*
X0015874Y0152644D01*
X0015895Y0152783D01*
X0015921Y0152922D01*
X0015950Y0153060D01*
X0015984Y0153196D01*
X0016021Y0153332D01*
X0016062Y0153467D01*
X0016107Y0153601D01*
X0016156Y0153733D01*
X0016208Y0153864D01*
X0016264Y0153993D01*
X0016324Y0154120D01*
X0016387Y0154246D01*
X0016453Y0154370D01*
X0016524Y0154493D01*
X0016597Y0154613D01*
X0016674Y0154731D01*
X0016754Y0154847D01*
X0016838Y0154960D01*
X0016924Y0155071D01*
X0017014Y0155180D01*
X0017107Y0155286D01*
X0017202Y0155389D01*
X0017301Y0155490D01*
X0017402Y0155588D01*
X0017506Y0155683D01*
X0017613Y0155775D01*
X0017722Y0155864D01*
X0017834Y0155949D01*
X0017948Y0156032D01*
X0018064Y0156112D01*
X0018183Y0156188D01*
X0018304Y0156260D01*
X0018426Y0156330D01*
X0018551Y0156395D01*
X0018677Y0156458D01*
X0018805Y0156516D01*
X0018935Y0156571D01*
X0019066Y0156623D01*
X0019199Y0156670D01*
X0019333Y0156714D01*
X0019468Y0156755D01*
X0019604Y0156791D01*
X0019741Y0156823D01*
X0019879Y0156852D01*
X0020017Y0156877D01*
X0020157Y0156897D01*
X0020297Y0156914D01*
X0020437Y0156927D01*
X0020578Y0156936D01*
X0020718Y0156941D01*
X0020859Y0156942D01*
X0021000Y0156939D01*
X0021141Y0156932D01*
X0021281Y0156921D01*
X0021421Y0156906D01*
X0021561Y0156887D01*
X0021700Y0156865D01*
X0021838Y0156838D01*
X0021976Y0156808D01*
X0022112Y0156773D01*
X0022248Y0156735D01*
X0022382Y0156693D01*
X0022516Y0156647D01*
X0022648Y0156598D01*
X0022778Y0156544D01*
X0022907Y0156487D01*
X0023034Y0156427D01*
X0023160Y0156363D01*
X0023283Y0156295D01*
X0023405Y0156224D01*
X0023525Y0156150D01*
X0023642Y0156072D01*
X0023757Y0155991D01*
X0023870Y0155907D01*
X0023981Y0155820D01*
X0024089Y0155729D01*
X0024194Y0155636D01*
X0024297Y0155539D01*
X0024397Y0155440D01*
X0024494Y0155338D01*
X0024588Y0155233D01*
X0024679Y0155126D01*
X0024767Y0155016D01*
X0024852Y0154904D01*
X0024934Y0154789D01*
X0025013Y0154672D01*
X0025088Y0154553D01*
X0025160Y0154432D01*
X0025228Y0154309D01*
X0025293Y0154184D01*
X0025355Y0154057D01*
X0025412Y0153928D01*
X0025467Y0153798D01*
X0025517Y0153667D01*
X0025564Y0153534D01*
X0025607Y0153400D01*
X0025646Y0153264D01*
X0025681Y0153128D01*
X0025713Y0152991D01*
X0025740Y0152853D01*
X0025764Y0152714D01*
X0025784Y0152574D01*
X0025800Y0152434D01*
X0025812Y0152294D01*
X0025820Y0152153D01*
X0025824Y0152012D01*
X0025824Y0151872D01*
X0025820Y0151731D01*
X0025812Y0151590D01*
X0025800Y0151450D01*
X0025784Y0151310D01*
X0025764Y0151170D01*
X0025740Y0151031D01*
X0025713Y0150893D01*
X0025681Y0150756D01*
X0025646Y0150620D01*
X0025607Y0150484D01*
X0025564Y0150350D01*
X0025517Y0150217D01*
X0025467Y0150086D01*
X0025412Y0149956D01*
X0025355Y0149827D01*
X0025293Y0149700D01*
X0025228Y0149575D01*
X0025160Y0149452D01*
X0025088Y0149331D01*
X0025013Y0149212D01*
X0024934Y0149095D01*
X0024852Y0148980D01*
X0024767Y0148868D01*
X0024679Y0148758D01*
X0024588Y0148651D01*
X0024494Y0148546D01*
X0024397Y0148444D01*
X0024297Y0148345D01*
X0024194Y0148248D01*
X0024089Y0148155D01*
X0023981Y0148064D01*
X0023870Y0147977D01*
X0023757Y0147893D01*
X0023642Y0147812D01*
X0023525Y0147734D01*
X0023405Y0147660D01*
X0023283Y0147589D01*
X0023160Y0147521D01*
X0023034Y0147457D01*
X0022907Y0147397D01*
X0022778Y0147340D01*
X0022648Y0147286D01*
X0022516Y0147237D01*
X0022382Y0147191D01*
X0022248Y0147149D01*
X0022112Y0147111D01*
X0021976Y0147076D01*
X0021838Y0147046D01*
X0021700Y0147019D01*
X0021561Y0146997D01*
X0021421Y0146978D01*
X0021281Y0146963D01*
X0021141Y0146952D01*
X0021000Y0146945D01*
X0020859Y0146942D01*
X0020718Y0146943D01*
X0020578Y0146948D01*
X0020437Y0146957D01*
X0020297Y0146970D01*
X0020157Y0146987D01*
X0020017Y0147007D01*
X0019879Y0147032D01*
X0019741Y0147061D01*
X0019604Y0147093D01*
X0019468Y0147129D01*
X0019333Y0147170D01*
X0019199Y0147214D01*
X0019066Y0147261D01*
X0018935Y0147313D01*
X0018805Y0147368D01*
X0018677Y0147426D01*
X0018551Y0147489D01*
X0018426Y0147554D01*
X0018304Y0147624D01*
X0018183Y0147696D01*
X0018064Y0147772D01*
X0017948Y0147852D01*
X0017834Y0147935D01*
X0017722Y0148020D01*
X0017613Y0148109D01*
X0017506Y0148201D01*
X0017402Y0148296D01*
X0017301Y0148394D01*
X0017202Y0148495D01*
X0017107Y0148598D01*
X0017014Y0148704D01*
X0016924Y0148813D01*
X0016838Y0148924D01*
X0016754Y0149037D01*
X0016674Y0149153D01*
X0016597Y0149271D01*
X0016524Y0149391D01*
X0016453Y0149514D01*
X0016387Y0149638D01*
X0016324Y0149764D01*
X0016264Y0149891D01*
X0016208Y0150020D01*
X0016156Y0150151D01*
X0016107Y0150283D01*
X0016062Y0150417D01*
X0016021Y0150552D01*
X0015984Y0150688D01*
X0015950Y0150824D01*
X0015921Y0150962D01*
X0015895Y0151101D01*
X0015874Y0151240D01*
X0015856Y0151380D01*
X0015842Y0151520D01*
X0015832Y0151660D01*
X0015826Y0151801D01*
X0015824Y0151942D01*
X0009824Y0173942D02*
X0009826Y0174083D01*
X0009832Y0174224D01*
X0009842Y0174364D01*
X0009856Y0174504D01*
X0009874Y0174644D01*
X0009895Y0174783D01*
X0009921Y0174922D01*
X0009950Y0175060D01*
X0009984Y0175196D01*
X0010021Y0175332D01*
X0010062Y0175467D01*
X0010107Y0175601D01*
X0010156Y0175733D01*
X0010208Y0175864D01*
X0010264Y0175993D01*
X0010324Y0176120D01*
X0010387Y0176246D01*
X0010453Y0176370D01*
X0010524Y0176493D01*
X0010597Y0176613D01*
X0010674Y0176731D01*
X0010754Y0176847D01*
X0010838Y0176960D01*
X0010924Y0177071D01*
X0011014Y0177180D01*
X0011107Y0177286D01*
X0011202Y0177389D01*
X0011301Y0177490D01*
X0011402Y0177588D01*
X0011506Y0177683D01*
X0011613Y0177775D01*
X0011722Y0177864D01*
X0011834Y0177949D01*
X0011948Y0178032D01*
X0012064Y0178112D01*
X0012183Y0178188D01*
X0012304Y0178260D01*
X0012426Y0178330D01*
X0012551Y0178395D01*
X0012677Y0178458D01*
X0012805Y0178516D01*
X0012935Y0178571D01*
X0013066Y0178623D01*
X0013199Y0178670D01*
X0013333Y0178714D01*
X0013468Y0178755D01*
X0013604Y0178791D01*
X0013741Y0178823D01*
X0013879Y0178852D01*
X0014017Y0178877D01*
X0014157Y0178897D01*
X0014297Y0178914D01*
X0014437Y0178927D01*
X0014578Y0178936D01*
X0014718Y0178941D01*
X0014859Y0178942D01*
X0015000Y0178939D01*
X0015141Y0178932D01*
X0015281Y0178921D01*
X0015421Y0178906D01*
X0015561Y0178887D01*
X0015700Y0178865D01*
X0015838Y0178838D01*
X0015976Y0178808D01*
X0016112Y0178773D01*
X0016248Y0178735D01*
X0016382Y0178693D01*
X0016516Y0178647D01*
X0016648Y0178598D01*
X0016778Y0178544D01*
X0016907Y0178487D01*
X0017034Y0178427D01*
X0017160Y0178363D01*
X0017283Y0178295D01*
X0017405Y0178224D01*
X0017525Y0178150D01*
X0017642Y0178072D01*
X0017757Y0177991D01*
X0017870Y0177907D01*
X0017981Y0177820D01*
X0018089Y0177729D01*
X0018194Y0177636D01*
X0018297Y0177539D01*
X0018397Y0177440D01*
X0018494Y0177338D01*
X0018588Y0177233D01*
X0018679Y0177126D01*
X0018767Y0177016D01*
X0018852Y0176904D01*
X0018934Y0176789D01*
X0019013Y0176672D01*
X0019088Y0176553D01*
X0019160Y0176432D01*
X0019228Y0176309D01*
X0019293Y0176184D01*
X0019355Y0176057D01*
X0019412Y0175928D01*
X0019467Y0175798D01*
X0019517Y0175667D01*
X0019564Y0175534D01*
X0019607Y0175400D01*
X0019646Y0175264D01*
X0019681Y0175128D01*
X0019713Y0174991D01*
X0019740Y0174853D01*
X0019764Y0174714D01*
X0019784Y0174574D01*
X0019800Y0174434D01*
X0019812Y0174294D01*
X0019820Y0174153D01*
X0019824Y0174012D01*
X0019824Y0173872D01*
X0019820Y0173731D01*
X0019812Y0173590D01*
X0019800Y0173450D01*
X0019784Y0173310D01*
X0019764Y0173170D01*
X0019740Y0173031D01*
X0019713Y0172893D01*
X0019681Y0172756D01*
X0019646Y0172620D01*
X0019607Y0172484D01*
X0019564Y0172350D01*
X0019517Y0172217D01*
X0019467Y0172086D01*
X0019412Y0171956D01*
X0019355Y0171827D01*
X0019293Y0171700D01*
X0019228Y0171575D01*
X0019160Y0171452D01*
X0019088Y0171331D01*
X0019013Y0171212D01*
X0018934Y0171095D01*
X0018852Y0170980D01*
X0018767Y0170868D01*
X0018679Y0170758D01*
X0018588Y0170651D01*
X0018494Y0170546D01*
X0018397Y0170444D01*
X0018297Y0170345D01*
X0018194Y0170248D01*
X0018089Y0170155D01*
X0017981Y0170064D01*
X0017870Y0169977D01*
X0017757Y0169893D01*
X0017642Y0169812D01*
X0017525Y0169734D01*
X0017405Y0169660D01*
X0017283Y0169589D01*
X0017160Y0169521D01*
X0017034Y0169457D01*
X0016907Y0169397D01*
X0016778Y0169340D01*
X0016648Y0169286D01*
X0016516Y0169237D01*
X0016382Y0169191D01*
X0016248Y0169149D01*
X0016112Y0169111D01*
X0015976Y0169076D01*
X0015838Y0169046D01*
X0015700Y0169019D01*
X0015561Y0168997D01*
X0015421Y0168978D01*
X0015281Y0168963D01*
X0015141Y0168952D01*
X0015000Y0168945D01*
X0014859Y0168942D01*
X0014718Y0168943D01*
X0014578Y0168948D01*
X0014437Y0168957D01*
X0014297Y0168970D01*
X0014157Y0168987D01*
X0014017Y0169007D01*
X0013879Y0169032D01*
X0013741Y0169061D01*
X0013604Y0169093D01*
X0013468Y0169129D01*
X0013333Y0169170D01*
X0013199Y0169214D01*
X0013066Y0169261D01*
X0012935Y0169313D01*
X0012805Y0169368D01*
X0012677Y0169426D01*
X0012551Y0169489D01*
X0012426Y0169554D01*
X0012304Y0169624D01*
X0012183Y0169696D01*
X0012064Y0169772D01*
X0011948Y0169852D01*
X0011834Y0169935D01*
X0011722Y0170020D01*
X0011613Y0170109D01*
X0011506Y0170201D01*
X0011402Y0170296D01*
X0011301Y0170394D01*
X0011202Y0170495D01*
X0011107Y0170598D01*
X0011014Y0170704D01*
X0010924Y0170813D01*
X0010838Y0170924D01*
X0010754Y0171037D01*
X0010674Y0171153D01*
X0010597Y0171271D01*
X0010524Y0171391D01*
X0010453Y0171514D01*
X0010387Y0171638D01*
X0010324Y0171764D01*
X0010264Y0171891D01*
X0010208Y0172020D01*
X0010156Y0172151D01*
X0010107Y0172283D01*
X0010062Y0172417D01*
X0010021Y0172552D01*
X0009984Y0172688D01*
X0009950Y0172824D01*
X0009921Y0172962D01*
X0009895Y0173101D01*
X0009874Y0173240D01*
X0009856Y0173380D01*
X0009842Y0173520D01*
X0009832Y0173660D01*
X0009826Y0173801D01*
X0009824Y0173942D01*
D11*
X0094454Y0181379D03*
D12*
X0102328Y0181379D03*
X0110202Y0181379D03*
X0118076Y0181379D03*
X0125950Y0181379D03*
X0133824Y0181379D03*
X0141698Y0181379D03*
X0149572Y0181379D03*
X0157446Y0181379D03*
X0165320Y0181379D03*
X0173194Y0181379D03*
D13*
X0173194Y0138722D01*
X0181989Y0129927D01*
X0221359Y0129927D01*
X0237107Y0145675D01*
X0292225Y0145675D01*
X0292824Y0145076D01*
X0292824Y0141942D01*
X0289824Y0141942D02*
X0295824Y0141942D01*
X0295824Y0120942D01*
X0298824Y0117942D02*
X0292824Y0117942D01*
X0292824Y0105911D01*
X0292824Y0117942D02*
X0286824Y0117942D01*
X0280824Y0123942D01*
X0280824Y0132942D01*
X0280824Y0135942D02*
X0283824Y0138942D01*
X0283824Y0125442D01*
X0289824Y0120942D02*
X0289824Y0141942D01*
X0286824Y0141942D01*
X0283824Y0138942D01*
X0286824Y0137442D02*
X0286824Y0117942D01*
X0292824Y0117942D02*
X0292824Y0138942D01*
X0295824Y0141942D02*
X0298824Y0141942D01*
X0301824Y0138942D01*
X0304824Y0135942D01*
X0304824Y0132942D02*
X0304824Y0123942D01*
X0298824Y0117942D01*
X0298824Y0137442D01*
X0301824Y0138942D02*
X0301824Y0125442D01*
X0247824Y0108942D02*
X0244824Y0111942D01*
X0244824Y0098442D01*
X0247824Y0096942D02*
X0247824Y0105942D01*
X0244824Y0111942D02*
X0241824Y0114942D01*
X0238824Y0114942D01*
X0238824Y0093942D01*
X0241824Y0090942D02*
X0235824Y0090942D01*
X0235824Y0078942D01*
X0235824Y0090942D02*
X0229824Y0090942D01*
X0223824Y0096942D01*
X0223824Y0105942D01*
X0223824Y0108942D02*
X0226824Y0111942D01*
X0226824Y0098442D01*
X0232824Y0093942D02*
X0232824Y0114942D01*
X0238824Y0114942D01*
X0235824Y0114942D02*
X0235824Y0121368D01*
X0233170Y0124021D01*
X0176083Y0124021D01*
X0165320Y0134785D01*
X0165320Y0181379D01*
X0157446Y0181379D02*
X0157446Y0186092D01*
X0160335Y0188982D01*
X0205611Y0188982D01*
X0211009Y0183584D01*
X0211009Y0172840D01*
X0208009Y0172840D02*
X0214009Y0172840D01*
X0214009Y0151840D01*
X0217009Y0148840D02*
X0211009Y0148840D01*
X0211009Y0137801D01*
X0211009Y0148840D02*
X0205009Y0148840D01*
X0199009Y0154840D01*
X0199009Y0163840D01*
X0199009Y0166840D02*
X0202009Y0169840D01*
X0202009Y0156340D01*
X0208009Y0151840D02*
X0208009Y0172840D01*
X0205009Y0172840D01*
X0202009Y0169840D01*
X0205009Y0168340D02*
X0205009Y0148840D01*
X0211009Y0148840D02*
X0211009Y0169840D01*
X0214009Y0172840D02*
X0217009Y0172840D01*
X0220009Y0169840D01*
X0223009Y0166840D01*
X0220009Y0169840D02*
X0220009Y0156340D01*
X0223009Y0154840D02*
X0223009Y0163840D01*
X0217009Y0168340D02*
X0217009Y0148840D01*
X0223009Y0154840D01*
X0256009Y0181840D02*
X0262009Y0175840D01*
X0262009Y0195340D01*
X0259009Y0196840D02*
X0256009Y0193840D01*
X0256009Y0190840D02*
X0256009Y0181840D01*
X0259009Y0183340D02*
X0259009Y0196840D01*
X0262009Y0199840D01*
X0265009Y0199840D01*
X0265009Y0178840D01*
X0268009Y0175840D02*
X0262009Y0175840D01*
X0268009Y0175840D02*
X0268009Y0163391D01*
X0268009Y0175840D02*
X0268009Y0196840D01*
X0274009Y0195340D02*
X0274009Y0175840D01*
X0280009Y0181840D01*
X0280009Y0190840D01*
X0280009Y0193840D02*
X0277009Y0196840D01*
X0277009Y0183340D01*
X0271009Y0178840D02*
X0271009Y0199840D01*
X0274009Y0199840D01*
X0277009Y0196840D01*
X0271009Y0199840D02*
X0265009Y0199840D01*
X0268009Y0199840D02*
X0268009Y0203356D01*
X0266635Y0204730D01*
X0244981Y0204730D01*
X0233170Y0194887D01*
X0156398Y0194887D01*
X0149572Y0188060D01*
X0149572Y0181379D01*
X0141698Y0181379D02*
X0141698Y0170218D01*
X0150493Y0161423D01*
X0150493Y0083273D01*
X0181387Y0052379D01*
X0181387Y0032716D01*
X0178352Y0033673D02*
X0176967Y0036334D01*
X0174944Y0036972D01*
X0160308Y0029353D01*
X0159670Y0027330D01*
X0161055Y0024669D01*
X0163133Y0020677D02*
X0171226Y0018126D01*
X0177295Y0016212D02*
X0178680Y0013551D01*
X0180704Y0012913D01*
X0195339Y0020532D01*
X0195977Y0022555D01*
X0194592Y0025216D01*
X0199331Y0022610D02*
X0203322Y0024688D01*
X0203960Y0026711D01*
X0198419Y0037355D01*
X0196396Y0037993D01*
X0193735Y0036607D01*
X0190700Y0037564D02*
X0202324Y0043942D01*
X0189744Y0034530D02*
X0187192Y0026437D01*
X0183200Y0024359D02*
X0179154Y0025635D01*
X0176493Y0024250D01*
X0172447Y0025526D01*
X0167982Y0011364D02*
X0174051Y0009450D01*
X0176712Y0010835D01*
X0180758Y0009559D01*
X0198055Y0018563D01*
X0199331Y0022610D01*
X0143960Y0026711D02*
X0138419Y0037355D01*
X0136396Y0037993D01*
X0133735Y0036607D01*
X0130700Y0037564D02*
X0142324Y0043942D01*
X0129744Y0034530D02*
X0127192Y0026437D01*
X0123200Y0024359D02*
X0119154Y0025635D01*
X0116493Y0024250D01*
X0112447Y0025526D01*
X0111226Y0018126D02*
X0103133Y0020677D01*
X0101055Y0024669D02*
X0099670Y0027330D01*
X0100308Y0029353D01*
X0114944Y0036972D01*
X0116967Y0036334D01*
X0118352Y0033673D01*
X0121387Y0032716D02*
X0121387Y0042505D01*
X0136713Y0057832D01*
X0136713Y0171265D01*
X0133824Y0174155D01*
X0133824Y0181379D01*
X0125950Y0181379D02*
X0125950Y0164438D01*
X0115060Y0153549D01*
X0115060Y0110942D01*
X0110824Y0110942D01*
X0110824Y0113942D02*
X0110824Y0107942D01*
X0089824Y0107942D01*
X0086824Y0104942D02*
X0092824Y0098942D01*
X0101824Y0098942D01*
X0104824Y0098942D02*
X0107824Y0101942D01*
X0094324Y0101942D01*
X0086824Y0104942D02*
X0106324Y0104942D01*
X0107824Y0101942D02*
X0110824Y0104942D01*
X0110824Y0107942D01*
X0107824Y0110942D02*
X0086824Y0110942D01*
X0074824Y0110942D01*
X0062824Y0105249D02*
X0062824Y0086942D01*
X0059824Y0086942D02*
X0065824Y0086942D01*
X0065824Y0065942D01*
X0068824Y0062942D02*
X0062824Y0062942D01*
X0062824Y0055919D01*
X0062824Y0062942D02*
X0056824Y0062942D01*
X0050824Y0068942D01*
X0050824Y0077942D01*
X0050824Y0080942D02*
X0053824Y0083942D01*
X0053824Y0070442D01*
X0059824Y0065942D02*
X0059824Y0086942D01*
X0056824Y0086942D01*
X0053824Y0083942D01*
X0056824Y0082442D02*
X0056824Y0062942D01*
X0062824Y0062942D02*
X0062824Y0083942D01*
X0065824Y0086942D02*
X0068824Y0086942D01*
X0071824Y0083942D01*
X0074824Y0080942D01*
X0074824Y0077942D02*
X0074824Y0068942D01*
X0068824Y0062942D01*
X0068824Y0082442D01*
X0071824Y0083942D02*
X0071824Y0070442D01*
X0035824Y0101942D02*
X0032824Y0098942D01*
X0029824Y0098942D02*
X0020824Y0098942D01*
X0014824Y0104942D01*
X0034324Y0104942D01*
X0035824Y0101942D02*
X0022324Y0101942D01*
X0017824Y0107942D02*
X0038824Y0107942D01*
X0038824Y0104942D01*
X0035824Y0101942D01*
X0038824Y0107942D02*
X0038824Y0113942D01*
X0017824Y0113942D01*
X0014824Y0110942D02*
X0007580Y0110942D01*
X0014824Y0110942D02*
X0035824Y0110942D01*
X0038824Y0110942D02*
X0056706Y0110942D01*
X0102328Y0156564D01*
X0102328Y0181379D01*
X0110202Y0181379D02*
X0110202Y0185966D01*
X0107186Y0188982D01*
X0079627Y0188982D01*
X0063824Y0173179D01*
X0063824Y0158942D01*
X0060824Y0158942D02*
X0066824Y0158942D01*
X0066824Y0137942D01*
X0069824Y0134942D02*
X0063824Y0134942D01*
X0063824Y0124942D01*
X0063824Y0134942D02*
X0057824Y0134942D01*
X0051824Y0140942D01*
X0051824Y0149942D01*
X0051824Y0152942D02*
X0054824Y0155942D01*
X0054824Y0142442D01*
X0060824Y0137942D02*
X0060824Y0158942D01*
X0057824Y0158942D01*
X0054824Y0155942D01*
X0057824Y0154442D02*
X0057824Y0134942D01*
X0063824Y0134942D02*
X0063824Y0155942D01*
X0066824Y0158942D02*
X0069824Y0158942D01*
X0072824Y0155942D01*
X0075824Y0152942D01*
X0075824Y0149942D02*
X0075824Y0140942D01*
X0069824Y0134942D01*
X0069824Y0154442D01*
X0072824Y0155942D02*
X0072824Y0142442D01*
X0092824Y0122942D02*
X0101824Y0122942D01*
X0104824Y0122942D02*
X0107824Y0119942D01*
X0094324Y0119942D01*
X0092824Y0122942D02*
X0086824Y0116942D01*
X0106324Y0116942D01*
X0107824Y0119942D02*
X0110824Y0116942D01*
X0110824Y0113942D01*
X0089824Y0113942D01*
X0086824Y0110942D02*
X0086824Y0116942D01*
X0086824Y0110942D02*
X0086824Y0104942D01*
X0062824Y0105249D02*
X0107186Y0149612D01*
X0107186Y0157486D01*
X0118076Y0168375D01*
X0118076Y0181379D01*
X0035824Y0119942D02*
X0032824Y0122942D01*
X0029824Y0122942D02*
X0020824Y0122942D01*
X0014824Y0116942D01*
X0034324Y0116942D01*
X0035824Y0119942D02*
X0022324Y0119942D01*
X0014824Y0116942D02*
X0014824Y0110942D01*
X0014824Y0104942D01*
X0038824Y0113942D02*
X0038824Y0116942D01*
X0035824Y0119942D01*
X0143960Y0026711D02*
X0143322Y0024688D01*
X0139331Y0022610D01*
X0138055Y0018563D01*
X0120758Y0009559D01*
X0116712Y0010835D01*
X0114051Y0009450D01*
X0107982Y0011364D01*
X0117295Y0016212D02*
X0118680Y0013551D01*
X0120704Y0012913D01*
X0135339Y0020532D01*
X0135977Y0022555D01*
X0134592Y0025216D01*
X0229824Y0090942D02*
X0229824Y0110442D01*
X0226824Y0111942D02*
X0229824Y0114942D01*
X0232824Y0114942D01*
X0235824Y0111942D02*
X0235824Y0090942D01*
X0229824Y0090942D01*
X0241824Y0090942D02*
X0247824Y0096942D01*
X0241824Y0090942D02*
X0241824Y0110442D01*
X0268009Y0175840D02*
X0274009Y0175840D01*
D14*
X0110824Y0110942D03*
X0086824Y0110942D03*
X0038824Y0110942D03*
X0014824Y0110942D03*
D15*
G36*
X0126444Y0031122D02*
X0119793Y0027659D01*
X0116330Y0034310D01*
X0122981Y0037773D01*
X0126444Y0031122D01*
G37*
G36*
X0126444Y0031122D02*
X0119793Y0027659D01*
X0116330Y0034310D01*
X0122981Y0037773D01*
X0126444Y0031122D01*
G37*
G36*
X0135757Y0035970D02*
X0129106Y0032507D01*
X0125643Y0039158D01*
X0132294Y0042621D01*
X0135757Y0035970D01*
G37*
G36*
X0135757Y0035970D02*
X0129106Y0032507D01*
X0125643Y0039158D01*
X0132294Y0042621D01*
X0135757Y0035970D01*
G37*
G36*
X0140606Y0026657D02*
X0133955Y0023194D01*
X0130492Y0029845D01*
X0137143Y0033308D01*
X0140606Y0026657D01*
G37*
G36*
X0131292Y0021808D02*
X0124641Y0018345D01*
X0121178Y0024996D01*
X0127829Y0028459D01*
X0131292Y0021808D01*
G37*
G36*
X0119317Y0015575D02*
X0112666Y0012112D01*
X0109203Y0018763D01*
X0115854Y0022226D01*
X0119317Y0015575D01*
G37*
G36*
X0110004Y0010726D02*
X0103353Y0007263D01*
X0099890Y0013914D01*
X0106541Y0017377D01*
X0110004Y0010726D01*
G37*
G36*
X0105155Y0020040D02*
X0098504Y0016577D01*
X0095041Y0023228D01*
X0101692Y0026691D01*
X0105155Y0020040D01*
G37*
G36*
X0114469Y0024888D02*
X0107818Y0021425D01*
X0104355Y0028076D01*
X0111006Y0031539D01*
X0114469Y0024888D01*
G37*
G36*
X0165155Y0020040D02*
X0158504Y0016577D01*
X0155041Y0023228D01*
X0161692Y0026691D01*
X0165155Y0020040D01*
G37*
G36*
X0174469Y0024888D02*
X0167818Y0021425D01*
X0164355Y0028076D01*
X0171006Y0031539D01*
X0174469Y0024888D01*
G37*
G36*
X0179317Y0015575D02*
X0172666Y0012112D01*
X0169203Y0018763D01*
X0175854Y0022226D01*
X0179317Y0015575D01*
G37*
G36*
X0191292Y0021808D02*
X0184641Y0018345D01*
X0181178Y0024996D01*
X0187829Y0028459D01*
X0191292Y0021808D01*
G37*
G36*
X0200606Y0026657D02*
X0193955Y0023194D01*
X0190492Y0029845D01*
X0197143Y0033308D01*
X0200606Y0026657D01*
G37*
G36*
X0195757Y0035970D02*
X0189106Y0032507D01*
X0185643Y0039158D01*
X0192294Y0042621D01*
X0195757Y0035970D01*
G37*
G36*
X0195757Y0035970D02*
X0189106Y0032507D01*
X0185643Y0039158D01*
X0192294Y0042621D01*
X0195757Y0035970D01*
G37*
G36*
X0186444Y0031122D02*
X0179793Y0027659D01*
X0176330Y0034310D01*
X0182981Y0037773D01*
X0186444Y0031122D01*
G37*
G36*
X0186444Y0031122D02*
X0179793Y0027659D01*
X0176330Y0034310D01*
X0182981Y0037773D01*
X0186444Y0031122D01*
G37*
G36*
X0170004Y0010726D02*
X0163353Y0007263D01*
X0159890Y0013914D01*
X0166541Y0017377D01*
X0170004Y0010726D01*
G37*
D16*
X0062824Y0062942D03*
X0062824Y0086942D03*
X0063824Y0134942D03*
X0063824Y0158942D03*
X0211009Y0148840D03*
X0211009Y0172840D03*
X0268009Y0175840D03*
X0268009Y0199840D03*
X0292824Y0141942D03*
X0292824Y0117942D03*
X0235824Y0114942D03*
X0235824Y0090942D03*
D17*
X0244597Y0086819D02*
X0309659Y0086819D01*
X0309802Y0086961D02*
X0307805Y0084964D01*
X0306724Y0082355D01*
X0306724Y0079530D01*
X0307805Y0076921D01*
X0309802Y0074923D01*
X0312411Y0073842D01*
X0315236Y0073842D01*
X0317845Y0074923D01*
X0319843Y0076921D01*
X0320924Y0079530D01*
X0320924Y0082355D01*
X0319843Y0084964D01*
X0317845Y0086961D01*
X0315236Y0088042D01*
X0312411Y0088042D01*
X0309802Y0086961D01*
X0308661Y0085820D02*
X0242822Y0085820D01*
X0242906Y0085843D02*
X0247091Y0088259D01*
X0250507Y0091675D01*
X0252923Y0095860D01*
X0254174Y0100527D01*
X0254174Y0105358D01*
X0252923Y0110025D01*
X0250507Y0114210D01*
X0247091Y0117626D01*
X0242906Y0120042D01*
X0238724Y0121163D01*
X0238724Y0121944D01*
X0238282Y0123010D01*
X0235629Y0125664D01*
X0234813Y0126480D01*
X0233747Y0126921D01*
X0177285Y0126921D01*
X0168220Y0135986D01*
X0168220Y0177350D01*
X0169257Y0178387D01*
X0170294Y0177350D01*
X0170294Y0138145D01*
X0170735Y0137079D01*
X0179530Y0128284D01*
X0180346Y0127468D01*
X0181412Y0127027D01*
X0221936Y0127027D01*
X0223002Y0127468D01*
X0223818Y0128284D01*
X0238308Y0142775D01*
X0279705Y0142775D01*
X0278140Y0141210D01*
X0275724Y0137025D01*
X0274474Y0132358D01*
X0274474Y0127527D01*
X0275724Y0122860D01*
X0278140Y0118675D01*
X0281556Y0115259D01*
X0285741Y0112843D01*
X0290408Y0111592D01*
X0295239Y0111592D01*
X0299906Y0112843D01*
X0304091Y0115259D01*
X0307507Y0118675D01*
X0309923Y0122860D01*
X0311174Y0127527D01*
X0311174Y0132358D01*
X0309923Y0137025D01*
X0307507Y0141210D01*
X0304091Y0144626D01*
X0299906Y0147042D01*
X0295239Y0148292D01*
X0293484Y0148292D01*
X0292802Y0148575D01*
X0236530Y0148575D01*
X0235464Y0148133D01*
X0220158Y0132827D01*
X0183190Y0132827D01*
X0176094Y0139923D01*
X0176094Y0177350D01*
X0177348Y0178604D01*
X0178094Y0180405D01*
X0178094Y0182354D01*
X0177348Y0184155D01*
X0175969Y0185533D01*
X0174645Y0186082D01*
X0204410Y0186082D01*
X0208109Y0182383D01*
X0208109Y0179060D01*
X0203926Y0177939D01*
X0199741Y0175524D01*
X0196325Y0172107D01*
X0193909Y0167923D01*
X0192659Y0163256D01*
X0192659Y0158424D01*
X0193909Y0153757D01*
X0196325Y0149573D01*
X0199741Y0146156D01*
X0203926Y0143741D01*
X0208593Y0142490D01*
X0213424Y0142490D01*
X0218091Y0143741D01*
X0222276Y0146156D01*
X0225692Y0149573D01*
X0228108Y0153757D01*
X0229359Y0158424D01*
X0229359Y0163256D01*
X0228108Y0167923D01*
X0225692Y0172107D01*
X0222276Y0175524D01*
X0218091Y0177939D01*
X0213909Y0179060D01*
X0213909Y0184161D01*
X0213467Y0185227D01*
X0208070Y0190624D01*
X0207254Y0191440D01*
X0206188Y0191882D01*
X0159759Y0191882D01*
X0158693Y0191440D01*
X0154987Y0187735D01*
X0154546Y0186669D01*
X0154546Y0185409D01*
X0153509Y0184372D01*
X0152472Y0185409D01*
X0152472Y0186859D01*
X0157600Y0191987D01*
X0233039Y0191987D01*
X0233482Y0191947D01*
X0233611Y0191987D01*
X0233747Y0191987D01*
X0234158Y0192158D01*
X0234583Y0192290D01*
X0234688Y0192377D01*
X0234813Y0192429D01*
X0235128Y0192744D01*
X0246031Y0201830D01*
X0256048Y0201830D01*
X0253325Y0199107D01*
X0250909Y0194923D01*
X0249659Y0190256D01*
X0249659Y0185424D01*
X0250909Y0180757D01*
X0253325Y0176573D01*
X0256741Y0173156D01*
X0260926Y0170741D01*
X0265593Y0169490D01*
X0270424Y0169490D01*
X0275091Y0170741D01*
X0279276Y0173156D01*
X0282692Y0176573D01*
X0285108Y0180757D01*
X0286359Y0185424D01*
X0286359Y0190256D01*
X0285108Y0194923D01*
X0282692Y0199107D01*
X0279276Y0202524D01*
X0275091Y0204939D01*
X0270424Y0206190D01*
X0269276Y0206190D01*
X0268277Y0207188D01*
X0267306Y0207590D01*
X0322724Y0207590D01*
X0322724Y0122012D01*
X0320236Y0123042D01*
X0317411Y0123042D01*
X0314802Y0121961D01*
X0312805Y0119964D01*
X0311724Y0117355D01*
X0311724Y0114530D01*
X0312805Y0111921D01*
X0314802Y0109923D01*
X0317411Y0108842D01*
X0320236Y0108842D01*
X0322724Y0109873D01*
X0322724Y0056042D01*
X0257723Y0056042D01*
X0249624Y0054759D01*
X0249623Y0054759D02*
X0241824Y0052225D01*
X0234517Y0048502D01*
X0227883Y0043682D01*
X0227883Y0043682D01*
X0222084Y0037883D01*
X0217264Y0031249D01*
X0217264Y0031249D01*
X0213541Y0023942D01*
X0213541Y0023942D01*
X0211006Y0016142D01*
X0209724Y0008043D01*
X0209724Y0006042D01*
X0165556Y0006042D01*
X0169199Y0007939D01*
X0172629Y0006858D01*
X0172629Y0006858D01*
X0173729Y0006511D01*
X0174878Y0006611D01*
X0176986Y0007708D01*
X0179336Y0006967D01*
X0179336Y0006967D01*
X0180436Y0006620D01*
X0181586Y0006721D01*
X0198882Y0015725D01*
X0198882Y0015725D01*
X0199906Y0016257D01*
X0200647Y0017141D01*
X0201735Y0020592D01*
X0204150Y0021849D01*
X0205173Y0022382D01*
X0205582Y0022869D01*
X0205915Y0023265D01*
X0206087Y0023811D01*
X0206553Y0025288D01*
X0206899Y0026389D01*
X0206799Y0027538D01*
X0206769Y0027596D01*
X0206266Y0028561D01*
X0201258Y0038182D01*
X0201258Y0038182D01*
X0200725Y0039206D01*
X0200238Y0039615D01*
X0199841Y0039947D01*
X0199296Y0040119D01*
X0197818Y0040585D01*
X0196718Y0040932D01*
X0195594Y0040834D01*
X0193756Y0044363D01*
X0192097Y0044887D01*
X0184287Y0040821D01*
X0184287Y0052956D01*
X0183845Y0054022D01*
X0153393Y0084474D01*
X0153393Y0162000D01*
X0152951Y0163065D01*
X0144598Y0171419D01*
X0144598Y0177350D01*
X0145635Y0178387D01*
X0146796Y0177225D01*
X0148597Y0176479D01*
X0150546Y0176479D01*
X0152347Y0177225D01*
X0153509Y0178387D01*
X0154670Y0177225D01*
X0156471Y0176479D01*
X0158420Y0176479D01*
X0160221Y0177225D01*
X0161383Y0178387D01*
X0162420Y0177350D01*
X0162420Y0134208D01*
X0162861Y0133142D01*
X0174441Y0121563D01*
X0175507Y0121121D01*
X0202961Y0121121D01*
X0201805Y0119964D01*
X0200724Y0117355D01*
X0200724Y0114530D01*
X0201805Y0111921D01*
X0203802Y0109923D01*
X0206411Y0108842D01*
X0209236Y0108842D01*
X0211845Y0109923D01*
X0213843Y0111921D01*
X0214924Y0114530D01*
X0214924Y0117355D01*
X0213843Y0119964D01*
X0212686Y0121121D01*
X0231969Y0121121D01*
X0232138Y0120952D01*
X0228741Y0120042D01*
X0224556Y0117626D01*
X0221140Y0114210D01*
X0218724Y0110025D01*
X0217474Y0105358D01*
X0217474Y0100527D01*
X0218724Y0095860D01*
X0221140Y0091675D01*
X0224556Y0088259D01*
X0228741Y0085843D01*
X0233408Y0084592D01*
X0238239Y0084592D01*
X0242906Y0085843D01*
X0239096Y0084822D02*
X0307746Y0084822D01*
X0307332Y0083823D02*
X0154044Y0083823D01*
X0153393Y0084822D02*
X0232552Y0084822D01*
X0228825Y0085820D02*
X0153393Y0085820D01*
X0153393Y0086819D02*
X0227050Y0086819D01*
X0225321Y0087817D02*
X0153393Y0087817D01*
X0153393Y0088816D02*
X0223999Y0088816D01*
X0223001Y0089814D02*
X0153393Y0089814D01*
X0153393Y0090813D02*
X0222002Y0090813D01*
X0221061Y0091811D02*
X0153393Y0091811D01*
X0153393Y0092810D02*
X0220485Y0092810D01*
X0219908Y0093808D02*
X0153393Y0093808D01*
X0153393Y0094807D02*
X0219332Y0094807D01*
X0218755Y0095805D02*
X0153393Y0095805D01*
X0153393Y0096804D02*
X0218471Y0096804D01*
X0218204Y0097802D02*
X0153393Y0097802D01*
X0153393Y0098801D02*
X0217936Y0098801D01*
X0217668Y0099799D02*
X0153393Y0099799D01*
X0153393Y0100798D02*
X0217474Y0100798D01*
X0217474Y0101796D02*
X0153393Y0101796D01*
X0153393Y0102795D02*
X0217474Y0102795D01*
X0217474Y0103793D02*
X0153393Y0103793D01*
X0153393Y0104792D02*
X0217474Y0104792D01*
X0217589Y0105791D02*
X0153393Y0105791D01*
X0153393Y0106789D02*
X0217857Y0106789D01*
X0218125Y0107788D02*
X0153393Y0107788D01*
X0153393Y0108786D02*
X0218392Y0108786D01*
X0218660Y0109785D02*
X0211511Y0109785D01*
X0212705Y0110783D02*
X0219162Y0110783D01*
X0219738Y0111782D02*
X0213704Y0111782D01*
X0214199Y0112780D02*
X0220315Y0112780D01*
X0220891Y0113779D02*
X0214612Y0113779D01*
X0214924Y0114777D02*
X0221708Y0114777D01*
X0222706Y0115776D02*
X0214924Y0115776D01*
X0214924Y0116774D02*
X0223705Y0116774D01*
X0224810Y0117773D02*
X0214750Y0117773D01*
X0214337Y0118771D02*
X0226540Y0118771D01*
X0228269Y0119770D02*
X0213923Y0119770D01*
X0213039Y0120768D02*
X0231452Y0120768D01*
X0236530Y0124762D02*
X0275214Y0124762D01*
X0275482Y0123764D02*
X0237529Y0123764D01*
X0238384Y0122765D02*
X0275779Y0122765D01*
X0276355Y0121767D02*
X0238724Y0121767D01*
X0240196Y0120768D02*
X0276932Y0120768D01*
X0277508Y0119770D02*
X0243378Y0119770D01*
X0245107Y0118771D02*
X0278085Y0118771D01*
X0279042Y0117773D02*
X0246837Y0117773D01*
X0247943Y0116774D02*
X0280041Y0116774D01*
X0281040Y0115776D02*
X0248941Y0115776D01*
X0249940Y0114777D02*
X0282391Y0114777D01*
X0284120Y0113779D02*
X0250756Y0113779D01*
X0251333Y0112780D02*
X0285975Y0112780D01*
X0289702Y0111782D02*
X0251909Y0111782D01*
X0252486Y0110783D02*
X0313942Y0110783D01*
X0312943Y0111782D02*
X0295946Y0111782D01*
X0299672Y0112780D02*
X0312448Y0112780D01*
X0312035Y0113779D02*
X0301527Y0113779D01*
X0303257Y0114777D02*
X0311724Y0114777D01*
X0311724Y0115776D02*
X0304608Y0115776D01*
X0305606Y0116774D02*
X0311724Y0116774D01*
X0311897Y0117773D02*
X0306605Y0117773D01*
X0307563Y0118771D02*
X0312310Y0118771D01*
X0312724Y0119770D02*
X0308139Y0119770D01*
X0308716Y0120768D02*
X0313609Y0120768D01*
X0314607Y0121767D02*
X0309292Y0121767D01*
X0309869Y0122765D02*
X0316742Y0122765D01*
X0320905Y0122765D02*
X0322724Y0122765D01*
X0322724Y0123764D02*
X0310165Y0123764D01*
X0310433Y0124762D02*
X0322724Y0124762D01*
X0322724Y0125761D02*
X0310700Y0125761D01*
X0310968Y0126759D02*
X0322724Y0126759D01*
X0322724Y0127758D02*
X0311174Y0127758D01*
X0311174Y0128756D02*
X0322724Y0128756D01*
X0322724Y0129755D02*
X0311174Y0129755D01*
X0311174Y0130753D02*
X0322724Y0130753D01*
X0322724Y0131752D02*
X0311174Y0131752D01*
X0311069Y0132750D02*
X0322724Y0132750D01*
X0322724Y0133749D02*
X0310801Y0133749D01*
X0310533Y0134747D02*
X0322724Y0134747D01*
X0322724Y0135746D02*
X0310266Y0135746D01*
X0309998Y0136744D02*
X0322724Y0136744D01*
X0322724Y0137743D02*
X0309509Y0137743D01*
X0308932Y0138741D02*
X0322724Y0138741D01*
X0322724Y0139740D02*
X0308356Y0139740D01*
X0307779Y0140738D02*
X0322724Y0140738D01*
X0322724Y0141737D02*
X0306980Y0141737D01*
X0305981Y0142735D02*
X0322724Y0142735D01*
X0322724Y0143734D02*
X0304983Y0143734D01*
X0303906Y0144732D02*
X0322724Y0144732D01*
X0322724Y0145731D02*
X0302177Y0145731D01*
X0300447Y0146729D02*
X0322724Y0146729D01*
X0322724Y0147728D02*
X0297346Y0147728D01*
X0279666Y0142735D02*
X0238269Y0142735D01*
X0237271Y0141737D02*
X0278667Y0141737D01*
X0277868Y0140738D02*
X0236272Y0140738D01*
X0235274Y0139740D02*
X0277291Y0139740D01*
X0276715Y0138741D02*
X0234275Y0138741D01*
X0233277Y0137743D02*
X0276139Y0137743D01*
X0275649Y0136744D02*
X0232278Y0136744D01*
X0231280Y0135746D02*
X0275381Y0135746D01*
X0275114Y0134747D02*
X0230281Y0134747D01*
X0229282Y0133749D02*
X0274846Y0133749D01*
X0274579Y0132750D02*
X0228284Y0132750D01*
X0227285Y0131752D02*
X0274474Y0131752D01*
X0274474Y0130753D02*
X0226287Y0130753D01*
X0225288Y0129755D02*
X0274474Y0129755D01*
X0274474Y0128756D02*
X0224290Y0128756D01*
X0223291Y0127758D02*
X0274474Y0127758D01*
X0274679Y0126759D02*
X0234138Y0126759D01*
X0235532Y0125761D02*
X0274947Y0125761D01*
X0252988Y0109785D02*
X0315137Y0109785D01*
X0322511Y0109785D02*
X0322724Y0109785D01*
X0322724Y0108786D02*
X0253255Y0108786D01*
X0253523Y0107788D02*
X0322724Y0107788D01*
X0322724Y0106789D02*
X0253790Y0106789D01*
X0254058Y0105791D02*
X0322724Y0105791D01*
X0322724Y0104792D02*
X0254174Y0104792D01*
X0254174Y0103793D02*
X0322724Y0103793D01*
X0322724Y0102795D02*
X0254174Y0102795D01*
X0254174Y0101796D02*
X0322724Y0101796D01*
X0322724Y0100798D02*
X0254174Y0100798D01*
X0253979Y0099799D02*
X0322724Y0099799D01*
X0322724Y0098801D02*
X0253711Y0098801D01*
X0253444Y0097802D02*
X0322724Y0097802D01*
X0322724Y0096804D02*
X0253176Y0096804D01*
X0252892Y0095805D02*
X0322724Y0095805D01*
X0322724Y0094807D02*
X0252315Y0094807D01*
X0251739Y0093808D02*
X0322724Y0093808D01*
X0322724Y0092810D02*
X0251162Y0092810D01*
X0250586Y0091811D02*
X0322724Y0091811D01*
X0322724Y0090813D02*
X0249645Y0090813D01*
X0248646Y0089814D02*
X0322724Y0089814D01*
X0322724Y0088816D02*
X0247648Y0088816D01*
X0246326Y0087817D02*
X0311868Y0087817D01*
X0315779Y0087817D02*
X0322724Y0087817D01*
X0322724Y0086819D02*
X0317988Y0086819D01*
X0318987Y0085820D02*
X0322724Y0085820D01*
X0322724Y0084822D02*
X0319902Y0084822D01*
X0320315Y0083823D02*
X0322724Y0083823D01*
X0322724Y0082825D02*
X0320729Y0082825D01*
X0320924Y0081826D02*
X0322724Y0081826D01*
X0322724Y0080828D02*
X0320924Y0080828D01*
X0320924Y0079829D02*
X0322724Y0079829D01*
X0322724Y0078831D02*
X0320634Y0078831D01*
X0320220Y0077832D02*
X0322724Y0077832D01*
X0322724Y0076834D02*
X0319756Y0076834D01*
X0318757Y0075835D02*
X0322724Y0075835D01*
X0322724Y0074837D02*
X0317636Y0074837D01*
X0322724Y0073838D02*
X0279814Y0073838D01*
X0280167Y0073227D02*
X0278706Y0075758D01*
X0276639Y0077825D01*
X0274108Y0079286D01*
X0271285Y0080042D01*
X0268362Y0080042D01*
X0265539Y0079286D01*
X0263008Y0077825D01*
X0260941Y0075758D01*
X0259480Y0073227D01*
X0258724Y0070404D01*
X0258724Y0067481D01*
X0259480Y0064658D01*
X0260941Y0062127D01*
X0263008Y0060060D01*
X0265539Y0058599D01*
X0268362Y0057842D01*
X0271285Y0057842D01*
X0274108Y0058599D01*
X0276639Y0060060D01*
X0278706Y0062127D01*
X0280167Y0064658D01*
X0280924Y0067481D01*
X0280924Y0070404D01*
X0280167Y0073227D01*
X0280271Y0072840D02*
X0322724Y0072840D01*
X0322724Y0071841D02*
X0280538Y0071841D01*
X0280806Y0070843D02*
X0322724Y0070843D01*
X0322724Y0069844D02*
X0280924Y0069844D01*
X0280924Y0068846D02*
X0322724Y0068846D01*
X0322724Y0067847D02*
X0280924Y0067847D01*
X0280754Y0066849D02*
X0322724Y0066849D01*
X0322724Y0065850D02*
X0280487Y0065850D01*
X0280219Y0064852D02*
X0322724Y0064852D01*
X0322724Y0063853D02*
X0279702Y0063853D01*
X0279126Y0062855D02*
X0322724Y0062855D01*
X0322724Y0061856D02*
X0278435Y0061856D01*
X0277437Y0060858D02*
X0322724Y0060858D01*
X0322724Y0059859D02*
X0276291Y0059859D01*
X0274561Y0058860D02*
X0322724Y0058860D01*
X0322724Y0057862D02*
X0271358Y0057862D01*
X0268289Y0057862D02*
X0180005Y0057862D01*
X0179007Y0058860D02*
X0265086Y0058860D01*
X0263356Y0059859D02*
X0178008Y0059859D01*
X0177010Y0060858D02*
X0262211Y0060858D01*
X0261212Y0061856D02*
X0176011Y0061856D01*
X0175013Y0062855D02*
X0260521Y0062855D01*
X0259945Y0063853D02*
X0174014Y0063853D01*
X0173016Y0064852D02*
X0259428Y0064852D01*
X0259161Y0065850D02*
X0172017Y0065850D01*
X0171019Y0066849D02*
X0258893Y0066849D01*
X0258724Y0067847D02*
X0170020Y0067847D01*
X0169022Y0068846D02*
X0258724Y0068846D01*
X0258724Y0069844D02*
X0168023Y0069844D01*
X0167025Y0070843D02*
X0258841Y0070843D01*
X0259109Y0071841D02*
X0166026Y0071841D01*
X0165028Y0072840D02*
X0259376Y0072840D01*
X0259833Y0073838D02*
X0164029Y0073838D01*
X0163031Y0074837D02*
X0260410Y0074837D01*
X0261019Y0075835D02*
X0162032Y0075835D01*
X0161034Y0076834D02*
X0262017Y0076834D01*
X0263021Y0077832D02*
X0160035Y0077832D01*
X0159036Y0078831D02*
X0264751Y0078831D01*
X0267567Y0079829D02*
X0158038Y0079829D01*
X0157039Y0080828D02*
X0306724Y0080828D01*
X0306724Y0081826D02*
X0156041Y0081826D01*
X0155042Y0082825D02*
X0306918Y0082825D01*
X0306724Y0079829D02*
X0272080Y0079829D01*
X0274896Y0078831D02*
X0307013Y0078831D01*
X0307427Y0077832D02*
X0276626Y0077832D01*
X0277630Y0076834D02*
X0307891Y0076834D01*
X0308890Y0075835D02*
X0278629Y0075835D01*
X0279238Y0074837D02*
X0310011Y0074837D01*
X0322724Y0056863D02*
X0181004Y0056863D01*
X0182002Y0055865D02*
X0256603Y0055865D01*
X0250299Y0054866D02*
X0183001Y0054866D01*
X0183909Y0053868D02*
X0246880Y0053868D01*
X0249623Y0054759D02*
X0249624Y0054759D01*
X0243807Y0052869D02*
X0184287Y0052869D01*
X0184287Y0051871D02*
X0241129Y0051871D01*
X0241824Y0052225D02*
X0241824Y0052225D01*
X0239169Y0050872D02*
X0184287Y0050872D01*
X0184287Y0049874D02*
X0237209Y0049874D01*
X0235250Y0048875D02*
X0184287Y0048875D01*
X0184287Y0047877D02*
X0233656Y0047877D01*
X0234517Y0048502D02*
X0234517Y0048502D01*
X0232282Y0046878D02*
X0184287Y0046878D01*
X0184287Y0045880D02*
X0230908Y0045880D01*
X0229533Y0044881D02*
X0192113Y0044881D01*
X0192087Y0044881D02*
X0184287Y0044881D01*
X0184287Y0043883D02*
X0190169Y0043883D01*
X0188251Y0042884D02*
X0184287Y0042884D01*
X0184287Y0041886D02*
X0186333Y0041886D01*
X0184415Y0040887D02*
X0184287Y0040887D01*
X0178487Y0040887D02*
X0161924Y0040887D01*
X0161924Y0039889D02*
X0175012Y0039889D01*
X0175266Y0039911D02*
X0174116Y0039810D01*
X0173093Y0039278D01*
X0173093Y0039278D01*
X0159481Y0032192D01*
X0159481Y0032192D01*
X0158457Y0031659D01*
X0158060Y0031185D01*
X0157716Y0030775D01*
X0157531Y0030189D01*
X0157078Y0028752D01*
X0157078Y0028752D01*
X0156744Y0027694D01*
X0156731Y0027652D01*
X0156829Y0026527D01*
X0153299Y0024690D01*
X0152776Y0023031D01*
X0157043Y0014835D01*
X0157893Y0014567D01*
X0157625Y0013717D01*
X0161620Y0006042D01*
X0105556Y0006042D01*
X0109199Y0007939D01*
X0113729Y0006511D01*
X0114878Y0006611D01*
X0115902Y0007144D01*
X0116986Y0007708D01*
X0119336Y0006967D01*
X0119336Y0006967D01*
X0120436Y0006620D01*
X0121586Y0006721D01*
X0138882Y0015725D01*
X0138882Y0015725D01*
X0139906Y0016257D01*
X0140647Y0017141D01*
X0141735Y0020592D01*
X0144150Y0021849D01*
X0145173Y0022382D01*
X0145582Y0022869D01*
X0145915Y0023265D01*
X0146087Y0023811D01*
X0146553Y0025288D01*
X0146899Y0026389D01*
X0146799Y0027538D01*
X0146769Y0027596D01*
X0146266Y0028561D01*
X0141258Y0038182D01*
X0141258Y0038182D01*
X0140725Y0039206D01*
X0140238Y0039615D01*
X0139841Y0039947D01*
X0139296Y0040119D01*
X0137818Y0040585D01*
X0136718Y0040932D01*
X0135594Y0040834D01*
X0133756Y0044363D01*
X0132097Y0044887D01*
X0124287Y0040821D01*
X0124287Y0041304D01*
X0139172Y0056189D01*
X0139613Y0057255D01*
X0139613Y0168201D01*
X0140055Y0167759D01*
X0147593Y0160221D01*
X0147593Y0082696D01*
X0148034Y0081630D01*
X0148850Y0080815D01*
X0178487Y0051178D01*
X0178487Y0038844D01*
X0178389Y0038926D01*
X0178347Y0038939D01*
X0176366Y0039564D01*
X0176366Y0039564D01*
X0175286Y0039904D01*
X0175266Y0039911D01*
X0175336Y0039889D02*
X0178487Y0039889D01*
X0178487Y0038890D02*
X0178432Y0038890D01*
X0178487Y0041886D02*
X0161924Y0041886D01*
X0161924Y0042355D02*
X0160843Y0044964D01*
X0158845Y0046961D01*
X0156236Y0048042D01*
X0153411Y0048042D01*
X0150802Y0046961D01*
X0148805Y0044964D01*
X0147724Y0042355D01*
X0147724Y0039530D01*
X0148805Y0036921D01*
X0150802Y0034923D01*
X0153411Y0033842D01*
X0156236Y0033842D01*
X0158845Y0034923D01*
X0160843Y0036921D01*
X0161924Y0039530D01*
X0161924Y0042355D01*
X0161704Y0042884D02*
X0178487Y0042884D01*
X0178487Y0043883D02*
X0161291Y0043883D01*
X0160877Y0044881D02*
X0178487Y0044881D01*
X0178487Y0045880D02*
X0159927Y0045880D01*
X0158929Y0046878D02*
X0178487Y0046878D01*
X0178487Y0047877D02*
X0156635Y0047877D01*
X0153012Y0047877D02*
X0130859Y0047877D01*
X0129861Y0046878D02*
X0150719Y0046878D01*
X0149720Y0045880D02*
X0128862Y0045880D01*
X0127864Y0044881D02*
X0132087Y0044881D01*
X0132113Y0044881D02*
X0148770Y0044881D01*
X0148357Y0043883D02*
X0134006Y0043883D01*
X0134526Y0042884D02*
X0147943Y0042884D01*
X0147724Y0041886D02*
X0135046Y0041886D01*
X0135566Y0040887D02*
X0136207Y0040887D01*
X0136860Y0040887D02*
X0147724Y0040887D01*
X0147724Y0039889D02*
X0139911Y0039889D01*
X0140889Y0038890D02*
X0147989Y0038890D01*
X0148402Y0037892D02*
X0141409Y0037892D01*
X0141929Y0036893D02*
X0148832Y0036893D01*
X0149830Y0035895D02*
X0142449Y0035895D01*
X0142969Y0034896D02*
X0150867Y0034896D01*
X0153278Y0033898D02*
X0143488Y0033898D01*
X0144008Y0032899D02*
X0160840Y0032899D01*
X0158922Y0031901D02*
X0144528Y0031901D01*
X0145048Y0030902D02*
X0157822Y0030902D01*
X0157441Y0029904D02*
X0145567Y0029904D01*
X0146087Y0028905D02*
X0157126Y0028905D01*
X0156811Y0027907D02*
X0146607Y0027907D01*
X0146266Y0028561D02*
X0146266Y0028561D01*
X0146854Y0026908D02*
X0156796Y0026908D01*
X0155643Y0025910D02*
X0146748Y0025910D01*
X0146553Y0025288D02*
X0146553Y0025288D01*
X0146434Y0024911D02*
X0153725Y0024911D01*
X0153054Y0023913D02*
X0146119Y0023913D01*
X0145620Y0022914D02*
X0152837Y0022914D01*
X0153357Y0021916D02*
X0144278Y0021916D01*
X0144150Y0021849D02*
X0144150Y0021849D01*
X0142360Y0020917D02*
X0153877Y0020917D01*
X0154396Y0019919D02*
X0141523Y0019919D01*
X0141208Y0018920D02*
X0154916Y0018920D01*
X0155436Y0017922D02*
X0140893Y0017922D01*
X0140464Y0016923D02*
X0155956Y0016923D01*
X0156475Y0015924D02*
X0139266Y0015924D01*
X0137348Y0014926D02*
X0156995Y0014926D01*
X0157691Y0013927D02*
X0135430Y0013927D01*
X0133512Y0012929D02*
X0158035Y0012929D01*
X0158555Y0011930D02*
X0131594Y0011930D01*
X0129676Y0010932D02*
X0159074Y0010932D01*
X0159594Y0009933D02*
X0127757Y0009933D01*
X0125839Y0008935D02*
X0160114Y0008935D01*
X0160634Y0007936D02*
X0123921Y0007936D01*
X0122003Y0006938D02*
X0161154Y0006938D01*
X0167276Y0006938D02*
X0172374Y0006938D01*
X0175506Y0006938D02*
X0179428Y0006938D01*
X0182003Y0006938D02*
X0209724Y0006938D01*
X0209724Y0007936D02*
X0183921Y0007936D01*
X0185839Y0008935D02*
X0209865Y0008935D01*
X0210023Y0009933D02*
X0187757Y0009933D01*
X0189676Y0010932D02*
X0210181Y0010932D01*
X0210339Y0011930D02*
X0191594Y0011930D01*
X0193512Y0012929D02*
X0210498Y0012929D01*
X0210656Y0013927D02*
X0195430Y0013927D01*
X0197348Y0014926D02*
X0210814Y0014926D01*
X0210972Y0015924D02*
X0199266Y0015924D01*
X0200464Y0016923D02*
X0211260Y0016923D01*
X0211006Y0016142D02*
X0211006Y0016142D01*
X0211585Y0017922D02*
X0200893Y0017922D01*
X0201208Y0018920D02*
X0211909Y0018920D01*
X0212233Y0019919D02*
X0201523Y0019919D01*
X0202360Y0020917D02*
X0212558Y0020917D01*
X0212882Y0021916D02*
X0204278Y0021916D01*
X0204150Y0021849D02*
X0204150Y0021849D01*
X0205620Y0022914D02*
X0213207Y0022914D01*
X0213531Y0023913D02*
X0206119Y0023913D01*
X0206434Y0024911D02*
X0214035Y0024911D01*
X0214543Y0025910D02*
X0206748Y0025910D01*
X0206553Y0025288D02*
X0206553Y0025288D01*
X0206854Y0026908D02*
X0215052Y0026908D01*
X0215561Y0027907D02*
X0206607Y0027907D01*
X0206266Y0028561D02*
X0206266Y0028561D01*
X0206087Y0028905D02*
X0216070Y0028905D01*
X0216578Y0029904D02*
X0205567Y0029904D01*
X0205048Y0030902D02*
X0217087Y0030902D01*
X0217737Y0031901D02*
X0204528Y0031901D01*
X0204008Y0032899D02*
X0218463Y0032899D01*
X0219188Y0033898D02*
X0203488Y0033898D01*
X0202969Y0034896D02*
X0219914Y0034896D01*
X0220639Y0035895D02*
X0202449Y0035895D01*
X0201929Y0036893D02*
X0221365Y0036893D01*
X0222084Y0037883D02*
X0222084Y0037883D01*
X0222092Y0037892D02*
X0201409Y0037892D01*
X0200889Y0038890D02*
X0223091Y0038890D01*
X0224090Y0039889D02*
X0199911Y0039889D01*
X0197818Y0040585D02*
X0197818Y0040585D01*
X0196860Y0040887D02*
X0225088Y0040887D01*
X0226087Y0041886D02*
X0195046Y0041886D01*
X0194526Y0042884D02*
X0227085Y0042884D01*
X0228159Y0043883D02*
X0194006Y0043883D01*
X0195566Y0040887D02*
X0196207Y0040887D01*
X0178487Y0048875D02*
X0131858Y0048875D01*
X0132856Y0049874D02*
X0178487Y0049874D01*
X0178487Y0050872D02*
X0133855Y0050872D01*
X0134853Y0051871D02*
X0177794Y0051871D01*
X0176795Y0052869D02*
X0135852Y0052869D01*
X0136850Y0053868D02*
X0175797Y0053868D01*
X0174798Y0054866D02*
X0137849Y0054866D01*
X0138847Y0055865D02*
X0173800Y0055865D01*
X0172801Y0056863D02*
X0139451Y0056863D01*
X0139613Y0057862D02*
X0171803Y0057862D01*
X0170804Y0058860D02*
X0139613Y0058860D01*
X0139613Y0059859D02*
X0169806Y0059859D01*
X0168807Y0060858D02*
X0139613Y0060858D01*
X0139613Y0061856D02*
X0167809Y0061856D01*
X0166810Y0062855D02*
X0139613Y0062855D01*
X0139613Y0063853D02*
X0165812Y0063853D01*
X0164813Y0064852D02*
X0139613Y0064852D01*
X0139613Y0065850D02*
X0163815Y0065850D01*
X0162816Y0066849D02*
X0139613Y0066849D01*
X0139613Y0067847D02*
X0161818Y0067847D01*
X0160819Y0068846D02*
X0139613Y0068846D01*
X0139613Y0069844D02*
X0159821Y0069844D01*
X0158822Y0070843D02*
X0139613Y0070843D01*
X0139613Y0071841D02*
X0157824Y0071841D01*
X0156825Y0072840D02*
X0139613Y0072840D01*
X0139613Y0073838D02*
X0155827Y0073838D01*
X0154828Y0074837D02*
X0139613Y0074837D01*
X0139613Y0075835D02*
X0153830Y0075835D01*
X0152831Y0076834D02*
X0139613Y0076834D01*
X0139613Y0077832D02*
X0151833Y0077832D01*
X0150834Y0078831D02*
X0139613Y0078831D01*
X0139613Y0079829D02*
X0149836Y0079829D01*
X0148837Y0080828D02*
X0139613Y0080828D01*
X0139613Y0081826D02*
X0147953Y0081826D01*
X0147593Y0082825D02*
X0139613Y0082825D01*
X0139613Y0083823D02*
X0147593Y0083823D01*
X0147593Y0084822D02*
X0139613Y0084822D01*
X0139613Y0085820D02*
X0147593Y0085820D01*
X0147593Y0086819D02*
X0139613Y0086819D01*
X0139613Y0087817D02*
X0147593Y0087817D01*
X0147593Y0088816D02*
X0139613Y0088816D01*
X0139613Y0089814D02*
X0147593Y0089814D01*
X0147593Y0090813D02*
X0139613Y0090813D01*
X0139613Y0091811D02*
X0147593Y0091811D01*
X0147593Y0092810D02*
X0139613Y0092810D01*
X0139613Y0093808D02*
X0147593Y0093808D01*
X0147593Y0094807D02*
X0139613Y0094807D01*
X0139613Y0095805D02*
X0147593Y0095805D01*
X0147593Y0096804D02*
X0139613Y0096804D01*
X0139613Y0097802D02*
X0147593Y0097802D01*
X0147593Y0098801D02*
X0139613Y0098801D01*
X0139613Y0099799D02*
X0147593Y0099799D01*
X0147593Y0100798D02*
X0139613Y0100798D01*
X0139613Y0101796D02*
X0147593Y0101796D01*
X0147593Y0102795D02*
X0139613Y0102795D01*
X0139613Y0103793D02*
X0147593Y0103793D01*
X0147593Y0104792D02*
X0139613Y0104792D01*
X0139613Y0105791D02*
X0147593Y0105791D01*
X0147593Y0106789D02*
X0139613Y0106789D01*
X0139613Y0107788D02*
X0147593Y0107788D01*
X0147593Y0108786D02*
X0139613Y0108786D01*
X0139613Y0109785D02*
X0147593Y0109785D01*
X0147593Y0110783D02*
X0139613Y0110783D01*
X0139613Y0111782D02*
X0147593Y0111782D01*
X0147593Y0112780D02*
X0139613Y0112780D01*
X0139613Y0113779D02*
X0147593Y0113779D01*
X0147593Y0114777D02*
X0139613Y0114777D01*
X0139613Y0115776D02*
X0147593Y0115776D01*
X0147593Y0116774D02*
X0139613Y0116774D01*
X0139613Y0117773D02*
X0147593Y0117773D01*
X0147593Y0118771D02*
X0139613Y0118771D01*
X0139613Y0119770D02*
X0147593Y0119770D01*
X0147593Y0120768D02*
X0139613Y0120768D01*
X0139613Y0121767D02*
X0147593Y0121767D01*
X0147593Y0122765D02*
X0139613Y0122765D01*
X0139613Y0123764D02*
X0147593Y0123764D01*
X0147593Y0124762D02*
X0139613Y0124762D01*
X0139613Y0125761D02*
X0147593Y0125761D01*
X0147593Y0126759D02*
X0139613Y0126759D01*
X0139613Y0127758D02*
X0147593Y0127758D01*
X0147593Y0128756D02*
X0139613Y0128756D01*
X0139613Y0129755D02*
X0147593Y0129755D01*
X0147593Y0130753D02*
X0139613Y0130753D01*
X0139613Y0131752D02*
X0147593Y0131752D01*
X0147593Y0132750D02*
X0139613Y0132750D01*
X0139613Y0133749D02*
X0147593Y0133749D01*
X0147593Y0134747D02*
X0139613Y0134747D01*
X0139613Y0135746D02*
X0147593Y0135746D01*
X0147593Y0136744D02*
X0139613Y0136744D01*
X0139613Y0137743D02*
X0147593Y0137743D01*
X0147593Y0138741D02*
X0139613Y0138741D01*
X0139613Y0139740D02*
X0147593Y0139740D01*
X0147593Y0140738D02*
X0139613Y0140738D01*
X0139613Y0141737D02*
X0147593Y0141737D01*
X0147593Y0142735D02*
X0139613Y0142735D01*
X0139613Y0143734D02*
X0147593Y0143734D01*
X0147593Y0144732D02*
X0139613Y0144732D01*
X0139613Y0145731D02*
X0147593Y0145731D01*
X0147593Y0146729D02*
X0139613Y0146729D01*
X0139613Y0147728D02*
X0147593Y0147728D01*
X0147593Y0148727D02*
X0139613Y0148727D01*
X0139613Y0149725D02*
X0147593Y0149725D01*
X0147593Y0150724D02*
X0139613Y0150724D01*
X0139613Y0151722D02*
X0147593Y0151722D01*
X0147593Y0152721D02*
X0139613Y0152721D01*
X0139613Y0153719D02*
X0147593Y0153719D01*
X0147593Y0154718D02*
X0139613Y0154718D01*
X0139613Y0155716D02*
X0147593Y0155716D01*
X0147593Y0156715D02*
X0139613Y0156715D01*
X0139613Y0157713D02*
X0147593Y0157713D01*
X0147593Y0158712D02*
X0139613Y0158712D01*
X0139613Y0159710D02*
X0147593Y0159710D01*
X0147106Y0160709D02*
X0139613Y0160709D01*
X0139613Y0161707D02*
X0146107Y0161707D01*
X0145109Y0162706D02*
X0139613Y0162706D01*
X0139613Y0163704D02*
X0144110Y0163704D01*
X0143112Y0164703D02*
X0139613Y0164703D01*
X0139613Y0165701D02*
X0142113Y0165701D01*
X0141115Y0166700D02*
X0139613Y0166700D01*
X0139613Y0167698D02*
X0140116Y0167698D01*
X0133813Y0167698D02*
X0128850Y0167698D01*
X0128850Y0166700D02*
X0133813Y0166700D01*
X0133813Y0165701D02*
X0128850Y0165701D01*
X0128850Y0164703D02*
X0133813Y0164703D01*
X0133813Y0163704D02*
X0128784Y0163704D01*
X0128850Y0163862D02*
X0128850Y0177350D01*
X0129887Y0178387D01*
X0130924Y0177350D01*
X0130924Y0173578D01*
X0131365Y0172512D01*
X0132181Y0171696D01*
X0133813Y0170064D01*
X0133813Y0059033D01*
X0118928Y0044148D01*
X0118487Y0043082D01*
X0118487Y0038844D01*
X0118389Y0038926D01*
X0118347Y0038939D01*
X0116366Y0039564D01*
X0116366Y0039564D01*
X0115286Y0039904D01*
X0115266Y0039911D01*
X0114116Y0039810D01*
X0113093Y0039278D01*
X0113093Y0039278D01*
X0099481Y0032192D01*
X0099481Y0032192D01*
X0098457Y0031659D01*
X0098060Y0031185D01*
X0097716Y0030775D01*
X0097531Y0030189D01*
X0097078Y0028752D01*
X0097078Y0028752D01*
X0096744Y0027694D01*
X0096731Y0027652D01*
X0096829Y0026527D01*
X0093299Y0024690D01*
X0092776Y0023031D01*
X0097043Y0014835D01*
X0097893Y0014567D01*
X0097625Y0013717D01*
X0101620Y0006042D01*
X0091924Y0006042D01*
X0091924Y0039812D01*
X0090693Y0041042D01*
X0078693Y0053042D01*
X0038693Y0053042D01*
X0006924Y0084812D01*
X0006924Y0190819D01*
X0077363Y0190819D01*
X0077168Y0190624D01*
X0061365Y0174821D01*
X0060924Y0173755D01*
X0060924Y0165163D01*
X0056741Y0164042D01*
X0052556Y0161626D01*
X0049140Y0158210D01*
X0046724Y0154025D01*
X0045474Y0149358D01*
X0045474Y0144527D01*
X0046724Y0139860D01*
X0049140Y0135675D01*
X0052556Y0132259D01*
X0056741Y0129843D01*
X0061408Y0128592D01*
X0066239Y0128592D01*
X0070906Y0129843D01*
X0072322Y0130660D01*
X0055504Y0113842D01*
X0045044Y0113842D01*
X0043923Y0118025D01*
X0041507Y0122210D01*
X0038091Y0125626D01*
X0033906Y0128042D01*
X0029239Y0129292D01*
X0024408Y0129292D01*
X0019741Y0128042D01*
X0015556Y0125626D01*
X0012140Y0122210D01*
X0009724Y0118025D01*
X0008474Y0113358D01*
X0008474Y0108527D01*
X0009724Y0103860D01*
X0012140Y0099675D01*
X0015556Y0096259D01*
X0019741Y0093843D01*
X0024408Y0092592D01*
X0029239Y0092592D01*
X0033906Y0093843D01*
X0038091Y0096259D01*
X0041507Y0099675D01*
X0043923Y0103860D01*
X0045044Y0108042D01*
X0057282Y0108042D01*
X0058348Y0108484D01*
X0104286Y0154421D01*
X0104286Y0150813D01*
X0061181Y0107708D01*
X0060365Y0106892D01*
X0059924Y0105826D01*
X0059924Y0093163D01*
X0055741Y0092042D01*
X0051556Y0089626D01*
X0048140Y0086210D01*
X0045724Y0082025D01*
X0044474Y0077358D01*
X0044474Y0072527D01*
X0045724Y0067860D01*
X0048140Y0063675D01*
X0051556Y0060259D01*
X0055741Y0057843D01*
X0060408Y0056592D01*
X0065239Y0056592D01*
X0069906Y0057843D01*
X0074091Y0060259D01*
X0077507Y0063675D01*
X0079923Y0067860D01*
X0081174Y0072527D01*
X0081174Y0077358D01*
X0079923Y0082025D01*
X0077507Y0086210D01*
X0074091Y0089626D01*
X0069906Y0092042D01*
X0065724Y0093163D01*
X0065724Y0104048D01*
X0108829Y0147153D01*
X0109644Y0147969D01*
X0110086Y0149035D01*
X0110086Y0156284D01*
X0119718Y0165917D01*
X0120534Y0166733D01*
X0120976Y0167799D01*
X0120976Y0177350D01*
X0122013Y0178387D01*
X0123050Y0177350D01*
X0123050Y0165640D01*
X0113417Y0156007D01*
X0112601Y0155191D01*
X0112160Y0154126D01*
X0112160Y0123557D01*
X0110091Y0125626D01*
X0105906Y0128042D01*
X0101239Y0129292D01*
X0096408Y0129292D01*
X0091741Y0128042D01*
X0087556Y0125626D01*
X0084140Y0122210D01*
X0081724Y0118025D01*
X0080474Y0113358D01*
X0080474Y0108527D01*
X0081724Y0103860D01*
X0084140Y0099675D01*
X0087556Y0096259D01*
X0091741Y0093843D01*
X0096408Y0092592D01*
X0101239Y0092592D01*
X0105906Y0093843D01*
X0110091Y0096259D01*
X0113507Y0099675D01*
X0115923Y0103860D01*
X0117174Y0108527D01*
X0117174Y0108955D01*
X0117518Y0109300D01*
X0117960Y0110366D01*
X0117960Y0145960D01*
X0118805Y0143921D01*
X0120802Y0141923D01*
X0123411Y0140842D01*
X0126236Y0140842D01*
X0128845Y0141923D01*
X0130843Y0143921D01*
X0131924Y0146530D01*
X0131924Y0149355D01*
X0130843Y0151964D01*
X0128845Y0153961D01*
X0126236Y0155042D01*
X0123411Y0155042D01*
X0120802Y0153961D01*
X0118805Y0151964D01*
X0117960Y0149925D01*
X0117960Y0152347D01*
X0127592Y0161980D01*
X0128408Y0162796D01*
X0128850Y0163862D01*
X0128318Y0162706D02*
X0133813Y0162706D01*
X0133813Y0161707D02*
X0127320Y0161707D01*
X0126321Y0160709D02*
X0133813Y0160709D01*
X0133813Y0159710D02*
X0125323Y0159710D01*
X0124324Y0158712D02*
X0133813Y0158712D01*
X0133813Y0157713D02*
X0123326Y0157713D01*
X0122327Y0156715D02*
X0133813Y0156715D01*
X0133813Y0155716D02*
X0121328Y0155716D01*
X0120330Y0154718D02*
X0122627Y0154718D01*
X0120559Y0153719D02*
X0119331Y0153719D01*
X0119561Y0152721D02*
X0118333Y0152721D01*
X0118704Y0151722D02*
X0117960Y0151722D01*
X0117960Y0150724D02*
X0118291Y0150724D01*
X0118055Y0145731D02*
X0117960Y0145731D01*
X0117960Y0144732D02*
X0118468Y0144732D01*
X0117960Y0143734D02*
X0118991Y0143734D01*
X0119990Y0142735D02*
X0117960Y0142735D01*
X0117960Y0141737D02*
X0121252Y0141737D01*
X0117960Y0140738D02*
X0133813Y0140738D01*
X0133813Y0139740D02*
X0117960Y0139740D01*
X0117960Y0138741D02*
X0133813Y0138741D01*
X0133813Y0137743D02*
X0117960Y0137743D01*
X0117960Y0136744D02*
X0133813Y0136744D01*
X0133813Y0135746D02*
X0117960Y0135746D01*
X0117960Y0134747D02*
X0133813Y0134747D01*
X0133813Y0133749D02*
X0117960Y0133749D01*
X0117960Y0132750D02*
X0133813Y0132750D01*
X0133813Y0131752D02*
X0117960Y0131752D01*
X0117960Y0130753D02*
X0133813Y0130753D01*
X0133813Y0129755D02*
X0117960Y0129755D01*
X0117960Y0128756D02*
X0133813Y0128756D01*
X0133813Y0127758D02*
X0117960Y0127758D01*
X0117960Y0126759D02*
X0133813Y0126759D01*
X0133813Y0125761D02*
X0117960Y0125761D01*
X0117960Y0124762D02*
X0133813Y0124762D01*
X0133813Y0123764D02*
X0117960Y0123764D01*
X0117960Y0122765D02*
X0133813Y0122765D01*
X0133813Y0121767D02*
X0117960Y0121767D01*
X0117960Y0120768D02*
X0133813Y0120768D01*
X0133813Y0119770D02*
X0117960Y0119770D01*
X0117960Y0118771D02*
X0133813Y0118771D01*
X0133813Y0117773D02*
X0117960Y0117773D01*
X0117960Y0116774D02*
X0133813Y0116774D01*
X0133813Y0115776D02*
X0117960Y0115776D01*
X0117960Y0114777D02*
X0133813Y0114777D01*
X0133813Y0113779D02*
X0117960Y0113779D01*
X0117960Y0112780D02*
X0133813Y0112780D01*
X0133813Y0111782D02*
X0117960Y0111782D01*
X0117960Y0110783D02*
X0133813Y0110783D01*
X0133813Y0109785D02*
X0117719Y0109785D01*
X0117174Y0108786D02*
X0133813Y0108786D01*
X0133813Y0107788D02*
X0116976Y0107788D01*
X0116708Y0106789D02*
X0133813Y0106789D01*
X0133813Y0105791D02*
X0116440Y0105791D01*
X0116173Y0104792D02*
X0133813Y0104792D01*
X0133813Y0103793D02*
X0115885Y0103793D01*
X0115308Y0102795D02*
X0133813Y0102795D01*
X0133813Y0101796D02*
X0114732Y0101796D01*
X0114155Y0100798D02*
X0133813Y0100798D01*
X0133813Y0099799D02*
X0113579Y0099799D01*
X0112633Y0098801D02*
X0133813Y0098801D01*
X0133813Y0097802D02*
X0111635Y0097802D01*
X0110636Y0096804D02*
X0133813Y0096804D01*
X0133813Y0095805D02*
X0109306Y0095805D01*
X0107576Y0094807D02*
X0133813Y0094807D01*
X0133813Y0093808D02*
X0105778Y0093808D01*
X0102051Y0092810D02*
X0133813Y0092810D01*
X0133813Y0091811D02*
X0070306Y0091811D01*
X0072035Y0090813D02*
X0133813Y0090813D01*
X0133813Y0089814D02*
X0073765Y0089814D01*
X0074901Y0088816D02*
X0133813Y0088816D01*
X0133813Y0087817D02*
X0075899Y0087817D01*
X0076898Y0086819D02*
X0133813Y0086819D01*
X0133813Y0085820D02*
X0077732Y0085820D01*
X0078308Y0084822D02*
X0133813Y0084822D01*
X0133813Y0083823D02*
X0078885Y0083823D01*
X0079461Y0082825D02*
X0133813Y0082825D01*
X0133813Y0081826D02*
X0079976Y0081826D01*
X0080244Y0080828D02*
X0133813Y0080828D01*
X0133813Y0079829D02*
X0080512Y0079829D01*
X0080779Y0078831D02*
X0133813Y0078831D01*
X0133813Y0077832D02*
X0081047Y0077832D01*
X0081174Y0076834D02*
X0101908Y0076834D01*
X0102411Y0077042D02*
X0099802Y0075961D01*
X0097805Y0073964D01*
X0096724Y0071355D01*
X0096724Y0068530D01*
X0097805Y0065921D01*
X0099802Y0063923D01*
X0102411Y0062842D01*
X0105236Y0062842D01*
X0107845Y0063923D01*
X0109843Y0065921D01*
X0110924Y0068530D01*
X0110924Y0071355D01*
X0109843Y0073964D01*
X0107845Y0075961D01*
X0105236Y0077042D01*
X0102411Y0077042D01*
X0099676Y0075835D02*
X0081174Y0075835D01*
X0081174Y0074837D02*
X0098677Y0074837D01*
X0097752Y0073838D02*
X0081174Y0073838D01*
X0081174Y0072840D02*
X0097339Y0072840D01*
X0096925Y0071841D02*
X0080990Y0071841D01*
X0080722Y0070843D02*
X0096724Y0070843D01*
X0096724Y0069844D02*
X0080455Y0069844D01*
X0080187Y0068846D02*
X0096724Y0068846D01*
X0097007Y0067847D02*
X0079916Y0067847D01*
X0079339Y0066849D02*
X0097420Y0066849D01*
X0097875Y0065850D02*
X0078763Y0065850D01*
X0078186Y0064852D02*
X0098873Y0064852D01*
X0099971Y0063853D02*
X0077610Y0063853D01*
X0076687Y0062855D02*
X0102382Y0062855D01*
X0105265Y0062855D02*
X0116345Y0062855D01*
X0116759Y0063853D02*
X0107676Y0063853D01*
X0108774Y0064852D02*
X0117692Y0064852D01*
X0116805Y0063964D02*
X0115724Y0061355D01*
X0115724Y0058530D01*
X0116805Y0055921D01*
X0118802Y0053923D01*
X0121411Y0052842D01*
X0124236Y0052842D01*
X0126845Y0053923D01*
X0128843Y0055921D01*
X0129924Y0058530D01*
X0129924Y0061355D01*
X0128843Y0063964D01*
X0126845Y0065961D01*
X0124236Y0067042D01*
X0121411Y0067042D01*
X0118802Y0065961D01*
X0116805Y0063964D01*
X0115931Y0061856D02*
X0075688Y0061856D01*
X0074690Y0060858D02*
X0115724Y0060858D01*
X0115724Y0059859D02*
X0073398Y0059859D01*
X0071669Y0058860D02*
X0115724Y0058860D01*
X0116000Y0057862D02*
X0069940Y0057862D01*
X0066251Y0056863D02*
X0116414Y0056863D01*
X0116860Y0055865D02*
X0035871Y0055865D01*
X0036869Y0054866D02*
X0117859Y0054866D01*
X0118935Y0053868D02*
X0037868Y0053868D01*
X0034872Y0056863D02*
X0059396Y0056863D01*
X0055708Y0057862D02*
X0033874Y0057862D01*
X0032875Y0058860D02*
X0053978Y0058860D01*
X0052249Y0059859D02*
X0031877Y0059859D01*
X0030878Y0060858D02*
X0050958Y0060858D01*
X0049959Y0061856D02*
X0029880Y0061856D01*
X0028881Y0062855D02*
X0048961Y0062855D01*
X0048037Y0063853D02*
X0027883Y0063853D01*
X0026884Y0064852D02*
X0047461Y0064852D01*
X0046884Y0065850D02*
X0025886Y0065850D01*
X0024887Y0066849D02*
X0046308Y0066849D01*
X0045731Y0067847D02*
X0023889Y0067847D01*
X0022890Y0068846D02*
X0045460Y0068846D01*
X0045192Y0069844D02*
X0021892Y0069844D01*
X0020893Y0070843D02*
X0044925Y0070843D01*
X0044657Y0071841D02*
X0019895Y0071841D01*
X0018896Y0072840D02*
X0044474Y0072840D01*
X0044474Y0073838D02*
X0017898Y0073838D01*
X0016899Y0074837D02*
X0044474Y0074837D01*
X0044474Y0075835D02*
X0015901Y0075835D01*
X0014902Y0076834D02*
X0044474Y0076834D01*
X0044601Y0077832D02*
X0013904Y0077832D01*
X0012905Y0078831D02*
X0044868Y0078831D01*
X0045136Y0079829D02*
X0011907Y0079829D01*
X0010908Y0080828D02*
X0045403Y0080828D01*
X0045671Y0081826D02*
X0009910Y0081826D01*
X0008911Y0082825D02*
X0046186Y0082825D01*
X0046762Y0083823D02*
X0007913Y0083823D01*
X0006924Y0084822D02*
X0047339Y0084822D01*
X0047915Y0085820D02*
X0006924Y0085820D01*
X0006924Y0086819D02*
X0048749Y0086819D01*
X0049748Y0087817D02*
X0006924Y0087817D01*
X0006924Y0088816D02*
X0050746Y0088816D01*
X0051883Y0089814D02*
X0006924Y0089814D01*
X0006924Y0090813D02*
X0053612Y0090813D01*
X0055342Y0091811D02*
X0006924Y0091811D01*
X0006924Y0092810D02*
X0023596Y0092810D01*
X0019870Y0093808D02*
X0006924Y0093808D01*
X0006924Y0094807D02*
X0018071Y0094807D01*
X0016342Y0095805D02*
X0006924Y0095805D01*
X0006924Y0096804D02*
X0015011Y0096804D01*
X0014013Y0097802D02*
X0006924Y0097802D01*
X0006924Y0098801D02*
X0013014Y0098801D01*
X0012068Y0099799D02*
X0006924Y0099799D01*
X0006924Y0100798D02*
X0011492Y0100798D01*
X0010915Y0101796D02*
X0006924Y0101796D01*
X0006924Y0102795D02*
X0010339Y0102795D01*
X0009762Y0103793D02*
X0006924Y0103793D01*
X0006924Y0104792D02*
X0009474Y0104792D01*
X0009207Y0105791D02*
X0006924Y0105791D01*
X0006924Y0106789D02*
X0008939Y0106789D01*
X0008672Y0107788D02*
X0006924Y0107788D01*
X0006924Y0108786D02*
X0008474Y0108786D01*
X0008474Y0109785D02*
X0006924Y0109785D01*
X0006924Y0110783D02*
X0008474Y0110783D01*
X0008474Y0111782D02*
X0006924Y0111782D01*
X0006924Y0112780D02*
X0008474Y0112780D01*
X0008586Y0113779D02*
X0006924Y0113779D01*
X0006924Y0114777D02*
X0008854Y0114777D01*
X0009121Y0115776D02*
X0006924Y0115776D01*
X0006924Y0116774D02*
X0009389Y0116774D01*
X0009656Y0117773D02*
X0006924Y0117773D01*
X0006924Y0118771D02*
X0010155Y0118771D01*
X0010731Y0119770D02*
X0006924Y0119770D01*
X0006924Y0120768D02*
X0011308Y0120768D01*
X0011884Y0121767D02*
X0006924Y0121767D01*
X0006924Y0122765D02*
X0012696Y0122765D01*
X0013694Y0123764D02*
X0006924Y0123764D01*
X0006924Y0124762D02*
X0014693Y0124762D01*
X0015790Y0125761D02*
X0006924Y0125761D01*
X0006924Y0126759D02*
X0017519Y0126759D01*
X0019249Y0127758D02*
X0006924Y0127758D01*
X0006924Y0128756D02*
X0022407Y0128756D01*
X0031240Y0128756D02*
X0060796Y0128756D01*
X0057070Y0129755D02*
X0006924Y0129755D01*
X0006924Y0130753D02*
X0055164Y0130753D01*
X0053434Y0131752D02*
X0006924Y0131752D01*
X0006924Y0132750D02*
X0052065Y0132750D01*
X0051066Y0133749D02*
X0006924Y0133749D01*
X0006924Y0134747D02*
X0050068Y0134747D01*
X0049099Y0135746D02*
X0006924Y0135746D01*
X0006924Y0136744D02*
X0048523Y0136744D01*
X0047946Y0137743D02*
X0006924Y0137743D01*
X0006924Y0138741D02*
X0047370Y0138741D01*
X0046793Y0139740D02*
X0006924Y0139740D01*
X0006924Y0140738D02*
X0046489Y0140738D01*
X0046221Y0141737D02*
X0006924Y0141737D01*
X0006924Y0142735D02*
X0045954Y0142735D01*
X0045686Y0143734D02*
X0006924Y0143734D01*
X0006924Y0144732D02*
X0045474Y0144732D01*
X0045474Y0145731D02*
X0024381Y0145731D01*
X0024845Y0145923D02*
X0026843Y0147921D01*
X0027924Y0150530D01*
X0027924Y0153355D01*
X0026843Y0155964D01*
X0024845Y0157961D01*
X0022236Y0159042D01*
X0019411Y0159042D01*
X0016802Y0157961D01*
X0014805Y0155964D01*
X0013724Y0153355D01*
X0013724Y0150530D01*
X0014805Y0147921D01*
X0016802Y0145923D01*
X0019411Y0144842D01*
X0022236Y0144842D01*
X0024845Y0145923D01*
X0025652Y0146729D02*
X0045474Y0146729D01*
X0045474Y0147728D02*
X0026650Y0147728D01*
X0027177Y0148727D02*
X0045474Y0148727D01*
X0045572Y0149725D02*
X0027590Y0149725D01*
X0027924Y0150724D02*
X0045839Y0150724D01*
X0046107Y0151722D02*
X0027924Y0151722D01*
X0027924Y0152721D02*
X0046375Y0152721D01*
X0046642Y0153719D02*
X0027773Y0153719D01*
X0027359Y0154718D02*
X0047124Y0154718D01*
X0047700Y0155716D02*
X0026945Y0155716D01*
X0026092Y0156715D02*
X0048277Y0156715D01*
X0048853Y0157713D02*
X0025094Y0157713D01*
X0023034Y0158712D02*
X0049642Y0158712D01*
X0050641Y0159710D02*
X0006924Y0159710D01*
X0006924Y0158712D02*
X0018613Y0158712D01*
X0016553Y0157713D02*
X0006924Y0157713D01*
X0006924Y0156715D02*
X0015555Y0156715D01*
X0014702Y0155716D02*
X0006924Y0155716D01*
X0006924Y0154718D02*
X0014288Y0154718D01*
X0013875Y0153719D02*
X0006924Y0153719D01*
X0006924Y0152721D02*
X0013724Y0152721D01*
X0013724Y0151722D02*
X0006924Y0151722D01*
X0006924Y0150724D02*
X0013724Y0150724D01*
X0014057Y0149725D02*
X0006924Y0149725D01*
X0006924Y0148727D02*
X0014471Y0148727D01*
X0014997Y0147728D02*
X0006924Y0147728D01*
X0006924Y0146729D02*
X0015996Y0146729D01*
X0017266Y0145731D02*
X0006924Y0145731D01*
X0006924Y0160709D02*
X0051639Y0160709D01*
X0052697Y0161707D02*
X0006924Y0161707D01*
X0006924Y0162706D02*
X0054426Y0162706D01*
X0056156Y0163704D02*
X0006924Y0163704D01*
X0006924Y0164703D02*
X0059207Y0164703D01*
X0060924Y0165701D02*
X0006924Y0165701D01*
X0006924Y0166700D02*
X0060924Y0166700D01*
X0060924Y0167698D02*
X0018302Y0167698D01*
X0018845Y0167923D02*
X0020843Y0169921D01*
X0021924Y0172530D01*
X0021924Y0175355D01*
X0020843Y0177964D01*
X0018845Y0179961D01*
X0016236Y0181042D01*
X0013411Y0181042D01*
X0010802Y0179961D01*
X0008805Y0177964D01*
X0007724Y0175355D01*
X0007724Y0172530D01*
X0008805Y0169921D01*
X0010802Y0167923D01*
X0013411Y0166842D01*
X0016236Y0166842D01*
X0018845Y0167923D01*
X0019619Y0168697D02*
X0060924Y0168697D01*
X0060924Y0169695D02*
X0020617Y0169695D01*
X0021163Y0170694D02*
X0060924Y0170694D01*
X0060924Y0171692D02*
X0021577Y0171692D01*
X0021924Y0172691D02*
X0060924Y0172691D01*
X0060924Y0173689D02*
X0021924Y0173689D01*
X0021924Y0174688D02*
X0061310Y0174688D01*
X0062230Y0175686D02*
X0021786Y0175686D01*
X0021373Y0176685D02*
X0063229Y0176685D01*
X0064227Y0177683D02*
X0020959Y0177683D01*
X0020125Y0178682D02*
X0065226Y0178682D01*
X0066224Y0179680D02*
X0019127Y0179680D01*
X0017113Y0180679D02*
X0067223Y0180679D01*
X0068221Y0181677D02*
X0006924Y0181677D01*
X0006924Y0180679D02*
X0012534Y0180679D01*
X0010521Y0179680D02*
X0006924Y0179680D01*
X0006924Y0178682D02*
X0009522Y0178682D01*
X0008688Y0177683D02*
X0006924Y0177683D01*
X0006924Y0176685D02*
X0008275Y0176685D01*
X0007861Y0175686D02*
X0006924Y0175686D01*
X0006924Y0174688D02*
X0007724Y0174688D01*
X0007724Y0173689D02*
X0006924Y0173689D01*
X0006924Y0172691D02*
X0007724Y0172691D01*
X0008071Y0171692D02*
X0006924Y0171692D01*
X0006924Y0170694D02*
X0008484Y0170694D01*
X0009030Y0169695D02*
X0006924Y0169695D01*
X0006924Y0168697D02*
X0010028Y0168697D01*
X0011345Y0167698D02*
X0006924Y0167698D01*
X0006924Y0182676D02*
X0069220Y0182676D01*
X0070218Y0183674D02*
X0006924Y0183674D01*
X0006924Y0184673D02*
X0071217Y0184673D01*
X0072215Y0185671D02*
X0006924Y0185671D01*
X0006924Y0186670D02*
X0073214Y0186670D01*
X0074212Y0187668D02*
X0006924Y0187668D01*
X0006924Y0188667D02*
X0075211Y0188667D01*
X0076209Y0189665D02*
X0006924Y0189665D01*
X0006924Y0190664D02*
X0077208Y0190664D01*
X0080828Y0186082D02*
X0100876Y0186082D01*
X0099552Y0185533D01*
X0098678Y0184659D01*
X0098651Y0184758D01*
X0098454Y0185100D01*
X0098175Y0185380D01*
X0097833Y0185577D01*
X0097451Y0185679D01*
X0094854Y0185679D01*
X0094854Y0181779D01*
X0094054Y0181779D01*
X0094053Y0181779D02*
X0094053Y0180979D01*
X0090154Y0180979D01*
X0090154Y0178382D01*
X0090256Y0178000D01*
X0090453Y0177658D01*
X0090733Y0177379D01*
X0091075Y0177182D01*
X0091456Y0177079D01*
X0094054Y0177079D01*
X0094054Y0180979D01*
X0094854Y0180979D01*
X0094854Y0177079D01*
X0097451Y0177079D01*
X0097833Y0177182D01*
X0098175Y0177379D01*
X0098454Y0177658D01*
X0098651Y0178000D01*
X0098678Y0178099D01*
X0099428Y0177350D01*
X0099428Y0157766D01*
X0080106Y0138444D01*
X0080923Y0139860D01*
X0082174Y0144527D01*
X0082174Y0149358D01*
X0080923Y0154025D01*
X0078507Y0158210D01*
X0075091Y0161626D01*
X0070906Y0164042D01*
X0066724Y0165163D01*
X0066724Y0171977D01*
X0080828Y0186082D01*
X0080418Y0185671D02*
X0091426Y0185671D01*
X0091456Y0185679D02*
X0091075Y0185577D01*
X0090733Y0185380D01*
X0090453Y0185100D01*
X0090256Y0184758D01*
X0090154Y0184377D01*
X0090154Y0181779D01*
X0094053Y0181779D01*
X0094054Y0181779D02*
X0094054Y0185679D01*
X0091456Y0185679D01*
X0090233Y0184673D02*
X0079419Y0184673D01*
X0078421Y0183674D02*
X0090154Y0183674D01*
X0090154Y0182676D02*
X0077422Y0182676D01*
X0076424Y0181677D02*
X0094053Y0181677D01*
X0094054Y0180679D02*
X0094854Y0180679D01*
X0094854Y0179680D02*
X0094054Y0179680D01*
X0094054Y0178682D02*
X0094854Y0178682D01*
X0094854Y0177683D02*
X0094054Y0177683D01*
X0090439Y0177683D02*
X0072430Y0177683D01*
X0073428Y0178682D02*
X0090154Y0178682D01*
X0090154Y0179680D02*
X0074427Y0179680D01*
X0075425Y0180679D02*
X0090154Y0180679D01*
X0094054Y0182676D02*
X0094854Y0182676D01*
X0094854Y0183674D02*
X0094054Y0183674D01*
X0094054Y0184673D02*
X0094854Y0184673D01*
X0094854Y0185671D02*
X0094054Y0185671D01*
X0097481Y0185671D02*
X0099885Y0185671D01*
X0098691Y0184673D02*
X0098674Y0184673D01*
X0098468Y0177683D02*
X0099094Y0177683D01*
X0099428Y0176685D02*
X0071431Y0176685D01*
X0070433Y0175686D02*
X0099428Y0175686D01*
X0099428Y0174688D02*
X0069434Y0174688D01*
X0068436Y0173689D02*
X0099428Y0173689D01*
X0099428Y0172691D02*
X0067437Y0172691D01*
X0066724Y0171692D02*
X0099428Y0171692D01*
X0099428Y0170694D02*
X0066724Y0170694D01*
X0066724Y0169695D02*
X0099428Y0169695D01*
X0099428Y0168697D02*
X0066724Y0168697D01*
X0066724Y0167698D02*
X0099428Y0167698D01*
X0099428Y0166700D02*
X0066724Y0166700D01*
X0066724Y0165701D02*
X0099428Y0165701D01*
X0099428Y0164703D02*
X0068440Y0164703D01*
X0071491Y0163704D02*
X0099428Y0163704D01*
X0099428Y0162706D02*
X0073221Y0162706D01*
X0074950Y0161707D02*
X0099428Y0161707D01*
X0099428Y0160709D02*
X0076008Y0160709D01*
X0077007Y0159710D02*
X0099428Y0159710D01*
X0099428Y0158712D02*
X0078005Y0158712D01*
X0078794Y0157713D02*
X0099375Y0157713D01*
X0098377Y0156715D02*
X0079370Y0156715D01*
X0079947Y0155716D02*
X0097378Y0155716D01*
X0096380Y0154718D02*
X0080523Y0154718D01*
X0081005Y0153719D02*
X0095381Y0153719D01*
X0094382Y0152721D02*
X0081273Y0152721D01*
X0081540Y0151722D02*
X0093384Y0151722D01*
X0092385Y0150724D02*
X0081808Y0150724D01*
X0082075Y0149725D02*
X0091387Y0149725D01*
X0090388Y0148727D02*
X0082174Y0148727D01*
X0082174Y0147728D02*
X0089390Y0147728D01*
X0088391Y0146729D02*
X0082174Y0146729D01*
X0082174Y0145731D02*
X0087393Y0145731D01*
X0086394Y0144732D02*
X0082174Y0144732D01*
X0081961Y0143734D02*
X0085396Y0143734D01*
X0084397Y0142735D02*
X0081694Y0142735D01*
X0081426Y0141737D02*
X0083399Y0141737D01*
X0082400Y0140738D02*
X0081159Y0140738D01*
X0081402Y0139740D02*
X0080854Y0139740D01*
X0080403Y0138741D02*
X0080278Y0138741D01*
X0084612Y0134747D02*
X0088220Y0134747D01*
X0087222Y0133749D02*
X0083613Y0133749D01*
X0082615Y0132750D02*
X0086223Y0132750D01*
X0085225Y0131752D02*
X0081616Y0131752D01*
X0080618Y0130753D02*
X0084226Y0130753D01*
X0083228Y0129755D02*
X0079619Y0129755D01*
X0078621Y0128756D02*
X0082229Y0128756D01*
X0081231Y0127758D02*
X0077622Y0127758D01*
X0076624Y0126759D02*
X0080232Y0126759D01*
X0079234Y0125761D02*
X0075625Y0125761D01*
X0074627Y0124762D02*
X0078235Y0124762D01*
X0077237Y0123764D02*
X0073628Y0123764D01*
X0072630Y0122765D02*
X0076238Y0122765D01*
X0075240Y0121767D02*
X0071631Y0121767D01*
X0070633Y0120768D02*
X0074241Y0120768D01*
X0073243Y0119770D02*
X0069634Y0119770D01*
X0068636Y0118771D02*
X0072244Y0118771D01*
X0071246Y0117773D02*
X0067637Y0117773D01*
X0066638Y0116774D02*
X0070247Y0116774D01*
X0069249Y0115776D02*
X0065640Y0115776D01*
X0064641Y0114777D02*
X0068250Y0114777D01*
X0067252Y0113779D02*
X0063643Y0113779D01*
X0062644Y0112780D02*
X0066253Y0112780D01*
X0065255Y0111782D02*
X0061646Y0111782D01*
X0060647Y0110783D02*
X0064256Y0110783D01*
X0063258Y0109785D02*
X0059649Y0109785D01*
X0058650Y0108786D02*
X0062259Y0108786D01*
X0061260Y0107788D02*
X0044976Y0107788D01*
X0044708Y0106789D02*
X0060322Y0106789D01*
X0059924Y0105791D02*
X0044440Y0105791D01*
X0044173Y0104792D02*
X0059924Y0104792D01*
X0059924Y0103793D02*
X0043885Y0103793D01*
X0043308Y0102795D02*
X0059924Y0102795D01*
X0059924Y0101796D02*
X0042732Y0101796D01*
X0042155Y0100798D02*
X0059924Y0100798D01*
X0059924Y0099799D02*
X0041579Y0099799D01*
X0040633Y0098801D02*
X0059924Y0098801D01*
X0059924Y0097802D02*
X0039635Y0097802D01*
X0038636Y0096804D02*
X0059924Y0096804D01*
X0059924Y0095805D02*
X0037306Y0095805D01*
X0035576Y0094807D02*
X0059924Y0094807D01*
X0059924Y0093808D02*
X0033778Y0093808D01*
X0030051Y0092810D02*
X0058607Y0092810D01*
X0065724Y0093808D02*
X0091870Y0093808D01*
X0090071Y0094807D02*
X0065724Y0094807D01*
X0065724Y0095805D02*
X0088342Y0095805D01*
X0087011Y0096804D02*
X0065724Y0096804D01*
X0065724Y0097802D02*
X0086013Y0097802D01*
X0085014Y0098801D02*
X0065724Y0098801D01*
X0065724Y0099799D02*
X0084068Y0099799D01*
X0083492Y0100798D02*
X0065724Y0100798D01*
X0065724Y0101796D02*
X0082915Y0101796D01*
X0082339Y0102795D02*
X0065724Y0102795D01*
X0065724Y0103793D02*
X0081762Y0103793D01*
X0081474Y0104792D02*
X0066467Y0104792D01*
X0067466Y0105791D02*
X0081207Y0105791D01*
X0080939Y0106789D02*
X0068464Y0106789D01*
X0069463Y0107788D02*
X0080672Y0107788D01*
X0080474Y0108786D02*
X0070461Y0108786D01*
X0071460Y0109785D02*
X0080474Y0109785D01*
X0080474Y0110783D02*
X0072458Y0110783D01*
X0073457Y0111782D02*
X0080474Y0111782D01*
X0080474Y0112780D02*
X0074455Y0112780D01*
X0075454Y0113779D02*
X0080586Y0113779D01*
X0080854Y0114777D02*
X0076453Y0114777D01*
X0077451Y0115776D02*
X0081121Y0115776D01*
X0081389Y0116774D02*
X0078450Y0116774D01*
X0079448Y0117773D02*
X0081656Y0117773D01*
X0082155Y0118771D02*
X0080447Y0118771D01*
X0081445Y0119770D02*
X0082731Y0119770D01*
X0082444Y0120768D02*
X0083308Y0120768D01*
X0083442Y0121767D02*
X0083884Y0121767D01*
X0084441Y0122765D02*
X0084696Y0122765D01*
X0085439Y0123764D02*
X0085694Y0123764D01*
X0086438Y0124762D02*
X0086693Y0124762D01*
X0087436Y0125761D02*
X0087790Y0125761D01*
X0088435Y0126759D02*
X0089519Y0126759D01*
X0089433Y0127758D02*
X0091249Y0127758D01*
X0090432Y0128756D02*
X0094407Y0128756D01*
X0092429Y0130753D02*
X0112160Y0130753D01*
X0112160Y0129755D02*
X0091430Y0129755D01*
X0093427Y0131752D02*
X0112160Y0131752D01*
X0112160Y0132750D02*
X0094426Y0132750D01*
X0095424Y0133749D02*
X0112160Y0133749D01*
X0112160Y0134747D02*
X0096423Y0134747D01*
X0097421Y0135746D02*
X0112160Y0135746D01*
X0112160Y0136744D02*
X0098420Y0136744D01*
X0099418Y0137743D02*
X0112160Y0137743D01*
X0112160Y0138741D02*
X0100417Y0138741D01*
X0101415Y0139740D02*
X0112160Y0139740D01*
X0112160Y0140738D02*
X0102414Y0140738D01*
X0103412Y0141737D02*
X0112160Y0141737D01*
X0112160Y0142735D02*
X0104411Y0142735D01*
X0105409Y0143734D02*
X0112160Y0143734D01*
X0112160Y0144732D02*
X0106408Y0144732D01*
X0107406Y0145731D02*
X0112160Y0145731D01*
X0112160Y0146729D02*
X0108405Y0146729D01*
X0109403Y0147728D02*
X0112160Y0147728D01*
X0112160Y0148727D02*
X0109958Y0148727D01*
X0110086Y0149725D02*
X0112160Y0149725D01*
X0112160Y0150724D02*
X0110086Y0150724D01*
X0110086Y0151722D02*
X0112160Y0151722D01*
X0112160Y0152721D02*
X0110086Y0152721D01*
X0110086Y0153719D02*
X0112160Y0153719D01*
X0112405Y0154718D02*
X0110086Y0154718D01*
X0110086Y0155716D02*
X0113126Y0155716D01*
X0114125Y0156715D02*
X0110516Y0156715D01*
X0111514Y0157713D02*
X0115123Y0157713D01*
X0116122Y0158712D02*
X0112513Y0158712D01*
X0113512Y0159710D02*
X0117120Y0159710D01*
X0118119Y0160709D02*
X0114510Y0160709D01*
X0115509Y0161707D02*
X0119117Y0161707D01*
X0120116Y0162706D02*
X0116507Y0162706D01*
X0117506Y0163704D02*
X0121114Y0163704D01*
X0122113Y0164703D02*
X0118504Y0164703D01*
X0119503Y0165701D02*
X0123050Y0165701D01*
X0123050Y0166700D02*
X0120501Y0166700D01*
X0120934Y0167698D02*
X0123050Y0167698D01*
X0123050Y0168697D02*
X0120976Y0168697D01*
X0120976Y0169695D02*
X0123050Y0169695D01*
X0123050Y0170694D02*
X0120976Y0170694D01*
X0120976Y0171692D02*
X0123050Y0171692D01*
X0123050Y0172691D02*
X0120976Y0172691D01*
X0120976Y0173689D02*
X0123050Y0173689D01*
X0123050Y0174688D02*
X0120976Y0174688D01*
X0120976Y0175686D02*
X0123050Y0175686D01*
X0123050Y0176685D02*
X0120976Y0176685D01*
X0121309Y0177683D02*
X0122716Y0177683D01*
X0128850Y0176685D02*
X0130924Y0176685D01*
X0130924Y0175686D02*
X0128850Y0175686D01*
X0128850Y0174688D02*
X0130924Y0174688D01*
X0130924Y0173689D02*
X0128850Y0173689D01*
X0128850Y0172691D02*
X0131291Y0172691D01*
X0132181Y0171696D02*
X0132181Y0171696D01*
X0132185Y0171692D02*
X0128850Y0171692D01*
X0128850Y0170694D02*
X0133184Y0170694D01*
X0133813Y0169695D02*
X0128850Y0169695D01*
X0128850Y0168697D02*
X0133813Y0168697D01*
X0144598Y0171692D02*
X0162420Y0171692D01*
X0162420Y0170694D02*
X0145323Y0170694D01*
X0146322Y0169695D02*
X0162420Y0169695D01*
X0162420Y0168697D02*
X0147320Y0168697D01*
X0148319Y0167698D02*
X0162420Y0167698D01*
X0162420Y0166700D02*
X0149317Y0166700D01*
X0150316Y0165701D02*
X0162420Y0165701D01*
X0162420Y0164703D02*
X0151314Y0164703D01*
X0152313Y0163704D02*
X0162420Y0163704D01*
X0162420Y0162706D02*
X0153100Y0162706D01*
X0153393Y0161707D02*
X0162420Y0161707D01*
X0162420Y0160709D02*
X0153393Y0160709D01*
X0153393Y0159710D02*
X0162420Y0159710D01*
X0162420Y0158712D02*
X0153393Y0158712D01*
X0153393Y0157713D02*
X0162420Y0157713D01*
X0162420Y0156715D02*
X0153393Y0156715D01*
X0153393Y0155716D02*
X0162420Y0155716D01*
X0162420Y0154718D02*
X0153393Y0154718D01*
X0153393Y0153719D02*
X0162420Y0153719D01*
X0162420Y0152721D02*
X0153393Y0152721D01*
X0153393Y0151722D02*
X0162420Y0151722D01*
X0162420Y0150724D02*
X0153393Y0150724D01*
X0153393Y0149725D02*
X0162420Y0149725D01*
X0162420Y0148727D02*
X0153393Y0148727D01*
X0153393Y0147728D02*
X0162420Y0147728D01*
X0162420Y0146729D02*
X0153393Y0146729D01*
X0153393Y0145731D02*
X0162420Y0145731D01*
X0162420Y0144732D02*
X0153393Y0144732D01*
X0153393Y0143734D02*
X0162420Y0143734D01*
X0162420Y0142735D02*
X0153393Y0142735D01*
X0153393Y0141737D02*
X0162420Y0141737D01*
X0162420Y0140738D02*
X0153393Y0140738D01*
X0153393Y0139740D02*
X0162420Y0139740D01*
X0162420Y0138741D02*
X0153393Y0138741D01*
X0153393Y0137743D02*
X0162420Y0137743D01*
X0162420Y0136744D02*
X0153393Y0136744D01*
X0153393Y0135746D02*
X0162420Y0135746D01*
X0162420Y0134747D02*
X0153393Y0134747D01*
X0153393Y0133749D02*
X0162610Y0133749D01*
X0163253Y0132750D02*
X0153393Y0132750D01*
X0153393Y0131752D02*
X0164252Y0131752D01*
X0165250Y0130753D02*
X0153393Y0130753D01*
X0153393Y0129755D02*
X0166249Y0129755D01*
X0167247Y0128756D02*
X0153393Y0128756D01*
X0153393Y0127758D02*
X0168246Y0127758D01*
X0169244Y0126759D02*
X0153393Y0126759D01*
X0153393Y0125761D02*
X0170243Y0125761D01*
X0171241Y0124762D02*
X0153393Y0124762D01*
X0153393Y0123764D02*
X0172240Y0123764D01*
X0173238Y0122765D02*
X0153393Y0122765D01*
X0153393Y0121767D02*
X0174237Y0121767D01*
X0176448Y0127758D02*
X0180057Y0127758D01*
X0179058Y0128756D02*
X0175449Y0128756D01*
X0174451Y0129755D02*
X0178060Y0129755D01*
X0177061Y0130753D02*
X0173452Y0130753D01*
X0172454Y0131752D02*
X0176063Y0131752D01*
X0175064Y0132750D02*
X0171455Y0132750D01*
X0170457Y0133749D02*
X0174066Y0133749D01*
X0173067Y0134747D02*
X0169458Y0134747D01*
X0168460Y0135746D02*
X0172069Y0135746D01*
X0171070Y0136744D02*
X0168220Y0136744D01*
X0168220Y0137743D02*
X0170460Y0137743D01*
X0170294Y0138741D02*
X0168220Y0138741D01*
X0168220Y0139740D02*
X0170294Y0139740D01*
X0170294Y0140738D02*
X0168220Y0140738D01*
X0168220Y0141737D02*
X0170294Y0141737D01*
X0170294Y0142735D02*
X0168220Y0142735D01*
X0168220Y0143734D02*
X0170294Y0143734D01*
X0170294Y0144732D02*
X0168220Y0144732D01*
X0168220Y0145731D02*
X0170294Y0145731D01*
X0170294Y0146729D02*
X0168220Y0146729D01*
X0168220Y0147728D02*
X0170294Y0147728D01*
X0170294Y0148727D02*
X0168220Y0148727D01*
X0168220Y0149725D02*
X0170294Y0149725D01*
X0170294Y0150724D02*
X0168220Y0150724D01*
X0168220Y0151722D02*
X0170294Y0151722D01*
X0170294Y0152721D02*
X0168220Y0152721D01*
X0168220Y0153719D02*
X0170294Y0153719D01*
X0170294Y0154718D02*
X0168220Y0154718D01*
X0168220Y0155716D02*
X0170294Y0155716D01*
X0170294Y0156715D02*
X0168220Y0156715D01*
X0168220Y0157713D02*
X0170294Y0157713D01*
X0170294Y0158712D02*
X0168220Y0158712D01*
X0168220Y0159710D02*
X0170294Y0159710D01*
X0170294Y0160709D02*
X0168220Y0160709D01*
X0168220Y0161707D02*
X0170294Y0161707D01*
X0170294Y0162706D02*
X0168220Y0162706D01*
X0168220Y0163704D02*
X0170294Y0163704D01*
X0170294Y0164703D02*
X0168220Y0164703D01*
X0168220Y0165701D02*
X0170294Y0165701D01*
X0170294Y0166700D02*
X0168220Y0166700D01*
X0168220Y0167698D02*
X0170294Y0167698D01*
X0170294Y0168697D02*
X0168220Y0168697D01*
X0168220Y0169695D02*
X0170294Y0169695D01*
X0170294Y0170694D02*
X0168220Y0170694D01*
X0168220Y0171692D02*
X0170294Y0171692D01*
X0170294Y0172691D02*
X0168220Y0172691D01*
X0168220Y0173689D02*
X0170294Y0173689D01*
X0170294Y0174688D02*
X0168220Y0174688D01*
X0168220Y0175686D02*
X0170294Y0175686D01*
X0170294Y0176685D02*
X0168220Y0176685D01*
X0168553Y0177683D02*
X0169960Y0177683D01*
X0176094Y0176685D02*
X0201753Y0176685D01*
X0203482Y0177683D02*
X0176427Y0177683D01*
X0177380Y0178682D02*
X0206696Y0178682D01*
X0208109Y0179680D02*
X0177794Y0179680D01*
X0178094Y0180679D02*
X0208109Y0180679D01*
X0208109Y0181677D02*
X0178094Y0181677D01*
X0177960Y0182676D02*
X0207816Y0182676D01*
X0206817Y0183674D02*
X0177547Y0183674D01*
X0176830Y0184673D02*
X0205819Y0184673D01*
X0204820Y0185671D02*
X0175636Y0185671D01*
X0176094Y0175686D02*
X0200023Y0175686D01*
X0198906Y0174688D02*
X0176094Y0174688D01*
X0176094Y0173689D02*
X0197907Y0173689D01*
X0196909Y0172691D02*
X0176094Y0172691D01*
X0176094Y0171692D02*
X0196085Y0171692D01*
X0195509Y0170694D02*
X0176094Y0170694D01*
X0176094Y0169695D02*
X0194932Y0169695D01*
X0194356Y0168697D02*
X0176094Y0168697D01*
X0176094Y0167698D02*
X0193849Y0167698D01*
X0193581Y0166700D02*
X0176094Y0166700D01*
X0176094Y0165701D02*
X0193314Y0165701D01*
X0193046Y0164703D02*
X0176094Y0164703D01*
X0176094Y0163704D02*
X0192779Y0163704D01*
X0192659Y0162706D02*
X0176094Y0162706D01*
X0176094Y0161707D02*
X0192659Y0161707D01*
X0192659Y0160709D02*
X0176094Y0160709D01*
X0176094Y0159710D02*
X0192659Y0159710D01*
X0192659Y0158712D02*
X0176094Y0158712D01*
X0176094Y0157713D02*
X0192849Y0157713D01*
X0193117Y0156715D02*
X0176094Y0156715D01*
X0176094Y0155716D02*
X0193384Y0155716D01*
X0193652Y0154718D02*
X0176094Y0154718D01*
X0176094Y0153719D02*
X0193931Y0153719D01*
X0194508Y0152721D02*
X0176094Y0152721D01*
X0176094Y0151722D02*
X0195084Y0151722D01*
X0195661Y0150724D02*
X0176094Y0150724D01*
X0176094Y0149725D02*
X0196237Y0149725D01*
X0197171Y0148727D02*
X0176094Y0148727D01*
X0176094Y0147728D02*
X0198170Y0147728D01*
X0199168Y0146729D02*
X0176094Y0146729D01*
X0176094Y0145731D02*
X0200478Y0145731D01*
X0202208Y0144732D02*
X0176094Y0144732D01*
X0176094Y0143734D02*
X0203950Y0143734D01*
X0207677Y0142735D02*
X0176094Y0142735D01*
X0176094Y0141737D02*
X0229068Y0141737D01*
X0228070Y0140738D02*
X0176094Y0140738D01*
X0176277Y0139740D02*
X0227071Y0139740D01*
X0226073Y0138741D02*
X0177275Y0138741D01*
X0178274Y0137743D02*
X0225074Y0137743D01*
X0224076Y0136744D02*
X0179272Y0136744D01*
X0180271Y0135746D02*
X0223077Y0135746D01*
X0222079Y0134747D02*
X0181269Y0134747D01*
X0182268Y0133749D02*
X0221080Y0133749D01*
X0214340Y0142735D02*
X0230067Y0142735D01*
X0231065Y0143734D02*
X0218067Y0143734D01*
X0219810Y0144732D02*
X0232064Y0144732D01*
X0233062Y0145731D02*
X0221539Y0145731D01*
X0222849Y0146729D02*
X0234061Y0146729D01*
X0235059Y0147728D02*
X0223847Y0147728D01*
X0224846Y0148727D02*
X0322724Y0148727D01*
X0322724Y0149725D02*
X0225780Y0149725D01*
X0226357Y0150724D02*
X0322724Y0150724D01*
X0322724Y0151722D02*
X0226933Y0151722D01*
X0227510Y0152721D02*
X0322724Y0152721D01*
X0322724Y0153719D02*
X0228086Y0153719D01*
X0228365Y0154718D02*
X0322724Y0154718D01*
X0322724Y0155716D02*
X0228633Y0155716D01*
X0228901Y0156715D02*
X0322724Y0156715D01*
X0322724Y0157713D02*
X0229168Y0157713D01*
X0229359Y0158712D02*
X0322724Y0158712D01*
X0322724Y0159710D02*
X0229359Y0159710D01*
X0229359Y0160709D02*
X0322724Y0160709D01*
X0322724Y0161707D02*
X0229359Y0161707D01*
X0229359Y0162706D02*
X0322724Y0162706D01*
X0322724Y0163704D02*
X0229239Y0163704D01*
X0228971Y0164703D02*
X0310334Y0164703D01*
X0309802Y0164923D02*
X0307805Y0166921D01*
X0306724Y0169530D01*
X0306724Y0172355D01*
X0307805Y0174964D01*
X0309802Y0176961D01*
X0312411Y0178042D01*
X0315236Y0178042D01*
X0317845Y0176961D01*
X0319843Y0174964D01*
X0320924Y0172355D01*
X0320924Y0169530D01*
X0319843Y0166921D01*
X0317845Y0164923D01*
X0315236Y0163842D01*
X0312411Y0163842D01*
X0309802Y0164923D01*
X0309024Y0165701D02*
X0228703Y0165701D01*
X0228436Y0166700D02*
X0308025Y0166700D01*
X0307482Y0167698D02*
X0228168Y0167698D01*
X0227661Y0168697D02*
X0307069Y0168697D01*
X0306724Y0169695D02*
X0271190Y0169695D01*
X0274917Y0170694D02*
X0306724Y0170694D01*
X0306724Y0171692D02*
X0276740Y0171692D01*
X0278469Y0172691D02*
X0306863Y0172691D01*
X0307276Y0173689D02*
X0279809Y0173689D01*
X0280807Y0174688D02*
X0307690Y0174688D01*
X0308527Y0175686D02*
X0281806Y0175686D01*
X0282757Y0176685D02*
X0309525Y0176685D01*
X0311545Y0177683D02*
X0283333Y0177683D01*
X0283910Y0178682D02*
X0322724Y0178682D01*
X0322724Y0179680D02*
X0284486Y0179680D01*
X0285063Y0180679D02*
X0322724Y0180679D01*
X0322724Y0181677D02*
X0285355Y0181677D01*
X0285622Y0182676D02*
X0322724Y0182676D01*
X0322724Y0183674D02*
X0285890Y0183674D01*
X0286157Y0184673D02*
X0322724Y0184673D01*
X0322724Y0185671D02*
X0286359Y0185671D01*
X0286359Y0186670D02*
X0322724Y0186670D01*
X0322724Y0187668D02*
X0286359Y0187668D01*
X0286359Y0188667D02*
X0322724Y0188667D01*
X0322724Y0189665D02*
X0286359Y0189665D01*
X0286249Y0190664D02*
X0322724Y0190664D01*
X0322724Y0191662D02*
X0285982Y0191662D01*
X0285714Y0192661D02*
X0322724Y0192661D01*
X0322724Y0193660D02*
X0285447Y0193660D01*
X0285179Y0194658D02*
X0322724Y0194658D01*
X0322724Y0195657D02*
X0284685Y0195657D01*
X0284108Y0196655D02*
X0322724Y0196655D01*
X0322724Y0197654D02*
X0283532Y0197654D01*
X0282955Y0198652D02*
X0322724Y0198652D01*
X0322724Y0199651D02*
X0282149Y0199651D01*
X0281150Y0200649D02*
X0322724Y0200649D01*
X0322724Y0201648D02*
X0280152Y0201648D01*
X0279064Y0202646D02*
X0322724Y0202646D01*
X0322724Y0203645D02*
X0277334Y0203645D01*
X0275605Y0204643D02*
X0322724Y0204643D01*
X0322724Y0205642D02*
X0272471Y0205642D01*
X0268825Y0206640D02*
X0322724Y0206640D01*
X0322724Y0177683D02*
X0316103Y0177683D01*
X0318122Y0176685D02*
X0322724Y0176685D01*
X0322724Y0175686D02*
X0319121Y0175686D01*
X0319957Y0174688D02*
X0322724Y0174688D01*
X0322724Y0173689D02*
X0320371Y0173689D01*
X0320784Y0172691D02*
X0322724Y0172691D01*
X0322724Y0171692D02*
X0320924Y0171692D01*
X0320924Y0170694D02*
X0322724Y0170694D01*
X0322724Y0169695D02*
X0320924Y0169695D01*
X0320578Y0168697D02*
X0322724Y0168697D01*
X0322724Y0167698D02*
X0320165Y0167698D01*
X0319622Y0166700D02*
X0322724Y0166700D01*
X0322724Y0165701D02*
X0318623Y0165701D01*
X0317313Y0164703D02*
X0322724Y0164703D01*
X0264827Y0169695D02*
X0227085Y0169695D01*
X0226508Y0170694D02*
X0261100Y0170694D01*
X0259277Y0171692D02*
X0225932Y0171692D01*
X0225109Y0172691D02*
X0257548Y0172691D01*
X0256209Y0173689D02*
X0224110Y0173689D01*
X0223112Y0174688D02*
X0255210Y0174688D01*
X0254212Y0175686D02*
X0221994Y0175686D01*
X0220265Y0176685D02*
X0253260Y0176685D01*
X0252684Y0177683D02*
X0218535Y0177683D01*
X0215321Y0178682D02*
X0252107Y0178682D01*
X0251531Y0179680D02*
X0213909Y0179680D01*
X0213909Y0180679D02*
X0250954Y0180679D01*
X0250663Y0181677D02*
X0213909Y0181677D01*
X0213909Y0182676D02*
X0250395Y0182676D01*
X0250127Y0183674D02*
X0213909Y0183674D01*
X0213697Y0184673D02*
X0249860Y0184673D01*
X0249659Y0185671D02*
X0213023Y0185671D01*
X0212024Y0186670D02*
X0249659Y0186670D01*
X0249659Y0187668D02*
X0211026Y0187668D01*
X0210027Y0188667D02*
X0249659Y0188667D01*
X0249659Y0189665D02*
X0209028Y0189665D01*
X0208030Y0190664D02*
X0249768Y0190664D01*
X0250036Y0191662D02*
X0206717Y0191662D01*
X0235045Y0192661D02*
X0250303Y0192661D01*
X0250571Y0193660D02*
X0236227Y0193660D01*
X0237425Y0194658D02*
X0250838Y0194658D01*
X0251333Y0195657D02*
X0238623Y0195657D01*
X0239821Y0196655D02*
X0251909Y0196655D01*
X0252486Y0197654D02*
X0241020Y0197654D01*
X0242218Y0198652D02*
X0253062Y0198652D01*
X0253868Y0199651D02*
X0243416Y0199651D01*
X0244614Y0200649D02*
X0254867Y0200649D01*
X0255865Y0201648D02*
X0245812Y0201648D01*
X0162420Y0176685D02*
X0158916Y0176685D01*
X0160679Y0177683D02*
X0162086Y0177683D01*
X0162420Y0175686D02*
X0144598Y0175686D01*
X0144598Y0174688D02*
X0162420Y0174688D01*
X0162420Y0173689D02*
X0144598Y0173689D01*
X0144598Y0172691D02*
X0162420Y0172691D01*
X0155975Y0176685D02*
X0151042Y0176685D01*
X0152805Y0177683D02*
X0154212Y0177683D01*
X0148101Y0176685D02*
X0144598Y0176685D01*
X0144931Y0177683D02*
X0146338Y0177683D01*
X0153208Y0184673D02*
X0153810Y0184673D01*
X0154546Y0185671D02*
X0152472Y0185671D01*
X0152472Y0186670D02*
X0154546Y0186670D01*
X0154960Y0187668D02*
X0153281Y0187668D01*
X0154279Y0188667D02*
X0155919Y0188667D01*
X0155278Y0189665D02*
X0156918Y0189665D01*
X0156276Y0190664D02*
X0157916Y0190664D01*
X0157275Y0191662D02*
X0159229Y0191662D01*
X0130590Y0177683D02*
X0129183Y0177683D01*
X0127020Y0154718D02*
X0133813Y0154718D01*
X0133813Y0153719D02*
X0129088Y0153719D01*
X0130086Y0152721D02*
X0133813Y0152721D01*
X0133813Y0151722D02*
X0130943Y0151722D01*
X0131357Y0150724D02*
X0133813Y0150724D01*
X0133813Y0149725D02*
X0131770Y0149725D01*
X0131924Y0148727D02*
X0133813Y0148727D01*
X0133813Y0147728D02*
X0131924Y0147728D01*
X0131924Y0146729D02*
X0133813Y0146729D01*
X0133813Y0145731D02*
X0131593Y0145731D01*
X0131179Y0144732D02*
X0133813Y0144732D01*
X0133813Y0143734D02*
X0130656Y0143734D01*
X0129658Y0142735D02*
X0133813Y0142735D01*
X0133813Y0141737D02*
X0128396Y0141737D01*
X0112160Y0128756D02*
X0103240Y0128756D01*
X0106398Y0127758D02*
X0112160Y0127758D01*
X0112160Y0126759D02*
X0108128Y0126759D01*
X0109857Y0125761D02*
X0112160Y0125761D01*
X0112160Y0124762D02*
X0110955Y0124762D01*
X0111953Y0123764D02*
X0112160Y0123764D01*
X0093213Y0139740D02*
X0089604Y0139740D01*
X0088606Y0138741D02*
X0092214Y0138741D01*
X0091216Y0137743D02*
X0087607Y0137743D01*
X0086609Y0136744D02*
X0090217Y0136744D01*
X0089219Y0135746D02*
X0085610Y0135746D01*
X0090603Y0140738D02*
X0094211Y0140738D01*
X0095210Y0141737D02*
X0091601Y0141737D01*
X0092600Y0142735D02*
X0096208Y0142735D01*
X0097207Y0143734D02*
X0093598Y0143734D01*
X0094597Y0144732D02*
X0098205Y0144732D01*
X0099204Y0145731D02*
X0095595Y0145731D01*
X0096594Y0146729D02*
X0100202Y0146729D01*
X0101201Y0147728D02*
X0097592Y0147728D01*
X0098591Y0148727D02*
X0102199Y0148727D01*
X0103198Y0149725D02*
X0099589Y0149725D01*
X0100588Y0150724D02*
X0104196Y0150724D01*
X0104286Y0151722D02*
X0101586Y0151722D01*
X0102585Y0152721D02*
X0104286Y0152721D01*
X0104286Y0153719D02*
X0103583Y0153719D01*
X0071417Y0129755D02*
X0070578Y0129755D01*
X0070418Y0128756D02*
X0066851Y0128756D01*
X0068421Y0126759D02*
X0036128Y0126759D01*
X0037857Y0125761D02*
X0067423Y0125761D01*
X0066424Y0124762D02*
X0038955Y0124762D01*
X0039953Y0123764D02*
X0065426Y0123764D01*
X0064427Y0122765D02*
X0040952Y0122765D01*
X0041763Y0121767D02*
X0063429Y0121767D01*
X0062430Y0120768D02*
X0042339Y0120768D01*
X0042916Y0119770D02*
X0061432Y0119770D01*
X0060433Y0118771D02*
X0043492Y0118771D01*
X0043991Y0117773D02*
X0059435Y0117773D01*
X0058436Y0116774D02*
X0044258Y0116774D01*
X0044526Y0115776D02*
X0057438Y0115776D01*
X0056439Y0114777D02*
X0044793Y0114777D01*
X0034398Y0127758D02*
X0069420Y0127758D01*
X0067040Y0092810D02*
X0095596Y0092810D01*
X0105740Y0076834D02*
X0133813Y0076834D01*
X0133813Y0075835D02*
X0107972Y0075835D01*
X0108970Y0074837D02*
X0133813Y0074837D01*
X0133813Y0073838D02*
X0109895Y0073838D01*
X0110309Y0072840D02*
X0133813Y0072840D01*
X0133813Y0071841D02*
X0110722Y0071841D01*
X0110924Y0070843D02*
X0133813Y0070843D01*
X0133813Y0069844D02*
X0110924Y0069844D01*
X0110924Y0068846D02*
X0133813Y0068846D01*
X0133813Y0067847D02*
X0110641Y0067847D01*
X0110227Y0066849D02*
X0120944Y0066849D01*
X0118690Y0065850D02*
X0109772Y0065850D01*
X0124704Y0066849D02*
X0133813Y0066849D01*
X0133813Y0065850D02*
X0126957Y0065850D01*
X0127955Y0064852D02*
X0133813Y0064852D01*
X0133813Y0063853D02*
X0128889Y0063853D01*
X0129302Y0062855D02*
X0133813Y0062855D01*
X0133813Y0061856D02*
X0129716Y0061856D01*
X0129924Y0060858D02*
X0133813Y0060858D01*
X0133813Y0059859D02*
X0129924Y0059859D01*
X0129924Y0058860D02*
X0133641Y0058860D01*
X0132642Y0057862D02*
X0129647Y0057862D01*
X0129233Y0056863D02*
X0131644Y0056863D01*
X0130645Y0055865D02*
X0128787Y0055865D01*
X0129646Y0054866D02*
X0127789Y0054866D01*
X0128648Y0053868D02*
X0126712Y0053868D01*
X0127649Y0052869D02*
X0124301Y0052869D01*
X0125652Y0050872D02*
X0080863Y0050872D01*
X0079865Y0051871D02*
X0126651Y0051871D01*
X0124654Y0049874D02*
X0081862Y0049874D01*
X0082860Y0048875D02*
X0123655Y0048875D01*
X0122657Y0047877D02*
X0083859Y0047877D01*
X0084857Y0046878D02*
X0121658Y0046878D01*
X0120660Y0045880D02*
X0085856Y0045880D01*
X0086854Y0044881D02*
X0119661Y0044881D01*
X0118818Y0043883D02*
X0087853Y0043883D01*
X0088852Y0042884D02*
X0118487Y0042884D01*
X0118487Y0041886D02*
X0089850Y0041886D01*
X0090693Y0041042D02*
X0090693Y0041042D01*
X0090849Y0040887D02*
X0118487Y0040887D01*
X0118487Y0039889D02*
X0115336Y0039889D01*
X0115012Y0039889D02*
X0091847Y0039889D01*
X0091924Y0038890D02*
X0112349Y0038890D01*
X0110431Y0037892D02*
X0091924Y0037892D01*
X0091924Y0036893D02*
X0108512Y0036893D01*
X0106594Y0035895D02*
X0091924Y0035895D01*
X0091924Y0034896D02*
X0104676Y0034896D01*
X0102758Y0033898D02*
X0091924Y0033898D01*
X0091924Y0032899D02*
X0100840Y0032899D01*
X0098922Y0031901D02*
X0091924Y0031901D01*
X0091924Y0030902D02*
X0097822Y0030902D01*
X0097441Y0029904D02*
X0091924Y0029904D01*
X0091924Y0028905D02*
X0097126Y0028905D01*
X0096811Y0027907D02*
X0091924Y0027907D01*
X0091924Y0026908D02*
X0096796Y0026908D01*
X0095643Y0025910D02*
X0091924Y0025910D01*
X0091924Y0024911D02*
X0093725Y0024911D01*
X0093054Y0023913D02*
X0091924Y0023913D01*
X0091924Y0022914D02*
X0092837Y0022914D01*
X0093357Y0021916D02*
X0091924Y0021916D01*
X0091924Y0020917D02*
X0093877Y0020917D01*
X0094396Y0019919D02*
X0091924Y0019919D01*
X0091924Y0018920D02*
X0094916Y0018920D01*
X0095436Y0017922D02*
X0091924Y0017922D01*
X0091924Y0016923D02*
X0095956Y0016923D01*
X0096475Y0015924D02*
X0091924Y0015924D01*
X0091924Y0014926D02*
X0096995Y0014926D01*
X0097691Y0013927D02*
X0091924Y0013927D01*
X0091924Y0012929D02*
X0098035Y0012929D01*
X0098555Y0011930D02*
X0091924Y0011930D01*
X0091924Y0010932D02*
X0099074Y0010932D01*
X0099594Y0009933D02*
X0091924Y0009933D01*
X0091924Y0008935D02*
X0100114Y0008935D01*
X0100634Y0007936D02*
X0091924Y0007936D01*
X0091924Y0006938D02*
X0101154Y0006938D01*
X0107276Y0006938D02*
X0112374Y0006938D01*
X0115506Y0006938D02*
X0119428Y0006938D01*
X0109207Y0007936D02*
X0109194Y0007936D01*
X0118432Y0038890D02*
X0118487Y0038890D01*
X0124287Y0040887D02*
X0124415Y0040887D01*
X0124868Y0041886D02*
X0126333Y0041886D01*
X0125867Y0042884D02*
X0128251Y0042884D01*
X0126865Y0043883D02*
X0130169Y0043883D01*
X0137818Y0040585D02*
X0137818Y0040585D01*
X0156370Y0033898D02*
X0162758Y0033898D01*
X0164676Y0034896D02*
X0158780Y0034896D01*
X0159817Y0035895D02*
X0166594Y0035895D01*
X0168512Y0036893D02*
X0160815Y0036893D01*
X0161245Y0037892D02*
X0170431Y0037892D01*
X0172349Y0038890D02*
X0161659Y0038890D01*
X0121346Y0052869D02*
X0078866Y0052869D01*
X0153393Y0109785D02*
X0204137Y0109785D01*
X0202942Y0110783D02*
X0153393Y0110783D01*
X0153393Y0111782D02*
X0201943Y0111782D01*
X0201448Y0112780D02*
X0153393Y0112780D01*
X0153393Y0113779D02*
X0201035Y0113779D01*
X0200724Y0114777D02*
X0153393Y0114777D01*
X0153393Y0115776D02*
X0200724Y0115776D01*
X0200724Y0116774D02*
X0153393Y0116774D01*
X0153393Y0117773D02*
X0200897Y0117773D01*
X0201310Y0118771D02*
X0153393Y0118771D01*
X0153393Y0119770D02*
X0201724Y0119770D01*
X0202609Y0120768D02*
X0153393Y0120768D01*
X0169194Y0007936D02*
X0169207Y0007936D01*
D18*
X0202580Y0051580D03*
X0230139Y0075202D03*
X0294509Y0097879D03*
X0203135Y0137249D03*
X0279820Y0160871D03*
X0147343Y0052171D03*
X0089824Y0053942D03*
X0075020Y0101344D03*
X0055020Y0121344D03*
X0013446Y0091501D03*
M02*
