G75*
%MOIN*%
%OFA0B0*%
%FSLAX25Y25*%
%IPPOS*%
%LPD*%
%AMOC8*
5,1,8,0,0,1.08239X$1,22.5*
%
%ADD10C,0.00500*%
%ADD11C,0.00600*%
%ADD12C,0.00200*%
%ADD13C,0.00800*%
D10*
X0139829Y0148972D02*
X0140731Y0148972D01*
X0141632Y0149874D01*
X0141632Y0151677D01*
X0142534Y0152579D01*
X0143436Y0152579D01*
X0144337Y0151677D01*
X0144337Y0149874D01*
X0143436Y0148972D01*
X0139829Y0148972D02*
X0138927Y0149874D01*
X0138927Y0151677D01*
X0139829Y0152579D01*
X0138927Y0154410D02*
X0138927Y0158017D01*
X0138927Y0156213D02*
X0144337Y0156213D01*
X0144337Y0159848D02*
X0140731Y0159848D01*
X0138927Y0161651D01*
X0140731Y0163454D01*
X0144337Y0163454D01*
X0144337Y0165285D02*
X0138927Y0165285D01*
X0138927Y0167990D01*
X0139829Y0168892D01*
X0141632Y0168892D01*
X0142534Y0167990D01*
X0142534Y0165285D01*
X0142534Y0167089D02*
X0144337Y0168892D01*
X0146801Y0170723D02*
X0152211Y0174330D01*
X0154675Y0174330D02*
X0155577Y0174330D01*
X0157380Y0172527D01*
X0160085Y0172527D01*
X0162549Y0173428D02*
X0162549Y0170723D01*
X0167959Y0170723D01*
X0167959Y0173428D01*
X0167058Y0174330D01*
X0166156Y0174330D01*
X0165254Y0173428D01*
X0165254Y0170723D01*
X0165254Y0173428D02*
X0164353Y0174330D01*
X0163451Y0174330D01*
X0162549Y0173428D01*
X0157380Y0172527D02*
X0155577Y0170723D01*
X0154675Y0170723D01*
X0152211Y0170723D02*
X0146801Y0174330D01*
X0144337Y0172526D02*
X0138927Y0172526D01*
X0138927Y0170723D02*
X0138927Y0174330D01*
X0136463Y0172527D02*
X0131053Y0172527D01*
X0131053Y0174330D02*
X0131053Y0170723D01*
X0128589Y0172527D02*
X0123179Y0172527D01*
X0123179Y0174330D02*
X0123179Y0170723D01*
X0124081Y0168892D02*
X0123179Y0167990D01*
X0123179Y0165285D01*
X0128589Y0165285D01*
X0126786Y0165285D02*
X0126786Y0167990D01*
X0125884Y0168892D01*
X0124081Y0168892D01*
X0126786Y0167089D02*
X0128589Y0168892D01*
X0131053Y0165285D02*
X0136463Y0165285D01*
X0136463Y0168892D01*
X0135562Y0163454D02*
X0136463Y0162553D01*
X0136463Y0160749D01*
X0135562Y0159848D01*
X0133758Y0160749D02*
X0133758Y0162553D01*
X0134660Y0163454D01*
X0135562Y0163454D01*
X0133758Y0160749D02*
X0132857Y0159848D01*
X0131955Y0159848D01*
X0131053Y0160749D01*
X0131053Y0162553D01*
X0131955Y0163454D01*
X0141632Y0163454D02*
X0141632Y0159848D01*
X0120715Y0159848D02*
X0120715Y0162553D01*
X0119814Y0163454D01*
X0116207Y0163454D01*
X0115305Y0162553D01*
X0115305Y0159848D01*
X0120715Y0159848D01*
X0120715Y0165285D02*
X0115305Y0165285D01*
X0112841Y0166187D02*
X0112841Y0167990D01*
X0111940Y0168892D01*
X0107431Y0168892D01*
X0107431Y0170723D02*
X0107431Y0173428D01*
X0108333Y0174330D01*
X0110136Y0174330D01*
X0111038Y0173428D01*
X0111038Y0170723D01*
X0112841Y0170723D02*
X0107431Y0170723D01*
X0104967Y0172526D02*
X0099557Y0172526D01*
X0099557Y0170723D02*
X0099557Y0174330D01*
X0097093Y0173428D02*
X0096192Y0174330D01*
X0092585Y0174330D01*
X0091683Y0173428D01*
X0091683Y0170723D01*
X0097093Y0170723D01*
X0097093Y0173428D01*
X0097093Y0168892D02*
X0091683Y0168892D01*
X0091683Y0165285D02*
X0097093Y0168892D01*
X0099557Y0168892D02*
X0099557Y0165285D01*
X0104967Y0165285D01*
X0104967Y0163454D02*
X0104967Y0159848D01*
X0099557Y0159848D01*
X0099557Y0163454D01*
X0097093Y0162553D02*
X0097093Y0160749D01*
X0096192Y0159848D01*
X0092585Y0159848D01*
X0091683Y0160749D01*
X0091683Y0162553D01*
X0092585Y0163454D01*
X0094388Y0163454D02*
X0094388Y0161651D01*
X0094388Y0163454D02*
X0096192Y0163454D01*
X0097093Y0162553D01*
X0097093Y0165285D02*
X0091683Y0165285D01*
X0102262Y0165285D02*
X0102262Y0167089D01*
X0107431Y0165285D02*
X0111940Y0165285D01*
X0112841Y0166187D01*
X0115305Y0168892D02*
X0120715Y0168892D01*
X0118912Y0167089D01*
X0120715Y0165285D01*
X0120715Y0170723D02*
X0115305Y0170723D01*
X0120715Y0174330D01*
X0115305Y0174330D01*
X0102262Y0161651D02*
X0102262Y0159848D01*
X0104967Y0158017D02*
X0104967Y0154410D01*
X0099557Y0154410D01*
X0170423Y0172527D02*
X0172227Y0170723D01*
X0175833Y0170723D01*
X0173128Y0170723D02*
X0173128Y0174330D01*
X0172227Y0174330D02*
X0175833Y0174330D01*
X0172227Y0174330D02*
X0170423Y0172527D01*
D11*
X0168889Y0085451D02*
X0165687Y0085451D01*
X0165687Y0079046D01*
X0168889Y0079046D01*
X0169957Y0080113D01*
X0169957Y0081181D01*
X0168889Y0082248D01*
X0165687Y0082248D01*
X0168889Y0082248D02*
X0169957Y0083316D01*
X0169957Y0084383D01*
X0168889Y0085451D01*
X0172132Y0085451D02*
X0172132Y0080113D01*
X0173200Y0079046D01*
X0175335Y0079046D01*
X0176403Y0080113D01*
X0176403Y0085451D01*
X0178578Y0085451D02*
X0182848Y0085451D01*
X0180713Y0085451D02*
X0180713Y0079046D01*
X0187158Y0079046D02*
X0187158Y0085451D01*
X0185023Y0085451D02*
X0189294Y0085451D01*
X0191469Y0084383D02*
X0191469Y0080113D01*
X0192536Y0079046D01*
X0194671Y0079046D01*
X0195739Y0080113D01*
X0195739Y0084383D01*
X0194671Y0085451D01*
X0192536Y0085451D01*
X0191469Y0084383D01*
X0197914Y0085451D02*
X0197914Y0079046D01*
X0202185Y0079046D02*
X0202185Y0085451D01*
X0197914Y0085451D02*
X0202185Y0079046D01*
X0210805Y0079046D02*
X0210805Y0085451D01*
X0214008Y0085451D01*
X0215076Y0084383D01*
X0215076Y0082248D01*
X0214008Y0081181D01*
X0210805Y0081181D01*
X0217251Y0080113D02*
X0218318Y0079046D01*
X0220453Y0079046D01*
X0221521Y0080113D01*
X0223696Y0079046D02*
X0226899Y0079046D01*
X0227967Y0080113D01*
X0227967Y0081181D01*
X0226899Y0082248D01*
X0223696Y0082248D01*
X0221521Y0084383D02*
X0220453Y0085451D01*
X0218318Y0085451D01*
X0217251Y0084383D01*
X0217251Y0080113D01*
X0223696Y0079046D02*
X0223696Y0085451D01*
X0226899Y0085451D01*
X0227967Y0084383D01*
X0227967Y0083316D01*
X0226899Y0082248D01*
X0157066Y0080113D02*
X0157066Y0084383D01*
X0155998Y0085451D01*
X0153863Y0085451D01*
X0152796Y0084383D01*
X0152796Y0080113D01*
X0153863Y0079046D01*
X0155998Y0079046D01*
X0157066Y0080113D01*
X0150621Y0079046D02*
X0148485Y0081181D01*
X0149553Y0081181D02*
X0146350Y0081181D01*
X0146350Y0079046D02*
X0146350Y0085451D01*
X0149553Y0085451D01*
X0150621Y0084383D01*
X0150621Y0082248D01*
X0149553Y0081181D01*
X0144175Y0079046D02*
X0139905Y0079046D01*
X0139905Y0085451D01*
X0144175Y0085451D01*
X0142040Y0082248D02*
X0139905Y0082248D01*
X0137730Y0084383D02*
X0133459Y0080113D01*
X0133459Y0079046D01*
X0137730Y0079046D01*
X0137730Y0084383D02*
X0137730Y0085451D01*
X0133459Y0085451D01*
X0124839Y0085451D02*
X0124839Y0084383D01*
X0122703Y0082248D01*
X0122703Y0079046D01*
X0118393Y0080113D02*
X0118393Y0084383D01*
X0117325Y0085451D01*
X0115190Y0085451D01*
X0114123Y0084383D01*
X0114123Y0080113D01*
X0115190Y0079046D01*
X0117325Y0079046D01*
X0118393Y0080113D01*
X0120568Y0084383D02*
X0122703Y0082248D01*
X0120568Y0084383D02*
X0120568Y0085451D01*
X0111948Y0084383D02*
X0111948Y0083316D01*
X0110880Y0082248D01*
X0107677Y0082248D01*
X0107677Y0079046D02*
X0107677Y0085451D01*
X0110880Y0085451D01*
X0111948Y0084383D01*
X0110880Y0082248D02*
X0111948Y0081181D01*
X0111948Y0080113D01*
X0110880Y0079046D01*
X0107677Y0079046D01*
X0105502Y0079046D02*
X0101232Y0079046D01*
X0101232Y0085451D01*
X0105502Y0085451D01*
X0103367Y0082248D02*
X0101232Y0082248D01*
X0099057Y0079046D02*
X0099057Y0085451D01*
X0096921Y0083316D01*
X0094786Y0085451D01*
X0094786Y0079046D01*
X0092611Y0079046D02*
X0092611Y0083316D01*
X0090476Y0085451D01*
X0088341Y0083316D01*
X0088341Y0079046D01*
X0086166Y0080113D02*
X0086166Y0082248D01*
X0084030Y0082248D01*
X0081895Y0084383D02*
X0081895Y0080113D01*
X0082963Y0079046D01*
X0085098Y0079046D01*
X0086166Y0080113D01*
X0088341Y0082248D02*
X0092611Y0082248D01*
X0086166Y0084383D02*
X0085098Y0085451D01*
X0082963Y0085451D01*
X0081895Y0084383D01*
D12*
X0103349Y0037802D02*
X0103644Y0037507D01*
X0104234Y0037507D01*
X0104529Y0037802D01*
X0104529Y0038097D01*
X0104234Y0038392D01*
X0103644Y0038392D01*
X0103349Y0038687D01*
X0103349Y0038982D01*
X0103644Y0039277D01*
X0104234Y0039277D01*
X0104529Y0038982D01*
X0105161Y0039277D02*
X0105161Y0037507D01*
X0106341Y0037507D01*
X0106974Y0037507D02*
X0108154Y0037507D01*
X0108787Y0037507D02*
X0109967Y0037507D01*
X0110599Y0037802D02*
X0110894Y0037507D01*
X0111484Y0037507D01*
X0111779Y0037802D01*
X0110599Y0037802D02*
X0110599Y0038982D01*
X0110894Y0039277D01*
X0111484Y0039277D01*
X0111779Y0038982D01*
X0112412Y0039277D02*
X0113592Y0039277D01*
X0113002Y0039277D02*
X0113002Y0037507D01*
X0109967Y0039277D02*
X0108787Y0039277D01*
X0108787Y0037507D01*
X0108787Y0038392D02*
X0109377Y0038392D01*
X0106974Y0039277D02*
X0106974Y0037507D01*
X0105751Y0038392D02*
X0105161Y0038392D01*
X0105161Y0039277D02*
X0106341Y0039277D01*
X0164372Y0038982D02*
X0164372Y0038687D01*
X0164667Y0038392D01*
X0165257Y0038392D01*
X0165552Y0038097D01*
X0165552Y0037802D01*
X0165257Y0037507D01*
X0164667Y0037507D01*
X0164372Y0037802D01*
X0164372Y0038982D02*
X0164667Y0039277D01*
X0165257Y0039277D01*
X0165552Y0038982D01*
X0166185Y0039277D02*
X0167365Y0039277D01*
X0166775Y0039277D02*
X0166775Y0037507D01*
X0167998Y0037507D02*
X0167998Y0038687D01*
X0168588Y0039277D01*
X0169178Y0038687D01*
X0169178Y0037507D01*
X0169810Y0037507D02*
X0169810Y0039277D01*
X0170695Y0039277D01*
X0170990Y0038982D01*
X0170990Y0038392D01*
X0170695Y0038097D01*
X0169810Y0038097D01*
X0170400Y0038097D02*
X0170990Y0037507D01*
X0172213Y0037507D02*
X0172213Y0039277D01*
X0171623Y0039277D02*
X0172803Y0039277D01*
X0169178Y0038392D02*
X0167998Y0038392D01*
X0078470Y0088688D02*
X0078470Y0090458D01*
X0077290Y0090458D02*
X0077290Y0088688D01*
X0076658Y0088688D02*
X0076658Y0090458D01*
X0077290Y0090458D02*
X0078470Y0088688D01*
X0076658Y0088688D02*
X0076068Y0089278D01*
X0075478Y0088688D01*
X0075478Y0090458D01*
X0074845Y0090163D02*
X0074550Y0090458D01*
X0073960Y0090458D01*
X0073665Y0090163D01*
X0073665Y0088983D01*
X0073960Y0088688D01*
X0074550Y0088688D01*
X0074845Y0088983D01*
X0074845Y0090163D01*
X0073033Y0090163D02*
X0072738Y0090458D01*
X0071853Y0090458D01*
X0071853Y0088688D01*
X0072738Y0088688D01*
X0073033Y0088983D01*
X0073033Y0090163D01*
X0046384Y0120184D02*
X0046384Y0121954D01*
X0045794Y0121954D02*
X0046974Y0121954D01*
X0045162Y0121954D02*
X0043982Y0121954D01*
X0043982Y0120184D01*
X0043349Y0120184D02*
X0042169Y0120184D01*
X0042169Y0121954D01*
X0043349Y0121954D01*
X0042759Y0121069D02*
X0042169Y0121069D01*
X0041537Y0120184D02*
X0040357Y0120184D01*
X0040357Y0121954D01*
X0043982Y0121069D02*
X0044572Y0121069D01*
X0072148Y0161523D02*
X0072738Y0161523D01*
X0073033Y0161818D01*
X0073033Y0163293D01*
X0073665Y0163293D02*
X0074550Y0163293D01*
X0074845Y0162998D01*
X0074845Y0162408D01*
X0074550Y0162113D01*
X0073665Y0162113D01*
X0073665Y0161523D02*
X0073665Y0163293D01*
X0071853Y0163293D02*
X0071853Y0161818D01*
X0072148Y0161523D01*
X0107286Y0127860D02*
X0108171Y0127860D01*
X0108466Y0127565D01*
X0108466Y0126975D01*
X0108171Y0126680D01*
X0107286Y0126680D01*
X0107876Y0126680D02*
X0108466Y0126090D01*
X0109098Y0126090D02*
X0109688Y0126090D01*
X0109393Y0126090D02*
X0109393Y0127860D01*
X0109098Y0127860D02*
X0109688Y0127860D01*
X0110307Y0127565D02*
X0110602Y0127860D01*
X0111192Y0127860D01*
X0111487Y0127565D01*
X0111487Y0126975D02*
X0110897Y0126975D01*
X0111487Y0126975D02*
X0111487Y0126385D01*
X0111192Y0126090D01*
X0110602Y0126090D01*
X0110307Y0126385D01*
X0110307Y0127565D01*
X0112119Y0127860D02*
X0112119Y0126090D01*
X0112119Y0126975D02*
X0113299Y0126975D01*
X0113299Y0127860D02*
X0113299Y0126090D01*
X0114522Y0126090D02*
X0114522Y0127860D01*
X0113932Y0127860D02*
X0115112Y0127860D01*
X0107286Y0127860D02*
X0107286Y0126090D01*
X0218112Y0177271D02*
X0218112Y0178156D01*
X0218702Y0178746D01*
X0218702Y0179041D01*
X0218112Y0178156D02*
X0217522Y0178746D01*
X0217522Y0179041D01*
X0280514Y0200893D02*
X0281694Y0202663D01*
X0280514Y0202663D02*
X0281694Y0200893D01*
X0300789Y0147545D02*
X0301379Y0146955D01*
X0301379Y0145775D01*
X0301379Y0146660D02*
X0300199Y0146660D01*
X0300199Y0146955D02*
X0300789Y0147545D01*
X0300199Y0146955D02*
X0300199Y0145775D01*
X0246261Y0119691D02*
X0246261Y0119396D01*
X0245966Y0119101D01*
X0245081Y0119101D01*
X0245081Y0119986D02*
X0245966Y0119986D01*
X0246261Y0119691D01*
X0245966Y0119101D02*
X0246261Y0118806D01*
X0246261Y0118511D01*
X0245966Y0118216D01*
X0245081Y0118216D01*
X0245081Y0119986D01*
D13*
X0178115Y0176458D02*
X0089532Y0176458D01*
X0089532Y0186301D01*
X0178115Y0186301D01*
X0178115Y0176458D01*
M02*
