%
M48
M72
T01C0.02362
T02C0.03600
T03C0.10000
T04C0.18000
%
T01
X89824Y53942
X147343Y52171
X202580Y51580
X230139Y75202
X294509Y97879
X203135Y137249
X279820Y160871
X75020Y101344
X55020Y121344
X13446Y91501
T02
X94454Y181379
X102328Y181379
X110202Y181379
X118076Y181379
X125950Y181379
X133824Y181379
X141698Y181379
X149572Y181379
X157446Y181379
X165320Y181379
X173194Y181379
T03
X124824Y147942
X207824Y115942
X122824Y59942
X103824Y69942
X154824Y40942
X313824Y80942
X318824Y115942
X313824Y170942
X20824Y151942
X14824Y173942
T04
X269824Y68942
M30
